<svg xmlns="http://www.w3.org/2000/svg" viewBox="0 0 21 20.995" fill="#fff"><path data-name="Path 343" d="M10.495 14.764a4.269 4.269 0 1 1 4.269-4.269 4.269 4.269 0 0 1-4.269 4.269zm10.424-9.443a6.987 6.987 0 0 0-.442-2.379 3.973 3.973 0 0 0-.955-1.474 3.911 3.911 0 0 0-1.475-.955 7.118 7.118 0 0 0-2.378-.442C14.322.015 13.915 0 10.495 0S6.673.015 5.321.076a7.115 7.115 0 0 0-2.373.437 3.973 3.973 0 0 0-1.474.955 3.911 3.911 0 0 0-.956 1.475 7.118 7.118 0 0 0-.442 2.378C.015 6.673 0 7.08 0 10.495s.015 3.822.076 5.174a6.987 6.987 0 0 0 .442 2.379 3.973 3.973 0 0 0 .955 1.474 3.911 3.911 0 0 0 1.474.955 7.118 7.118 0 0 0 2.379.442c1.352.061 1.753.076 5.174.076s3.822-.015 5.174-.076a6.987 6.987 0 0 0 2.379-.442 3.973 3.973 0 0 0 1.474-.955 3.911 3.911 0 0 0 .955-1.474 7.118 7.118 0 0 0 .442-2.379c.061-1.352.076-1.753.076-5.174s-.02-3.822-.081-5.174zm-10.424 11.75a6.576 6.576 0 1 1 6.576-6.576 6.577 6.577 0 0 1-6.576 6.576zM17.331 5.2a1.535 1.535 0 1 1 1.535-1.535A1.533 1.533 0 0 1 17.331 5.2z"/></svg>