<svg id="Слой_1" xmlns="http://www.w3.org/2000/svg" viewBox="0 0 373.4 346"><style>.st0{fill:#fff}</style><path class="st0" d="M204.3 118.4h1.8v11.5h6v1.7h-7.8v-13.2zM220.6 118.4v8.1c0 .4.1.8.2 1.3.1.4.3.8.6 1.2.3.4.6.7 1 .9.4.2.9.4 1.6.4s1.1-.1 1.6-.4c.4-.2.8-.5 1-.9.3-.4.4-.8.6-1.2.1-.4.2-.9.2-1.3v-8.1h1.8v8.3c0 .8-.1 1.5-.4 2.1-.3.6-.6 1.2-1.1 1.6s-1 .8-1.6 1.1c-.6.2-1.3.4-2 .4s-1.4-.1-2-.4-1.2-.6-1.6-1.1c-.4-.5-.8-1-1.1-1.6-.3-.6-.4-1.3-.4-2.1v-8.3h1.6zM240.3 124.6l-4.4-6.2h2.3l3.4 5.1 3.4-5.1h2.2l-4.4 6.2 4.8 6.9h-2.3l-3.8-5.7-3.8 5.7h-2.2l4.8-6.9zM256 118.4v8.1c0 .4.1.8.2 1.3.1.4.3.8.6 1.2.3.4.6.7 1 .9.4.2.9.4 1.6.4s1.1-.1 1.6-.4c.4-.2.8-.5 1-.9.3-.4.4-.8.6-1.2.1-.4.2-.9.2-1.3v-8.1h1.8v8.3c0 .8-.1 1.5-.4 2.1-.3.6-.6 1.2-1.1 1.6s-1 .8-1.6 1.1c-.6.2-1.3.4-2 .4s-1.4-.1-2-.4-1.2-.6-1.6-1.1c-.4-.5-.8-1-1.1-1.6-.3-.6-.4-1.3-.4-2.1v-8.3h1.6zM272.7 118.4h4.6c.8 0 1.5.1 2.1.3.5.2 1 .5 1.3.9s.5.7.7 1.2c.1.4.2.9.2 1.3s-.1.8-.2 1.2c-.1.4-.4.7-.6 1.1-.3.3-.6.6-1 .8s-.9.3-1.3.4l3.7 6h-2.3l-3.3-5.8h-2v5.8h-1.8v-13.2h-.1zm1.8 5.8h2.3c.3 0 .7 0 1-.1l.9-.3c.3-.1.5-.4.6-.6.2-.3.2-.6.2-1.1s-.1-.8-.2-1.1c-.2-.3-.4-.5-.6-.6-.3-.1-.6-.3-.9-.3s-.7-.1-1-.1h-2.3v4.2zM292.4 125.9l-5-7.5h2.3l3.6 5.8 3.7-5.8h2.2l-5 7.5v5.6h-1.8v-5.6z"/><g><path class="st0" d="M203.6 142.3h4.6c.8 0 1.5.1 2.1.3.5.2 1 .5 1.3.9s.5.7.7 1.2c.1.4.2.9.2 1.3s-.1.8-.2 1.3c-.1.4-.3.8-.7 1.2-.3.4-.7.6-1.3.9-.5.2-1.2.3-2.1.3h-2.8v5.8h-1.8v-13.2zm1.8 5.8h2.3c.3 0 .7 0 1-.1l.9-.3c.3-.1.5-.4.6-.6.2-.3.2-.6.2-1.1s-.1-.8-.2-1.1c-.2-.3-.4-.5-.6-.6-.3-.1-.6-.3-.9-.3s-.7-.1-1-.1h-2.3v4.2zM219.8 142.3h4.6c.8 0 1.5.1 2.1.3.5.2 1 .5 1.3.9s.5.7.7 1.2c.1.4.2.9.2 1.3s-.1.8-.2 1.2c-.1.4-.4.7-.6 1.1-.3.3-.6.6-1 .8s-.9.3-1.3.4l3.7 6h-2.4l-3.3-5.8h-2v5.8h-1.8v-13.2zm1.8 5.8h2.3c.3 0 .7 0 1-.1l.9-.3c.3-.1.5-.4.6-.6.2-.3.2-.6.2-1.1s-.1-.8-.2-1.1c-.2-.3-.4-.5-.6-.6-.3-.1-.6-.3-.9-.3s-.7-.1-1-.1h-2.3v4.2zM242.3 155.7c-1 0-1.9-.2-2.8-.5-.8-.4-1.6-.8-2.2-1.5-.6-.6-1.1-1.3-1.4-2.2-.3-.8-.5-1.8-.5-2.7 0-1 .2-1.9.5-2.7s.8-1.6 1.4-2.2c.6-.6 1.3-1.1 2.2-1.5.8-.4 1.8-.5 2.8-.5s1.9.2 2.8.5c.8.4 1.6.8 2.2 1.5.6.6 1.1 1.4 1.4 2.2.3.8.5 1.8.5 2.7 0 1-.2 1.9-.5 2.7s-.8 1.6-1.4 2.2c-.6.6-1.3 1.1-2.2 1.5s-1.8.5-2.8.5zm0-1.6c.8 0 1.4-.1 2-.4s1.1-.7 1.6-1.1c.4-.5.8-1 1-1.7s.4-1.3.4-2-.1-1.4-.4-2-.6-1.2-1-1.7-1-.8-1.6-1.1-1.3-.4-2-.4c-.8 0-1.4.1-2 .4-.6.3-1.1.7-1.6 1.1-.4.5-.8 1-1 1.7-.2.6-.4 1.3-.4 2s.1 1.4.4 2c.2.6.6 1.2 1 1.7s1 .8 1.6 1.1c.6.2 1.3.4 2 .4zM256.6 142.3h4.6c.9 0 1.7.1 2.4.3.7.2 1.3.5 1.8.8s.9.8 1.3 1.2c.3.5.6.9.8 1.4s.3 1 .4 1.4c.1.5.1.9.1 1.3 0 .8-.2 1.7-.5 2.4s-.8 1.5-1.4 2.1-1.4 1.1-2.3 1.5-1.9.6-3.1.6h-4.3v-13h.2zm1.8 11.4h2.2c.8 0 1.5-.1 2.1-.3.7-.2 1.3-.5 1.8-.9s.9-.9 1.2-1.5.4-1.3.4-2.1c0-.4-.1-.9-.2-1.5s-.4-1.1-.8-1.6-.9-.9-1.6-1.3c-.7-.4-1.5-.5-2.6-.5h-2.7v9.7h.2zM277.4 142.3v8.1c0 .4.1.8.2 1.3.1.4.3.8.6 1.2.3.4.6.7 1 .9s.9.4 1.6.4 1.1-.1 1.6-.4c.4-.2.8-.5 1-.9.3-.4.4-.8.6-1.2.1-.4.2-.9.2-1.3v-8.1h1.8v8.3c0 .8-.1 1.5-.4 2.1s-.6 1.2-1.1 1.6-1 .8-1.6 1.1c-.6.2-1.3.4-2 .4s-1.4-.1-2-.4-1.2-.6-1.6-1.1-.8-1-1.1-1.6c-.3-.6-.4-1.3-.4-2.1v-8.3h1.6zM303.2 145.1c-.4-.5-.8-.9-1.4-1.1-.6-.3-1.2-.4-1.8-.4-.7 0-1.4.1-2 .4-.6.3-1.1.7-1.5 1.1-.4.5-.8 1-1 1.7-.2.6-.4 1.3-.4 2.1 0 .7.1 1.4.3 2 .2.6.5 1.2 1 1.6.4.5.9.8 1.5 1.1s1.3.4 2.1.4 1.4-.2 2-.5 1.1-.7 1.4-1.3l1.5 1.1c-.1.1-.3.3-.5.6s-.6.5-1 .8-.9.5-1.5.7-1.2.3-2 .3c-1 0-2-.2-2.8-.6-.8-.4-1.5-.9-2.1-1.6-.6-.6-1-1.4-1.3-2.2s-.5-1.6-.5-2.5c0-1 .2-2 .5-2.8.3-.9.8-1.6 1.4-2.2.6-.6 1.3-1.1 2.2-1.5.8-.3 1.8-.5 2.8-.5.9 0 1.7.2 2.6.5.8.3 1.5.8 2.1 1.5l-1.6 1.3zM315.1 143.9h-4.2v-1.7h10.3v1.7H317v11.5h-1.8l-.1-11.5zM328.1 142.3h1.8v13.2h-1.8v-13.2zM344.5 155.7c-1 0-1.9-.2-2.8-.5-.8-.4-1.6-.8-2.2-1.5-.6-.6-1.1-1.3-1.4-2.2-.3-.8-.5-1.8-.5-2.7 0-1 .2-1.9.5-2.7s.8-1.6 1.4-2.2c.6-.6 1.3-1.1 2.2-1.5.8-.4 1.8-.5 2.8-.5s1.9.2 2.8.5c.8.4 1.6.8 2.2 1.5.6.6 1.1 1.4 1.4 2.2s.5 1.8.5 2.7c0 1-.2 1.9-.5 2.7s-.8 1.6-1.4 2.2c-.6.6-1.3 1.1-2.2 1.5-.9.4-1.8.5-2.8.5zm0-1.6c.8 0 1.4-.1 2-.4s1.1-.7 1.6-1.1c.4-.5.8-1 1-1.7s.4-1.3.4-2-.1-1.4-.4-2-.6-1.2-1-1.7-1-.8-1.6-1.1-1.3-.4-2-.4c-.8 0-1.4.1-2 .4-.6.3-1.1.7-1.6 1.1-.4.5-.8 1-1 1.7-.2.6-.4 1.3-.4 2s.1 1.4.4 2c.2.6.6 1.2 1 1.7s1 .8 1.6 1.1c.6.2 1.2.4 2 .4zM359.1 142.3h2.3l7.2 10.8v-10.8h1.8v13.2h-2.3l-7.3-10.8v10.8H359l.1-13.2z"/></g><g><path class="st0" d="M186.9 3.4c0 19.5.1 39 .1 58.5v162.7c-.5.1-1 .3-1.5.4-.7-1.1-1.4-2.1-2-3.2-2.8-6.2-5-12.8-8.4-18.6-11.9-20.8-42-16.8-52.7-5.1-8.7 9.6-8.2 22.8 2.7 29.7 7.3 4.6 15.9 7.3 24.1 10.5 9.3 3.6 18.9 6.5 28 10.5 8.1 3.6 13.8 10 18.1 17.9 9.2 16.7 28.5 18.8 42.1 11.9 7.2-3.7 9.7-10.6 9.6-18.5-.1-7.7-4.1-13.2-10.8-16.1-7.8-3.3-16-5.4-24-8.3-8-2.8-15.6-6.3-18.5-15.3-6.2-19.4 11.4-38.1 32.6-34.6 3.2.5 6.5 1.6 9.5 2.9 4 1.7 7.7 3.1 11.9-1.4v23.6c-.2.1-.5.2-.7.3-.7-1.8-1.4-3.7-2.1-5.5-5.6-15.7-18.6-22.1-33.6-16.4-6.6 2.5-10.8 7.1-11.5 14.3-.7 7.6 2.9 13.2 9.6 15.9 9.2 3.8 18.7 6.8 28.2 9.8 10.4 3.3 18.6 8.7 19.5 20.6 1 12.8-4.2 22.9-15.4 29.1-12.2 6.8-25 5.4-37.8 1.6-1.9-.6-3.7-1.1-6-1.7 0 14.2-5 25.7-15.3 34.5-15.3 13-33.2 15.2-52.2 11.3-6-1.2-12-2.9-17.9-4.5-4.6-1.3-7.9-.4-11.2 3.7C87.8 340.7 69.6 346.2 49 343c-20.1-3.1-34.7-14.4-41.4-34-10.7-31.4 7.7-64.4 42.9-69.7 1.6-.2 3.2-.5 5.2-.8V3.3h25c.3.8.8 1.5 1 2.3 12.2 35.6 24.5 71.2 36.7 106.7 1 2.8 2 5.6 3.5 9.6 14.1-40.5 27.6-79.5 41-118.5h24zm-74.3 155.2c-.4 0-.8-.1-1.1-.1-17-49-34.1-98.1-51.1-147.1-.3.1-.6.2-.9.2v226.9c1.8.2 3.4.5 5 .6 31.6 2.9 52.7 29.9 47.6 61.1-.6 3.9 0 6.8 2.8 9.4 2.2 2.1 4.1 4.3 6.4 6.3 12.4 10.4 35.4 10.9 48.2 1.3 17-12.9 14.4-35.4-5.1-43.6-2.7-1.2-5.6-2.1-8.4-3.1-10.2-3.4-20.8-6.2-30.7-10.4-26.8-11.5-31.2-44.9-8.7-63.3 12.3-10 26.5-12.5 41.9-10.1 2 .3 4.1.3 6.3.4V10.7c-.3 0-.6-.1-.8-.1-17.3 49.3-34.3 98.6-51.4 148zM58.4 259.5c-17.4.1-30.4 13.9-30.3 32.2.1 18 13.6 31.6 31 31.6s30.6-14 30.3-32.1c-.2-18.2-13.6-31.8-31-31.7z"/></g></svg>