<svg width="28" height="26" fill="none" xmlns="http://www.w3.org/2000/svg">
    <path d="M2 1.2a.8.8 0 0 0-.8.8v3.26a.8.8 0 0 0 .8.8h3.2a.8.8 0 0 0 .8-.8V2a.8.8 0 0 0-.8-.8H2zM10 1.2a.8.8 0 0 0-.8.8v3.26a.8.8 0 0 0 .8.8h16a.8.8 0 0 0 .8-.8V2a.8.8 0 0 0-.8-.8H10zM2 10.978a.8.8 0 0 0-.8.8v3.259a.8.8 0 0 0 .8.8h3.2a.8.8 0 0 0 .8-.8v-3.26a.8.8 0 0 0-.8-.8H2zM10 10.978a.8.8 0 0 0-.8.8v3.259a.8.8 0 0 0 .8.8h16a.8.8 0 0 0 .8-.8v-3.26a.8.8 0 0 0-.8-.8H10zM2 19.94a.8.8 0 0 0-.8.8V24a.8.8 0 0 0 .8.8h24a.8.8 0 0 0 .8-.8v-3.26a.8.8 0 0 0-.8-.8H2z" stroke="#BCC1FF" stroke-width="1.6" stroke-linecap="round" stroke-linejoin="round"/>
</svg>
