<svg width="29" height="29" viewBox="0 0 29 29" fill="none" xmlns="http://www.w3.org/2000/svg">
<path fill-rule="evenodd" clip-rule="evenodd" d="M1 27.3864C1 27.7076 1.29224 28 1.61353 28H18.7942C19.0706 28 19.4077 27.7205 19.4077 27.3864V18.7955C19.4124 18.4713 19.1184 18.1731 18.7942 18.1731C18.47 18.1731 18.176 18.4713 18.1807 18.7955V26.7727H2.22729V2.22729H18.1807V10.1949C18.176 10.5192 18.47 10.8173 18.7942 10.8173C19.1184 10.8173 19.4124 10.5192 19.4077 10.1949V1.61365C19.4077 1.29236 19.1155 1.00006 18.7942 1H1.61353C1.29224 1.00006 1 1.29236 1 1.61365V27.3864ZM27.8062 14.9506C27.917 14.8464 27.9868 14.6997 27.998 14.5479C28.0132 14.3643 27.9407 14.1754 27.8062 14.0493L24.1248 10.6743C23.8887 10.4559 23.4753 10.4719 23.2571 10.7079C23.0386 10.9438 23.0547 11.3572 23.2905 11.5756L25.8542 13.8864H10.2039C9.87964 13.8818 9.58154 14.1758 9.58154 14.5C9.58154 14.8242 9.87964 15.1182 10.2039 15.1136H25.8542L23.2905 17.4243C23.0547 17.6427 23.0386 18.0561 23.2571 18.2921C23.4753 18.528 23.8887 18.544 24.1248 18.3256L27.8062 14.9506Z" fill="#BCC1FF"/>
<path d="M19.4077 18.7955L18.9077 18.7883V18.7955H19.4077ZM18.1807 18.7955H18.6807L18.6806 18.7883L18.1807 18.7955ZM18.1807 26.7727V27.2727H18.6807V26.7727H18.1807ZM2.22729 26.7727H1.72729V27.2727H2.22729V26.7727ZM2.22729 2.22729V1.72729H1.72729V2.22729H2.22729ZM18.1807 2.22729H18.6807V1.72729H18.1807V2.22729ZM18.1807 10.1949L18.6807 10.2021V10.1949H18.1807ZM19.4077 10.1949H18.9077L18.9078 10.2021L19.4077 10.1949ZM18.7942 1L18.7943 0.5H18.7942V1ZM1.61353 1V0.5H1.61343L1.61353 1ZM27.998 14.5479L27.4997 14.5068L27.4994 14.511L27.998 14.5479ZM27.8062 14.9506L28.1441 15.3192L28.1487 15.3148L27.8062 14.9506ZM27.8062 14.0493L28.148 13.6844L28.144 13.6808L27.8062 14.0493ZM24.1248 10.6743L23.7852 11.0414L23.7869 11.0429L24.1248 10.6743ZM23.2571 10.7079L23.6239 11.0476L23.6241 11.0474L23.2571 10.7079ZM23.2905 11.5756L22.9508 11.9425L22.9558 11.947L23.2905 11.5756ZM25.8542 13.8864V14.3864H27.1558L26.189 13.5149L25.8542 13.8864ZM10.2039 13.8864L10.1968 14.3864H10.2039V13.8864ZM10.2039 15.1136V14.6135L10.1967 14.6136L10.2039 15.1136ZM25.8542 15.1136L26.189 15.485L27.1558 14.6136H25.8542V15.1136ZM23.2905 17.4243L22.9557 17.0529L22.9508 17.0574L23.2905 17.4243ZM23.2571 18.2921L23.6241 17.9525L23.6239 17.9523L23.2571 18.2921ZM24.1248 18.3256L23.7869 17.9571L23.7852 17.9586L24.1248 18.3256ZM1.61353 27.5C1.60465 27.5 1.57379 27.4941 1.53988 27.4602C1.50597 27.4262 1.5 27.3953 1.5 27.3864H0.5C0.5 27.9837 1.01597 28.5 1.61353 28.5V27.5ZM18.7942 27.5H1.61353V28.5H18.7942V27.5ZM18.9077 27.3864C18.9077 27.3825 18.9073 27.4117 18.8622 27.4541C18.8421 27.473 18.8206 27.4866 18.803 27.4945C18.7844 27.5027 18.7809 27.5 18.7942 27.5V28.5C19.0883 28.5 19.3587 28.3597 19.547 28.1829C19.7395 28.0019 19.9077 27.7244 19.9077 27.3864H18.9077ZM18.9077 18.7955V27.3864H19.9077V18.7955H18.9077ZM18.7942 18.6731C18.8028 18.6731 18.834 18.679 18.8682 18.7137C18.9024 18.7484 18.9079 18.7797 18.9078 18.7883L19.9077 18.8026C19.9163 18.1995 19.3973 17.6731 18.7942 17.6731V18.6731ZM18.6806 18.7883C18.6805 18.7797 18.686 18.7484 18.7202 18.7137C18.7544 18.679 18.7855 18.6731 18.7942 18.6731V17.6731C18.191 17.6731 17.6721 18.1995 17.6807 18.8026L18.6806 18.7883ZM18.6807 26.7727V18.7955H17.6807V26.7727H18.6807ZM2.22729 27.2727H18.1807V26.2727H2.22729V27.2727ZM1.72729 2.22729V26.7727H2.72729V2.22729H1.72729ZM18.1807 1.72729H2.22729V2.72729H18.1807V1.72729ZM18.6807 10.1949V2.22729H17.6807V10.1949H18.6807ZM18.7942 10.3173C18.7855 10.3173 18.7544 10.3114 18.7202 10.2767C18.686 10.242 18.6805 10.2108 18.6806 10.2021L17.6807 10.1878C17.6721 10.7909 18.191 11.3173 18.7942 11.3173V10.3173ZM18.9078 10.2021C18.9079 10.2108 18.9024 10.242 18.8682 10.2767C18.834 10.3114 18.8028 10.3173 18.7942 10.3173V11.3173C19.3973 11.3173 19.9163 10.7909 19.9077 10.1878L18.9078 10.2021ZM18.9077 1.61365V10.1949H19.9077V1.61365H18.9077ZM18.7941 1.5C18.803 1.5 18.8339 1.50597 18.8678 1.53988C18.9018 1.57379 18.9077 1.6047 18.9077 1.61365H19.9077C19.9077 1.01626 19.3917 0.500113 18.7943 0.5L18.7941 1.5ZM1.61353 1.5H18.7942V0.5H1.61353V1.5ZM1.5 1.61365C1.5 1.6047 1.50596 1.57379 1.53987 1.53988C1.57377 1.50597 1.60467 1.5 1.61362 1.5L1.61343 0.5C1.01603 0.500113 0.5 1.01626 0.5 1.61365H1.5ZM1.5 27.3864V1.61365H0.5V27.3864H1.5ZM27.4994 14.511C27.5035 14.5716 27.513 14.5517 27.4636 14.5864L28.1487 15.3148C28.321 15.141 28.4701 14.8278 28.4967 14.5848L27.4994 14.511ZM27.4643 14.4142C27.487 14.4355 27.5024 14.4748 27.4997 14.5068L28.4964 14.589C28.524 14.2538 28.3943 13.9152 28.148 13.6844L27.4643 14.4142ZM23.7869 11.0429L27.4683 14.4179L28.144 13.6808L24.4626 10.3058L23.7869 11.0429ZM23.6241 11.0474C23.6302 11.0409 23.6555 11.0222 23.7036 11.0203C23.7516 11.0185 23.7785 11.0351 23.7852 11.0414L24.4643 10.3073C24.0257 9.90154 23.296 9.9295 22.89 10.3684L23.6241 11.0474ZM23.6302 11.2088C23.6236 11.2026 23.6049 11.1771 23.6031 11.129C23.6012 11.081 23.6178 11.0542 23.6239 11.0476L22.8902 10.3682C22.4839 10.8069 22.5125 11.5367 22.9508 11.9425L23.6302 11.2088ZM26.189 13.5149L23.6253 11.2042L22.9558 11.947L25.5195 14.2578L26.189 13.5149ZM10.2039 14.3864H25.8542V13.3864H10.2039V14.3864ZM10.0815 14.5C10.0815 14.4913 10.0875 14.4601 10.1222 14.4259C10.1569 14.3917 10.1881 14.3862 10.1968 14.3863L10.2109 13.3864C9.60775 13.3779 9.08154 13.897 9.08154 14.5H10.0815ZM10.1967 14.6136C10.1881 14.6138 10.1569 14.6083 10.1222 14.5741C10.0875 14.5399 10.0815 14.5087 10.0815 14.5H9.08154C9.08154 15.103 9.60775 15.6222 10.211 15.6135L10.1967 14.6136ZM25.8542 14.6136H10.2039V15.6136H25.8542V14.6136ZM23.6253 17.7957L26.189 15.485L25.5195 14.7422L22.9558 17.0529L23.6253 17.7957ZM23.6239 17.9523C23.6178 17.9457 23.6012 17.919 23.6031 17.8709C23.6049 17.8229 23.6236 17.7973 23.6302 17.7912L22.9508 17.0574C22.5125 17.4633 22.4839 18.193 22.8902 18.6318L23.6239 17.9523ZM23.7852 17.9586C23.7785 17.9648 23.7516 17.9814 23.7036 17.9796C23.6555 17.9777 23.6302 17.9591 23.6241 17.9525L22.89 18.6316C23.296 19.0704 24.0257 19.0984 24.4643 18.6927L23.7852 17.9586ZM27.4683 14.5821L23.7869 17.9571L24.4626 18.6942L28.144 15.3192L27.4683 14.5821Z" fill="#BCC1FF"/>
</svg>
