<svg width="16" height="21" viewBox="0 0 16 21" fill="none" xmlns="http://www.w3.org/2000/svg">
<path fill-rule="evenodd" clip-rule="evenodd" d="M7.81909 0.399994C13.1311 0.399994 15.1995 4.19717 15.1995 7.72298C15.1995 7.79626 15.1975 7.86977 15.1956 7.94305L15.1975 7.97833C15.1982 7.98871 15.199 7.9991 15.1992 8.00963C15.2773 13.3335 9.55078 20.8 8.07007 20.8C6.5896 20.8 0.800049 13.8333 0.800049 8.00963C0.800049 7.98004 0.802734 7.95137 0.803711 7.92224L0.802979 7.89995C0.801514 7.84081 0.800049 7.78171 0.800049 7.72298C0.800049 4.28734 2.50635 0.399994 7.81909 0.399994ZM4.61743 7.71442C4.61743 9.22234 5.48657 11.0107 7.93823 11.1339C10.4749 11.261 11.3826 9.37097 11.3826 7.71442C11.3826 6.05786 10.4109 4.27393 7.91528 4.27393C5.41919 4.27393 4.61743 6.10039 4.61743 7.71442Z" fill="#F59623"/>
</svg>
