<?xml version="1.0" encoding="utf-8"?>
<!-- Generator: Adobe Illustrator 21.0.0, SVG Export Plug-In . SVG Version: 6.00 Build 0)  -->
<svg version="1.1" id="Слой_1" xmlns="http://www.w3.org/2000/svg" xmlns:xlink="http://www.w3.org/1999/xlink" x="0px" y="0px"
	 viewBox="0 0 157 30.2" style="enable-background:new 0 0 157 30.2;" xml:space="preserve">
<style type="text/css">
	.st0{fill:#FFFFFF;}
</style>
<g>
	<g>
		<g>
			<path class="st0" d="M1,21.1h1.9c0.7,0,1.2,0.2,1.5,0.5c0.3,0.4,0.4,0.9,0.4,1.5s-0.1,1.1-0.4,1.5S3.6,25.2,3,25.2H1.5v4H1V21.1z
				 M2.8,24.9c0.5,0,0.9-0.1,1.1-0.4c0.2-0.3,0.3-0.7,0.3-1.3c0-0.4,0-0.8-0.1-1s-0.2-0.4-0.4-0.5s-0.5-0.1-0.8-0.1H1.5V25h1.3V24.9
				z"/>
		</g>
		<g>
			<path class="st0" d="M14.5,21.1H15v3.6h2.8v-3.6h0.5v8.1h-0.5v-4H15v4h-0.5C14.5,29.2,14.5,21.1,14.5,21.1z"/>
		</g>
		<g>
			<path class="st0" d="M28.9,28.7c-0.3-0.4-0.4-1-0.4-1.8v-3.5c0-0.7,0.2-1.3,0.5-1.7c0.3-0.4,0.8-0.6,1.5-0.6s1.2,0.2,1.5,0.6
				s0.5,1,0.5,1.7v3.5c0,0.8-0.1,1.3-0.4,1.8c-0.3,0.4-0.8,0.6-1.6,0.6C29.8,29.3,29.2,29.1,28.9,28.7z M31.6,28.4
				c0.2-0.3,0.3-0.8,0.3-1.4v-3.7c0-0.6-0.1-1.1-0.3-1.4s-0.6-0.5-1.1-0.5s-0.9,0.2-1.1,0.5S29,22.7,29,23.3V27
				c0,0.6,0.1,1.1,0.3,1.4c0.2,0.3,0.6,0.5,1.1,0.5C31,28.9,31.4,28.7,31.6,28.4z"/>
		</g>
		<g>
			<path class="st0" d="M43.6,21.5H42v-0.4h3.7v0.4h-1.6v7.7h-0.5C43.6,29.2,43.6,21.5,43.6,21.5z"/>
		</g>
		<g>
			<path class="st0" d="M55.6,28.7c-0.3-0.4-0.4-1-0.4-1.8v-3.5c0-0.7,0.2-1.3,0.5-1.7c0.3-0.4,0.8-0.6,1.5-0.6s1.2,0.2,1.5,0.6
				s0.5,1,0.5,1.7v3.5c0,0.8-0.1,1.3-0.4,1.8c-0.3,0.4-0.8,0.6-1.6,0.6C56.5,29.3,55.9,29.1,55.6,28.7z M58.3,28.4
				c0.2-0.3,0.3-0.8,0.3-1.4v-3.7c0-0.6-0.1-1.1-0.3-1.4s-0.6-0.5-1.1-0.5s-0.9,0.2-1.1,0.5s-0.3,0.8-0.3,1.4V27
				c0,0.6,0.1,1.1,0.3,1.4s0.6,0.5,1.1,0.5S58.1,28.7,58.3,28.4z"/>
		</g>
		<g>
			<path class="st0" d="M69.5,28.7c-0.3-0.4-0.4-1-0.4-1.8v-3.4c0-0.8,0.1-1.4,0.4-1.8s0.8-0.6,1.5-0.6s1.2,0.2,1.4,0.6
				c0.3,0.4,0.4,1,0.4,1.7v0.3h-0.5v-0.3c0-0.6-0.1-1.1-0.3-1.4c-0.2-0.3-0.5-0.4-1.1-0.4s-0.9,0.2-1.1,0.5s-0.3,0.8-0.3,1.4V27
				c0,0.6,0.1,1.1,0.3,1.5c0.2,0.3,0.6,0.5,1.1,0.5s0.9-0.2,1.1-0.5s0.3-0.8,0.3-1.4v-1.2H71v-0.4h1.8v3.7h-0.3l-0.1-0.9
				c-0.1,0.3-0.3,0.6-0.5,0.8c-0.2,0.2-0.6,0.3-1,0.3C70.3,29.3,69.8,29.1,69.5,28.7z"/>
		</g>
		<g>
			<path class="st0" d="M83,21.1h2c0.7,0,1.1,0.2,1.4,0.5c0.3,0.4,0.4,0.8,0.4,1.5c0,0.5-0.1,1-0.3,1.3S86,24.9,85.6,25l1.3,4.2
				h-0.5l-1.3-4.1h-1.5v4.1H83V21.1z M85,24.7c0.5,0,0.8-0.1,1-0.4s0.3-0.7,0.3-1.2s-0.1-0.9-0.3-1.2c-0.2-0.2-0.5-0.4-1-0.4h-1.4
				v3.2H85z"/>
		</g>
		<g>
			<path class="st0" d="M98.1,21.1h0.6l1.7,8.1h-0.6L99.4,27h-2.1l-0.4,2.2h-0.5L98.1,21.1z M99.4,26.6l-1-4.8l-1,4.8
				C97.4,26.6,99.4,26.6,99.4,26.6z"/>
		</g>
		<g>
			<path class="st0" d="M110.2,21.1h1.9c0.7,0,1.2,0.2,1.5,0.5c0.3,0.4,0.4,0.9,0.4,1.5s-0.1,1.1-0.4,1.5s-0.8,0.6-1.4,0.6h-1.4v4
				h-0.5L110.2,21.1L110.2,21.1z M112,24.9c0.5,0,0.9-0.1,1.1-0.4s0.3-0.7,0.3-1.3c0-0.4,0-0.8-0.1-1s-0.2-0.4-0.4-0.5
				c-0.2-0.1-0.5-0.1-0.8-0.1h-1.3V25h1.2V24.9z"/>
		</g>
		<g>
			<path class="st0" d="M123.7,21.1h0.5v3.6h2.8v-3.6h0.5v8.1H127v-4h-2.8v4h-0.5V21.1z"/>
		</g>
		<g>
			<path class="st0" d="M137.8,21.1h2.8v0.4h-2.2v3.2h1.8v0.5h-1.8v3.6h2.3v0.4h-2.8v-8.1H137.8z"/>
		</g>
		<g>
			<path class="st0" d="M150.5,21.1h2c0.7,0,1.1,0.2,1.4,0.5c0.3,0.4,0.4,0.8,0.4,1.5c0,0.5-0.1,1-0.3,1.3s-0.5,0.5-0.9,0.6l1.3,4.2
				h-0.5l-1.3-4.1H151v4.1h-0.5V21.1z M152.4,24.7c0.5,0,0.8-0.1,1-0.4s0.3-0.7,0.3-1.2s-0.1-0.9-0.3-1.2c-0.2-0.2-0.5-0.4-1-0.4
				H151v3.2H152.4z"/>
		</g>
	</g>
	<g>
		<path class="st0" d="M0.9,1.4h4.9c0.9,0,1.7,0.2,2.4,0.5c0.7,0.3,1.2,0.7,1.6,1.3s0.7,1.2,0.9,1.9c0.2,0.7,0.3,1.5,0.3,2.3
			c0,0.8-0.1,1.6-0.3,2.3c-0.2,0.7-0.5,1.4-0.9,1.9s-1,1-1.6,1.3c-0.7,0.3-1.5,0.5-2.4,0.5H0.9V1.4z M3,11.6h2c0.8,0,1.5-0.1,2-0.3
			C7.6,11,8,10.7,8.3,10.3C8.6,10,8.8,9.5,8.9,9C9,8.5,9,7.9,9,7.3S9,6.2,8.9,5.7c-0.1-0.5-0.3-1-0.6-1.3C8,3.9,7.6,3.6,7.1,3.4
			c-0.5-0.2-1.2-0.3-2-0.3H3V11.6z"/>
		<path class="st0" d="M12.9,1.4h2.9l3.3,9.3h0l3.2-9.3h2.9v11.9h-2V4.1h0L20,13.3h-1.7l-3.3-9.2h0v9.2h-2V1.4z"/>
		<path class="st0" d="M27.8,1.4h2.1v11.9h-2.1V1.4z"/>
		<path class="st0" d="M31.3,1.4h9.6v1.8h-3.8v10.1H35V3.2h-3.8V1.4z"/>
		<path class="st0" d="M42.3,1.4h5.7c1.3,0,2.3,0.3,2.9,0.8c0.7,0.6,1,1.4,1,2.4c0,0.6-0.1,1-0.2,1.4S51.3,6.7,51,6.9
			s-0.4,0.4-0.7,0.5c-0.2,0.1-0.4,0.2-0.5,0.2v0c0.2,0,0.4,0.1,0.6,0.2c0.2,0.1,0.4,0.2,0.6,0.4c0.2,0.2,0.3,0.4,0.4,0.8
			c0.1,0.3,0.2,0.7,0.2,1.2c0,0.7,0.1,1.3,0.2,1.9s0.3,1,0.5,1.2h-2.2c-0.2-0.3-0.2-0.5-0.3-0.8c0-0.3,0-0.6,0-0.9
			c0-0.5,0-1-0.1-1.4c-0.1-0.4-0.2-0.7-0.4-1c-0.2-0.3-0.4-0.5-0.7-0.6c-0.3-0.1-0.7-0.2-1.2-0.2h-3.1v4.9h-2.1V1.4z M44.3,6.8h3.4
			c0.7,0,1.2-0.2,1.5-0.5c0.3-0.3,0.5-0.8,0.5-1.4c0-0.4-0.1-0.7-0.2-0.9s-0.3-0.4-0.5-0.6s-0.4-0.2-0.7-0.3c-0.2,0-0.5-0.1-0.8-0.1
			h-3.4V6.8z"/>
		<path class="st0" d="M56.5,8.6L52,1.4h2.4l3.1,5.3l3.1-5.3H63l-4.4,7.2v4.7h-2.1V8.6z"/>
		<path class="st0" d="M70.2,9.3c0,0.5,0.1,0.8,0.2,1.2c0.2,0.3,0.4,0.6,0.6,0.8c0.3,0.2,0.6,0.4,1,0.4s0.8,0.1,1.2,0.1
			c0.5,0,0.8-0.1,1.2-0.2s0.6-0.2,0.8-0.4c0.2-0.2,0.3-0.4,0.4-0.6c0.1-0.2,0.1-0.4,0.1-0.7c0-0.5-0.1-0.8-0.3-1
			c-0.2-0.2-0.4-0.4-0.7-0.5c-0.4-0.2-0.9-0.3-1.5-0.4S72,7.8,71.2,7.6c-0.5-0.1-0.9-0.3-1.3-0.5c-0.3-0.2-0.6-0.5-0.8-0.7
			s-0.3-0.5-0.4-0.8c-0.1-0.3-0.1-0.6-0.1-0.9c0-0.6,0.1-1.1,0.4-1.6c0.2-0.4,0.6-0.8,1-1.1c0.4-0.3,0.9-0.5,1.4-0.6
			c0.5-0.1,1-0.2,1.6-0.2c0.6,0,1.2,0.1,1.8,0.2c0.5,0.2,1,0.4,1.4,0.7c0.4,0.3,0.7,0.7,1,1.2c0.2,0.5,0.4,1,0.4,1.6h-2.1
			c-0.1-0.8-0.3-1.3-0.8-1.6s-1.1-0.5-1.8-0.5c-0.2,0-0.5,0-0.7,0.1c-0.3,0.1-0.5,0.1-0.7,0.2c-0.2,0.1-0.4,0.3-0.5,0.5
			S70.6,4,70.6,4.3c0,0.4,0.1,0.8,0.4,1c0.3,0.2,0.6,0.4,1,0.5c0,0,0.2,0.1,0.5,0.1c0.3,0.1,0.6,0.2,1,0.3c0.4,0.1,0.7,0.2,1.1,0.3
			s0.6,0.2,0.8,0.2c0.4,0.1,0.7,0.3,1,0.5S77,7.7,77.2,8c0.2,0.3,0.3,0.6,0.4,0.9c0.1,0.3,0.1,0.6,0.1,0.9c0,0.7-0.1,1.2-0.4,1.7
			c-0.3,0.5-0.6,0.9-1.1,1.2c-0.4,0.3-0.9,0.5-1.5,0.7c-0.6,0.1-1.1,0.2-1.7,0.2c-0.7,0-1.3-0.1-1.9-0.2s-1.1-0.4-1.6-0.8
			c-0.4-0.3-0.8-0.8-1.1-1.3c-0.3-0.5-0.4-1.2-0.4-1.9H70.2z"/>
		<path class="st0" d="M78.5,1.4h9.6v1.8h-3.8v10.1h-2.1V3.2h-3.8V1.4z"/>
		<path class="st0" d="M89.5,1.4h5.7c1.3,0,2.3,0.3,2.9,0.8c0.7,0.6,1,1.4,1,2.4c0,0.6-0.1,1-0.2,1.4c-0.2,0.4-0.4,0.7-0.6,0.9
			c-0.2,0.2-0.4,0.4-0.7,0.5c-0.2,0.1-0.4,0.2-0.5,0.2v0c0.2,0,0.4,0.1,0.6,0.2c0.2,0.1,0.4,0.2,0.6,0.4c0.2,0.2,0.3,0.4,0.4,0.8
			c0.1,0.3,0.2,0.7,0.2,1.2c0,0.7,0.1,1.3,0.2,1.9s0.3,1,0.5,1.2h-2.2C97.1,13,97,12.7,97,12.4c0-0.3,0-0.6,0-0.9c0-0.5,0-1-0.1-1.4
			c-0.1-0.4-0.2-0.7-0.4-1c-0.2-0.3-0.4-0.5-0.7-0.6c-0.3-0.1-0.7-0.2-1.2-0.2h-3.1v4.9h-2.1V1.4z M91.5,6.8H95
			c0.7,0,1.2-0.2,1.5-0.5C96.8,6,97,5.5,97,4.9c0-0.4-0.1-0.7-0.2-0.9s-0.3-0.4-0.5-0.6S96,3.2,95.7,3.1c-0.2,0-0.5-0.1-0.8-0.1
			h-3.4V6.8z"/>
		<path class="st0" d="M102,13.3h-2.1l4.6-11.9h2.2l4.6,11.9h-2.2l-3.4-9.8h0L102,13.3z"/>
		<path class="st0" d="M111.2,1.4h9.6v1.8H117v10.1h-2.1V3.2h-3.8V1.4z"/>
		<path class="st0" d="M122.2,1.4h2.1v11.9h-2.1V1.4z"/>
		<path class="st0" d="M126.8,1.4h2.1v10.1h6v1.8h-8.1V1.4z"/>
		<path class="st0" d="M137.1,13.3H135l4.6-11.9h2.2l4.6,11.9h-2.2l-3.4-9.8h0L137.1,13.3z"/>
		<path class="st0" d="M146.3,1.4h9.6v1.8h-3.8v10.1h-2.1V3.2h-3.8V1.4z"/>
	</g>
</g>
</svg>
