<?xml version="1.0" encoding="utf-8"?>
<!-- Generator: Adobe Illustrator 21.0.0, SVG Export Plug-In . SVG Version: 6.00 Build 0)  -->
<svg version="1.1" id="Слой_1" xmlns="http://www.w3.org/2000/svg" xmlns:xlink="http://www.w3.org/1999/xlink" x="0px" y="0px"
	 viewBox="0 0 169.7 31.8" style="enable-background:new 0 0 169.7 31.8;" xml:space="preserve">
<path d="M1.1,12.8V2.2H5c1.3,0,2.3,0.4,3.1,1.2C9,4.2,9.5,5.3,9.5,6.5v1.9c0,1.3-0.4,2.3-1.3,3.1S6.3,12.8,5,12.8H1.1z M3.6,4.1v6.9
	H5c0.6,0,1-0.2,1.4-0.7C6.8,9.8,7,9.2,7,8.5V6.5c0-0.7-0.2-1.3-0.5-1.8C6.1,4.3,5.6,4.1,5,4.1H3.6z M19,9.6L19,9.6l2.5-7.5h3.3v10.7
	h-2.5V6l0,0l-2.4,6.9h-1.7l-2.3-6.8l0,0v6.8h-2.5V2.2h3.2L19,9.6z M31.4,12.8h-2.5V2.2h2.5V12.8z M42.9,4.1h-2.8v8.8h-2.5V4.1h-2.8
	V2.2h8.1V4.1z M48.8,8.7v4.1h-2.5V2.2H50c1.2,0,2.2,0.3,2.9,0.9S54,4.4,54,5.4c0,0.6-0.1,1-0.4,1.4c-0.3,0.4-0.7,0.7-1.3,1
	c0.7,0.2,1.1,0.5,1.4,0.9c0.3,0.4,0.4,1,0.4,1.6V11c0,0.3,0,0.6,0.1,1c0.1,0.4,0.2,0.6,0.4,0.8v0.1h-2.6c-0.2-0.2-0.3-0.4-0.4-0.8
	s-0.1-0.7-0.1-1.1v-0.6c0-0.5-0.1-0.9-0.4-1.2s-0.7-0.4-1.2-0.4H48.8z M48.8,6.8H50c0.5,0,0.9-0.1,1.1-0.3c0.3-0.2,0.4-0.6,0.4-1
	c0-0.4-0.1-0.8-0.4-1.1c-0.3-0.3-0.7-0.4-1.1-0.4h-1.2V6.8z M61.8,6.8L61.8,6.8L64,2.2h2.7L63,9.1v3.8h-2.5V9L57,2.2h2.7L61.8,6.8z
	 M81.5,10c0-0.4-0.1-0.7-0.4-0.9s-0.7-0.4-1.4-0.6c-1.3-0.4-2.3-0.9-2.9-1.4c-0.6-0.5-1-1.2-1-2.1c0-0.9,0.4-1.6,1.1-2.2
	S78.7,2,79.8,2C81,2,82,2.3,82.8,2.9c0.7,0.6,1.1,1.4,1.1,2.4l0,0h-2.4c0-0.5-0.1-0.9-0.4-1.1c-0.3-0.2-0.7-0.3-1.2-0.3
	c-0.4,0-0.8,0.1-1.1,0.3S78.3,4.7,78.3,5c0,0.3,0.1,0.6,0.4,0.8C79,6,79.5,6.2,80.2,6.5c1.2,0.4,2.2,0.8,2.8,1.3s1,1.2,1,2.2
	c0,0.9-0.4,1.7-1.1,2.2S81.2,13,80,13c-1.2,0-2.2-0.3-3.1-0.9c-0.8-0.6-1.2-1.5-1.2-2.7l0,0h2.4c0,0.6,0.2,1.1,0.5,1.3
	c0.3,0.3,0.8,0.4,1.4,0.4c0.5,0,0.9-0.1,1.2-0.3S81.5,10.3,81.5,10z M95.1,4.1h-2.8v8.8h-2.5V4.1h-2.8V2.2h8.1V4.1z M101,8.7v4.1
	h-2.5V2.2h3.7c1.2,0,2.2,0.3,2.9,0.9s1.1,1.4,1.1,2.3c0,0.6-0.1,1-0.4,1.4c-0.3,0.4-0.7,0.7-1.3,1c0.7,0.2,1.1,0.5,1.4,0.9
	c0.3,0.4,0.4,1,0.4,1.6V11c0,0.3,0,0.6,0.1,1c0.1,0.4,0.2,0.6,0.4,0.8v0.1h-2.6c-0.2-0.2-0.3-0.4-0.4-0.8s-0.1-0.7-0.1-1.1v-0.6
	c0-0.5-0.1-0.9-0.4-1.2s-0.7-0.4-1.2-0.4H101z M101,6.8h1.3c0.5,0,0.9-0.1,1.1-0.3c0.3-0.2,0.4-0.6,0.4-1c0-0.4-0.1-0.8-0.4-1.1
	c-0.3-0.3-0.7-0.4-1.1-0.4H101V6.8z M116.1,10.8h-3.2l-0.6,2.1h-2.6l3.5-10.7h1.3v0l0,0h1.3l3.5,10.7h-2.6L116.1,10.8z M113.5,8.9h2
	l-1-3.3h0L113.5,8.9z M129.3,4.1h-2.8v8.8H124V4.1h-2.8V2.2h8.1V4.1z M135.3,12.8h-2.5V2.2h2.5V12.8z M142,10.9h4.6v1.9h-7.1V2.2
	h2.5V10.9z M156,10.8h-3.2l-0.6,2.1h-2.6l3.5-10.7h1.3v0l0,0h1.3l3.5,10.7h-2.6L156,10.8z M153.4,8.9h2l-1-3.3h0L153.4,8.9z
	 M169.2,4.1h-2.8v8.8h-2.5V4.1h-2.8V2.2h8.1V4.1z M5.3,23.7C5.7,24.1,6,24.6,6,25.3s-0.2,1.2-0.7,1.6s-1.1,0.6-1.9,0.6H1.7v2H1v-6.3
	h2.4C4.2,23.2,4.8,23.4,5.3,23.7z M4.8,26.5c0.3-0.3,0.5-0.7,0.5-1.2c0-0.5-0.2-0.9-0.5-1.2S4,23.7,3.4,23.7H1.7v3.1h1.7
	C4,26.9,4.5,26.8,4.8,26.5z M20.7,23.2v6.3H20v-2.9h-3.9v2.9h-0.7v-6.3h0.7V26H20v-2.8H20.7z M31.8,29.1c-0.5-0.3-0.9-0.7-1.2-1.1
	c-0.3-0.5-0.4-1-0.4-1.6c0-0.6,0.1-1.2,0.4-1.6c0.3-0.5,0.7-0.9,1.2-1.1c0.5-0.3,1.1-0.4,1.7-0.4s1.2,0.1,1.7,0.4
	c0.5,0.3,0.9,0.7,1.2,1.1c0.3,0.5,0.4,1,0.4,1.6c0,0.6-0.1,1.2-0.4,1.6c-0.3,0.5-0.7,0.9-1.2,1.1c-0.5,0.3-1.1,0.4-1.7,0.4
	S32.3,29.4,31.8,29.1z M34.8,28.6c0.4-0.2,0.7-0.5,0.9-0.9c0.2-0.4,0.3-0.8,0.3-1.3c0-0.5-0.1-0.9-0.3-1.3c-0.2-0.4-0.5-0.7-0.9-0.9
	c-0.4-0.2-0.9-0.3-1.4-0.3s-0.9,0.1-1.4,0.3c-0.4,0.2-0.7,0.5-1,0.9c-0.2,0.4-0.3,0.8-0.3,1.3c0,0.5,0.1,0.9,0.3,1.3
	c0.2,0.4,0.5,0.7,1,0.9c0.4,0.2,0.9,0.3,1.4,0.3S34.4,28.8,34.8,28.6z M47.4,23.7h-2.2v-0.6h5.1v0.6h-2.2v5.7h-0.7V23.7z M60.3,29.1
	c-0.5-0.3-0.9-0.7-1.2-1.1c-0.3-0.5-0.4-1-0.4-1.6c0-0.6,0.1-1.2,0.4-1.6c0.3-0.5,0.7-0.9,1.2-1.1c0.5-0.3,1.1-0.4,1.7-0.4
	s1.2,0.1,1.7,0.4c0.5,0.3,0.9,0.7,1.2,1.1c0.3,0.5,0.4,1,0.4,1.6c0,0.6-0.1,1.2-0.4,1.6c-0.3,0.5-0.7,0.9-1.2,1.1
	c-0.5,0.3-1.1,0.4-1.7,0.4S60.8,29.4,60.3,29.1z M63.4,28.6c0.4-0.2,0.7-0.5,0.9-0.9c0.2-0.4,0.3-0.8,0.3-1.3c0-0.5-0.1-0.9-0.3-1.3
	c-0.2-0.4-0.5-0.7-0.9-0.9c-0.4-0.2-0.9-0.3-1.4-0.3s-0.9,0.1-1.4,0.3c-0.4,0.2-0.7,0.5-1,0.9c-0.2,0.4-0.3,0.8-0.3,1.3
	c0,0.5,0.1,0.9,0.3,1.3c0.2,0.4,0.5,0.7,1,0.9c0.4,0.2,0.9,0.3,1.4,0.3S63,28.8,63.4,28.6z M79.2,26.3h0.6v2.4
	c-0.3,0.3-0.6,0.5-1,0.6c-0.4,0.1-0.8,0.2-1.3,0.2c-0.6,0-1.2-0.1-1.7-0.4c-0.5-0.3-0.9-0.7-1.2-1.1c-0.3-0.5-0.4-1-0.4-1.6
	c0-0.6,0.1-1.2,0.4-1.6c0.3-0.5,0.7-0.9,1.2-1.1c0.5-0.3,1.1-0.4,1.7-0.4c0.5,0,0.9,0.1,1.3,0.2c0.4,0.2,0.7,0.4,1,0.7l-0.4,0.4
	c-0.5-0.5-1.1-0.7-1.9-0.7c-0.5,0-1,0.1-1.4,0.3c-0.4,0.2-0.7,0.5-1,0.9c-0.2,0.4-0.4,0.8-0.4,1.3c0,0.5,0.1,0.9,0.4,1.3
	c0.2,0.4,0.6,0.7,1,0.9c0.4,0.2,0.9,0.3,1.4,0.3c0.6,0,1.2-0.2,1.6-0.5V26.3z M94.1,29.5l-1.4-2c-0.2,0-0.3,0-0.5,0h-1.7v2h-0.7
	v-6.3h2.4c0.8,0,1.4,0.2,1.9,0.6c0.5,0.4,0.7,0.9,0.7,1.6c0,0.5-0.1,0.9-0.4,1.2c-0.2,0.3-0.6,0.6-1.1,0.7l1.5,2.2H94.1z M93.5,26.5
	c0.3-0.3,0.5-0.7,0.5-1.2c0-0.5-0.2-0.9-0.5-1.2s-0.8-0.4-1.4-0.4h-1.7v3.2h1.7C92.7,26.9,93.2,26.8,93.5,26.5z M108.2,27.8h-3.5
	l-0.8,1.7h-0.7l2.9-6.3h0.7l2.9,6.3H109L108.2,27.8z M108,27.2l-1.5-3.4l-1.5,3.4H108z M123,23.7c0.5,0.4,0.7,0.9,0.7,1.6
	s-0.2,1.2-0.7,1.6c-0.5,0.4-1.1,0.6-1.9,0.6h-1.7v2h-0.7v-6.3h2.4C121.9,23.2,122.5,23.4,123,23.7z M122.5,26.5
	c0.3-0.3,0.5-0.7,0.5-1.2c0-0.5-0.2-0.9-0.5-1.2s-0.8-0.4-1.4-0.4h-1.7v3.1h1.7C121.7,26.9,122.2,26.8,122.5,26.5z M138.4,23.2v6.3
	h-0.7v-2.9h-3.9v2.9h-0.7v-6.3h0.7V26h3.9v-2.8H138.4z M152.9,28.9v0.6h-4.5v-6.3h4.3v0.6h-3.7V26h3.3v0.6h-3.3v2.3H152.9z
	 M166.7,29.5l-1.4-2c-0.2,0-0.3,0-0.5,0h-1.7v2h-0.7v-6.3h2.4c0.8,0,1.4,0.2,1.9,0.6c0.5,0.4,0.7,0.9,0.7,1.6c0,0.5-0.1,0.9-0.4,1.2
	c-0.2,0.3-0.6,0.6-1.1,0.7l1.5,2.2H166.7z M166.2,26.5c0.3-0.3,0.5-0.7,0.5-1.2c0-0.5-0.2-0.9-0.5-1.2s-0.8-0.4-1.4-0.4h-1.7v3.2
	h1.7C165.4,26.9,165.9,26.8,166.2,26.5z"/>
</svg>
