<?xml version="1.0" encoding="utf-8"?>
<!-- Generator: Adobe Illustrator 21.0.0, SVG Export Plug-In . SVG Version: 6.00 Build 0)  -->
<svg version="1.1" id="Слой_1" xmlns="http://www.w3.org/2000/svg" xmlns:xlink="http://www.w3.org/1999/xlink" x="0px" y="0px"
	 viewBox="0 0 96.6 40" style="enable-background:new 0 0 96.6 40;" xml:space="preserve">
<g>
	<path d="M52.7,3c0,1-0.6,1.8-1.7,2.1c1.2,0.3,2,1.2,2,2.5c0,1.7-1.5,2.7-3.9,2.7h-5V0.5H49C51.3,0.5,52.7,1.4,52.7,3z M49.8,3.5
		c0-0.5-0.4-0.8-0.9-0.8h-1.8v1.7h1.8C49.4,4.3,49.8,4,49.8,3.5z M50,7.2c0-0.5-0.5-0.9-1.2-0.9H47v1.8h1.8C49.6,8.1,50,7.8,50,7.2z
		"/>
	<path d="M57.6,0.5v7.4h4.1v2.4h-7V0.5H57.6z"/>
	<path d="M69.7,8.7h-4l-0.6,1.6h-3l4.2-9.8h3l4,9.8h-3.1L69.7,8.7z M69,6.6l-1.2-3.2l-1.2,3.2H69z"/>
	<path d="M79,2.8c-1.3,0-2.3,1.1-2.3,2.5s1,2.5,2.3,2.5c0.8,0,1.7-0.4,2.3-1.1L83,8.5c-1.1,1.1-2.7,1.9-4.2,1.9
		c-3,0-5.2-2.2-5.2-5.1s2.2-5,5.3-5C80.4,0.3,82,1,83,2l-1.7,2C80.8,3.3,79.8,2.8,79,2.8z"/>
	<path d="M90.7,10.3l-2.3-3.6l-1.1,1.2v2.4h-2.9V0.5h2.9v3.8l3.3-3.8H94l-3.6,4l3.8,5.8H90.7z"/>
	<path d="M46.9,25.1c-1.5,0-2.7-0.6-3.6-1.6l1.3-1.9c0.7,0.8,1.5,1.1,2.1,1.1c0.5,0,0.9-0.3,0.9-1v-4.2h-3.3v-2.3h6.3v6.6
		C50.4,23.9,49,25.1,46.9,25.1z"/>
	<path d="M58.7,23.4h-4L54.1,25h-3l4.2-9.8h3l4,9.8h-3.1L58.7,23.4z M57.9,21.3l-1.2-3.2l-1.2,3.2H57.9z"/>
	<path d="M66.6,15.1l2.4,5.4l2.4-5.4h3.1v9.8H72v-5.8l-2,4.8h-2l-2-4.8v5.8h-2.6v-9.8C63.4,15.1,66.6,15.1,66.6,15.1z"/>
	<path d="M50.6,33.9h2.5v4c-1.1,0.7-2.8,1.3-4.2,1.3c-3,0-5.3-2.1-5.3-5s2.3-5,5.5-5c1.5,0,3.1,0.6,4.1,1.5l-1.7,2
		c-0.7-0.6-1.7-1.1-2.5-1.1c-1.4,0-2.5,1.1-2.5,2.6s1.1,2.6,2.5,2.6c0.4,0,1-0.1,1.5-0.4v-2.5C50.5,33.9,50.6,33.9,50.6,33.9z"/>
	<path d="M60.7,39l-1.3-2.6h-1.5V39H55v-9.8h4.6c2.6,0,4.1,1.3,4.1,3.5c0,1.5-0.6,2.5-1.7,3.1l2,3.2H60.7z M57.9,34.1h1.7
		c0.9,0,1.4-0.5,1.4-1.4s-0.5-1.3-1.4-1.3h-1.7V34.1z"/>
	<path d="M75.7,34c0,2.9-2.3,5-5.4,5s-5.4-2.1-5.4-5s2.3-5,5.4-5C73.4,29.1,75.7,31.2,75.7,34z M67.9,34.1c0,1.5,1.1,2.6,2.4,2.6
		s2.3-1.1,2.3-2.6s-1-2.6-2.3-2.6S67.9,32.6,67.9,34.1z"/>
	<path d="M81.7,36.6c1,0,1.7-0.7,1.7-1.8v-5.7h2.9v5.7c0,2.6-1.8,4.3-4.6,4.3c-2.8,0-4.7-1.7-4.7-4.3v-5.7h2.9v5.7
		C79.9,35.9,80.7,36.6,81.7,36.6z"/>
	<path d="M96.6,32.6c0,2.3-1.5,3.7-4,3.7h-1.5v2.6h-2.9v-9.8h4.5C95.1,29.1,96.6,30.4,96.6,32.6z M93.8,32.7c0-0.9-0.5-1.3-1.4-1.3
		H91v2.7h1.4C93.3,34.1,93.8,33.6,93.8,32.7z"/>
	<path d="M13.5,20.3h-1.4v1.5h1.4c0.6,0,1-0.3,1-0.8C14.5,20.6,14.1,20.3,13.5,20.3z"/>
	<path d="M-0.4-0.1v40h40v-40C39.6-0.1-0.4-0.1-0.4-0.1z M13.7,23.2h-3.5v-7h3.4c1.6,0,2.6,0.7,2.6,1.8c0,0.7-0.5,1.3-1.2,1.5
		c0.9,0.2,1.4,0.9,1.4,1.8C16.4,22.5,15.4,23.2,13.7,23.2z M21.8,20.9c0,1.5-0.9,2.4-2.4,2.4c-1,0-1.8-0.4-2.4-1.1l0.8-1.2
		c0.5,0.5,1.1,0.8,1.5,0.8S20,21.5,20,21v-3.3h-2.4v-1.5h4.2V20.9z M27,21.6c0.3,0,0.8-0.1,1.2-0.3v-1.7h1.4v2.8
		c-0.7,0.5-1.9,0.9-2.9,0.9c-2.1,0-3.7-1.5-3.7-3.6s1.6-3.6,3.9-3.6c1,0,2.2,0.4,2.9,1l-1,1.3c-0.5-0.5-1.2-0.8-1.8-0.8
		c-1.1,0-2,0.9-2,2C25,20.7,25.9,21.6,27,21.6z"/>
	<path d="M14.3,18.3c0-0.4-0.3-0.7-0.8-0.7h-1.4V19h1.4C14,19,14.3,18.7,14.3,18.3z"/>
</g>
</svg>
