<svg width="30" height="30" xmlns="http://www.w3.org/2000/svg" xmlns:xlink="http://www.w3.org/1999/xlink"><use xlink:href="#path0_fill" opacity=".2"/><defs><path id="path0_fill" d="M15 0C6.716 0 0 6.716 0 15c0 8.284 6.716 15 15 15 8.284 0 15-6.716 15-15 0-8.284-6.716-15-15-15zm7.921 21.887l-1.201 1.2c-.214.215-.842.349-.862.349-3.8.033-7.458-1.46-10.146-4.148a14.191 14.191 0 0 1-4.15-10.18c0-.002.138-.612.352-.824l1.201-1.201c.44-.442 1.284-.641 1.875-.443l.253.084c.59.197 1.209.85 1.371 1.45l.605 2.217c.163.603-.057 1.46-.496 1.9l-.803.801a8.518 8.518 0 0 0 5.99 5.992l.802-.802c.441-.442 1.298-.662 1.899-.499l2.217.606c.6.166 1.253.78 1.45 1.37l.085.256c.195.59-.003 1.434-.442 1.872z"/></defs></svg>