<svg width="66" height="69" xmlns="http://www.w3.org/2000/svg" xmlns:xlink="http://www.w3.org/1999/xlink"><use xlink:href="#path0_fill" transform="translate(.5)" fill="#EFC75E"/><defs><path id="path0_fill" d="M0 0h65v69H0V0zm59.675 52.544c-.473-3.149-2.405-5.794-8.133-8.26-1.993-.992-4.209-1.682-4.867-3.278-.246-.949-.284-1.466-.124-2.027.406-1.857 2.478-2.415 4.103-1.897 1.056.345 2.031 1.207 2.643 2.587 2.8-1.943 2.8-1.943 4.753-3.234-.73-1.208-1.094-1.728-1.587-2.243-1.706-2.026-3.978-3.061-7.675-2.972l-1.91.256c-1.83.474-3.575 1.509-4.63 2.889-3.088 3.712-2.197 10.18 1.54 12.854 3.697 2.932 9.103 3.576 9.794 6.34.65 3.363-2.357 4.441-5.325 4.053-2.196-.517-3.412-1.685-4.753-3.84l-4.956 3.02c.569 1.38 1.218 1.982 2.194 3.19 4.712 5.048 16.493 4.789 18.608-2.887.079-.26.65-2.027.2-4.744l.125.193zm-24.328-20.83h-6.089c0 5.572-.024 11.11-.024 16.69 0 3.541.17 6.793-.374 7.794-.894 1.98-3.196 1.727-4.241 1.38-1.073-.564-1.617-1.34-2.248-2.459-.17-.301-.298-.563-.344-.563l-4.943 3.234c.826 1.812 2.031 3.37 3.586 4.362 2.316 1.466 5.427 1.94 8.686 1.164 2.12-.65 3.948-1.986 4.904-4.056 1.382-2.674 1.09-5.952 1.076-9.62.032-5.906 0-11.814 0-17.765l.01-.16z"/></defs></svg>