<svg width="31" height="31" xmlns="http://www.w3.org/2000/svg" xmlns:xlink="http://www.w3.org/1999/xlink"><g transform="translate(14.968 7)"><use xlink:href="#path0_fill" fill="#FFF"/><use xlink:href="#path0_fill" fill="url(#paint1_linear)"/></g><g transform="translate(15.196 9.248)"><use xlink:href="#path1_fill" fill="#FFF"/><use xlink:href="#path1_fill" fill="url(#paint3_linear)"/></g><g transform="translate(15.658 11.616)"><use xlink:href="#path2_fill" fill="#FFF"/><use xlink:href="#path2_fill" fill="url(#paint5_linear)"/></g><g transform="translate(6 7.297)"><use xlink:href="#path3_fill" fill="#FFF"/><use xlink:href="#path3_fill" fill="url(#paint7_linear)"/></g><g transform="translate(1 .613)"><use xlink:href="#path4_stroke" fill="#FFF" style="mix-blend-mode:hard-light"/><use xlink:href="#path4_stroke" fill="url(#paint9_linear)"/></g><defs><linearGradient id="paint1_linear" x2="1" gradientUnits="userSpaceOnUse" gradientTransform="matrix(0 9.27544 -9.03193 0 9.032 0)"><stop offset="0" stop-color="#666463"/><stop offset="1" stop-color="#918484" stop-opacity="0"/></linearGradient><linearGradient id="paint3_linear" x2="1" gradientUnits="userSpaceOnUse" gradientTransform="matrix(0 6.45039 -6.27568 0 6.276 0)"><stop offset="0" stop-color="#666463"/><stop offset="1" stop-color="#918484" stop-opacity="0"/></linearGradient><linearGradient id="paint5_linear" x2="1" gradientUnits="userSpaceOnUse" gradientTransform="matrix(0 3.56731 -3.4952 0 3.495 0)"><stop offset="0" stop-color="#666463"/><stop offset="1" stop-color="#918484" stop-opacity="0"/></linearGradient><linearGradient id="paint7_linear" x2="1" gradientUnits="userSpaceOnUse" gradientTransform="matrix(0 17.703 -17.9578 0 17.958 0)"><stop offset="0" stop-color="#666463"/><stop offset="1" stop-color="#918484" stop-opacity="0"/></linearGradient><linearGradient id="paint9_linear" x2="1" gradientUnits="userSpaceOnUse" gradientTransform="matrix(0 29 -29 0 29 0)"><stop offset="0" stop-color="#666463"/><stop offset="1" stop-color="#FFF" stop-opacity="0"/></linearGradient><path id="path0_fill" d="M.159.124C.314 0 .407 0 .903 0c.248 0 .62.03.836.062 1.023.123 1.673.278 2.572.71.899.434 1.456.835 2.23 1.546.714.68 1.085 1.206 1.52 2.04.588 1.144.898 2.473.96 3.957.03.494 0 .618-.124.773-.217.278-.713.247-.899-.093-.062-.093-.062-.186-.093-.587-.03-.619-.062-1.02-.155-1.515-.34-1.885-1.27-3.4-2.757-4.482-1.24-.896-2.324-1.236-3.997-1.36-.59 0-.682 0-.806-.124C-.058.773-.058.34.159.124z"/><path id="path1_fill" d="M2.999 1.74C2.41 1.4 1.512 1.122.706 1.06.427 1.029.241.967.148.843-.038.69-.038.411.086.225.241-.022.49-.053 1.202.071c1.797.247 3.191 1.082 4.12 2.41.528.742.837 1.639.93 2.566.031.34.031.958 0 1.082-.03.093-.154.247-.278.278-.124.062-.372.062-.496-.03-.217-.124-.31-.279-.31-.773 0-.742-.186-1.546-.558-2.164A4.261 4.261 0 0 0 3 1.74z"/><path id="path2_fill" d="M3.311 3.451a.56.56 0 0 1-.681 0c-.155-.092-.186-.216-.217-.525a3.147 3.147 0 0 0-.217-.927c-.248-.557-.713-.835-1.487-.928C.337 1.041.244.98.119.855-.096.608-.003.205.276.05.399-.01.43-.01.678.021c.155 0 .371.03.495.061.589.124 1.023.34 1.426.68.495.464.774.99.867 1.793.062.525.031.742-.155.896z"/><path id="path3_fill" d="M17.958 14.355c0-.279-.093-.495-.279-.711-.186-.217-1.456-1.237-2.076-1.639-.465-.309-1.178-.741-1.487-.896-.434-.216-.868-.247-1.27-.124-.094.031-.156.062-.218.093-.185.093-.34.278-.712.711-.248.31-.465.587-.496.587 0 0-.031 0-.031.031-.031.031-.124.062-.186.093-.403.185-.93.062-1.797-.34-.682-.34-1.27-.742-1.952-1.36-.589-.526-1.178-1.175-1.487-1.7-.434-.68-.744-1.546-.744-2.04 0-.217.093-.495.186-.65l.03-.03.032-.031c.03-.031.062-.062.093-.062.124-.093.279-.247.434-.371.712-.556.867-.742.96-1.051.093-.31 0-.71-.31-1.267C6.09 2.578 4.541.63 3.984.259 3.89.198 3.736.136 3.643.074c-.248-.062-.589-.093-.775-.062-.279.062-.62.278-1.394.835-.465.34-1.085.927-1.24 1.174-.34.588-.31 1.051.093 2.195.372 1.02.868 2.04 1.426 3.03l.03.03c.125.186.248.402.372.587 0 .031.031.031.031.062.124.186.248.402.372.587.062.062.093.155.155.217.093.154.186.278.31.433.155.216.31.432.496.649a23.561 23.561 0 0 0 6.228 5.656c.03.031.062.031.093.062l1.115.65c.062.03.093.061.155.092.372.216.775.402 1.178.587.03.031.092.031.123.062.403.186.837.371 1.27.556.528.217.714.248 1.116.217.186 0 .372-.031.527-.093.248-.062.465-.185.744-.37.062-.032.093-.063.155-.093.062-.031.124-.093.186-.155.34-.278.712-.711 1.022-1.113.217-.278.372-.556.465-.773.03-.309.062-.525.062-.741z"/><path id="path4_stroke" d="M29.5 14.5c0-.33-.01-.657-.032-.982l-.997.065c.02.303.029.609.029.917h1zm-.285-2.927a14.887 14.887 0 0 0-.508-1.896l-.946.321c.194.574.353 1.165.473 1.77l.98-.195zm-1.26-3.71c-.29-.588-.619-1.155-.982-1.698l-.83.557c.338.506.645 1.035.916 1.585l.897-.443zM25.779 4.61a15.089 15.089 0 0 0-1.388-1.388l-.66.752c.46.403.893.836 1.296 1.295l.752-.66zm-2.943-2.583a14.989 14.989 0 0 0-1.699-.983l-.443.897c.55.271 1.08.578 1.585.917l.557-.831zM19.323.292a14.892 14.892 0 0 0-1.896-.506l-.194.98c.604.12 1.195.279 1.769.473l.321-.947zm-3.841-.76A15.218 15.218 0 0 0 14.5-.5v1c.308 0 .614.01.917.03l.065-.998zM14.5-.5c-.33 0-.657.01-.982.032l.065.998c.303-.02.609-.03.917-.03v-1zm-2.927.285a14.89 14.89 0 0 0-1.896.507l.321.947a13.897 13.897 0 0 1 1.77-.473l-.195-.98zm-3.71 1.26c-.588.29-1.155.619-1.698.982l.557.83a13.984 13.984 0 0 1 1.585-.916l-.443-.897zM4.61 3.221A15.09 15.09 0 0 0 3.222 4.61l.752.66c.403-.46.836-.893 1.295-1.296l-.66-.752zM2.027 6.165c-.363.543-.692 1.11-.983 1.699l.897.443c.271-.55.578-1.08.917-1.585l-.831-.557zM.292 9.677a14.89 14.89 0 0 0-.506 1.896l.98.194c.12-.604.279-1.195.473-1.769l-.947-.321zm-.76 3.841c-.021.325-.032.652-.032.982h1c0-.308.01-.614.03-.917l-.998-.065zM-.5 14.5c0 .33.01.657.032.982l.998-.065C.51 15.114.5 14.808.5 14.5h-1zm.285 2.927c.129.648.299 1.281.507 1.896l.947-.321a13.898 13.898 0 0 1-.473-1.77l-.98.195zm1.26 3.71c.29.588.619 1.155.982 1.698l.83-.557a13.985 13.985 0 0 1-.916-1.585l-.897.443zm2.177 3.253c.432.492.896.956 1.388 1.388l.66-.752c-.46-.403-.893-.836-1.296-1.295l-.752.66zm2.943 2.583c.543.363 1.11.692 1.699.983l.443-.897c-.55-.271-1.08-.578-1.585-.917l-.557.831zm3.512 1.735c.615.208 1.248.378 1.896.507l.194-.982a13.886 13.886 0 0 1-1.769-.472l-.321.947zm3.841.76c.325.021.652.032.982.032v-1c-.308 0-.614-.01-.917-.03l-.065.998zm.982.032c.33 0 .657-.01.982-.032l-.065-.997c-.303.02-.609.029-.917.029v1zm2.927-.285a14.889 14.889 0 0 0 1.896-.508l-.321-.946c-.574.194-1.165.353-1.77.473l.195.98zm3.71-1.26c.588-.29 1.155-.619 1.698-.982l-.557-.83a13.99 13.99 0 0 1-1.585.916l.443.897zm3.253-2.177c.492-.432.956-.896 1.388-1.388l-.752-.66c-.403.46-.836.893-1.295 1.296l.66.752zm2.583-2.943c.363-.543.692-1.11.983-1.699l-.897-.443a13.99 13.99 0 0 1-.917 1.585l.831.557zm1.735-3.512c.208-.615.378-1.248.507-1.896l-.982-.194c-.12.604-.278 1.195-.472 1.769l.947.321zm.76-3.841c.021-.325.032-.652.032-.982h-1c0 .308-.01.614-.03.917l.998.065z"/></defs></svg>