<svg width="79" height="36" xmlns="http://www.w3.org/2000/svg" xmlns:xlink="http://www.w3.org/1999/xlink"><use xlink:href="#path0_fill" fill="#4173B9"/><defs><path id="path0_fill" d="M63.263 17.727c2.97 1.07 4.456 2.903 4.456 5.495 0 1.703-.616 3.058-1.843 4.063-1.23 1-2.982 1.62-5.262 1.62-2.278 0-4.387-.68-6.33-1.791.02-.596.173-1.243.453-1.951.279-.703.605-1.262.987-1.67 1.783.956 3.336 1.434 4.656 1.434.621 0 1.106-.107 1.44-.32.335-.22.5-.508.5-.874 0-.684-.513-1.195-1.54-1.537l-1.843-.716c-2.792-1.043-4.187-2.753-4.187-5.118 0-1.73.584-3.1 1.759-4.116 1.172-1.01 2.752-1.882 4.74-1.882.982 0 2.064.142 3.25.428 1.184.283 2.153.984 2.912 1.371.044.642-.08 1.336-.369 2.1-.29.762-.645 1.305-1.072 1.623-1.875-.866-3.436-1.299-4.687-1.299-.448 0-.79.107-1.027.31a.99.99 0 0 0-.342.783c0 .548.42.978 1.269 1.3l2.08.747zm-14.51 0c2.97 1.07 4.456 2.903 4.456 5.495 0 1.703-.616 3.058-1.843 4.063-1.23 1-2.981 1.62-5.262 1.62-2.277 0-4.39-.68-6.33-1.791.02-.596.174-1.243.453-1.951.279-.703.606-1.262.987-1.67 1.786.956 3.337 1.434 4.656 1.434.624 0 1.106-.107 1.44-.32.335-.22.5-.508.5-.874 0-.684-.513-1.195-1.54-1.537l-1.843-.716c-2.791-1.043-4.187-2.753-4.187-5.118 0-1.73.585-3.1 1.759-4.116 1.172-1.01 2.752-1.882 4.74-1.882.982 0 2.067.142 3.25.428 1.185.283 2.154.984 2.915 1.371.042.642-.085 1.336-.369 2.1-.29.762-.65 1.305-1.08 1.623-1.875-.866-3.436-1.299-4.687-1.299-.448 0-.79.107-1.027.31a.999.999 0 0 0-.342.783c0 .548.421.978 1.269 1.3l2.08.747h.006zm-11.128.241c0 1.39-.147 2.68-.434 3.635h-8.733c.045 1.015.303 1.678.77 2.245.468.56 1.237.842 2.309.842.534 0 1.153-.08 1.856-.23.703-.155 1.512-.41 2.428-.762.738.775 1.193 1.823 1.37 3.143-1.791 1.296-3.985 2.066-6.584 2.066a8.158 8.158 0 0 1-3.544-.802 6.074 6.074 0 0 1-2.318-1.91c-.592-.819-1.013-1.786-1.258-2.9-.248-1.115-.369-2.334-.369-3.654 0-1.275.15-2.45.453-3.533.3-1.08.764-2.018 1.377-2.817a6.434 6.434 0 0 1 2.354-1.876c.948-.455 2.065-1.048 3.345-1.048 1.072 0 2.04.548 2.902.909a6.46 6.46 0 0 1 2.201 1.505c.606.64 1.07 1.4 1.396 2.29.321.887.484 1.855.484 2.902l-.005-.005zm-9.2.235h4.397v-.374c0-.842-.184-1.943-.553-2.486-.363-.55-.914-.823-1.646-.823-.711 0-1.238.257-1.58.77-.348.508-.553 1.753-.619 2.913zm48.3 2.071c-.93.85-1.475 2.072-1.475 3.667v5.95c0 1.977-.58 3.482-1.896 4.516-1.317 1.034-2.844 1.545-4.595 1.593l-1.04-.01v-2.967c.914-.276 1.29-.599 1.654-.968.658-.62 1.163-1.63 1.163-3.036v-4.805c.027-1.63.145-2.908.712-3.833.573-.924 1.685-1.732 3.344-2.432-1.83-.871-3.055-2.01-3.682-3.415-.368-.834-.376-1.962-.376-3.379V6.752c0-1.457-.456-2.475-1.017-3.057-.368-.38-.79-.682-1.8-.91V0c1.237.013 1.86 0 2.58 0 1.106-.008 2.035.623 2.844 1.283.88.722 1.5 1.697 1.87 2.926.21.709.237 1.39.237 2.032v5.096c0 1.799.51 3.135 1.382 4.01.487.507 1.18.97 2.37 1.389v2.298c-1.053.305-1.712.717-2.28 1.238l.005.002zM9.259 0h4.719v2.913l-2.291-.005c-.764.214-1.317.47-1.633.786-.569.582-.9 1.603-.9 3.057v4.404c0 1.417-.143 2.545-.52 3.379-.64 1.405-1.895 2.544-3.76 3.42 1.69.695 2.829 1.503 3.41 2.425.58.924.843 2.202.87 3.837v4.806c0 1.403.379 2.413 1.053 3.036.368.366.89.69 1.822.967v2.967L10.834 36c-1.791-.053-3.353-.561-4.698-1.598-1.343-1.032-1.807-2.54-1.807-4.517V23.94c0-1.596-.684-2.82-1.638-3.67-.58-.521-1.614-.93-2.691-1.235v-2.298c1.217-.42 2.286-.882 2.786-1.39.888-.874 1.543-2.21 1.543-4.009V6.243c0-.647-.026-1.293.106-2.03.244-1.265 1.016-2.208 1.917-2.93C7.176.623 8.124-.007 9.256 0h.003zM21.63 24.26c.271.761.408 1.517.408 2.279 0 .756-.034 1.25-.105 1.48-1.361.23-2.58.343-3.647.343-1.549 0-2.644-.38-3.292-1.144-.65-.765-1.016-1.967-1.016-3.608V0l.247.005h2.08c1.07 0 1.818-.005 2.255.473.432.476.769 1.31.769 2.491v19.684c0 1.07.376 1.604 1.38 1.604h.921v.002z"/></defs></svg>