<?xml version="1.0" encoding="utf-8"?>
<!-- Generator: Adobe Illustrator 21.1.0, SVG Export Plug-In . SVG Version: 6.00 Build 0)  -->
<svg version="1.1" id="Layer_1" xmlns="http://www.w3.org/2000/svg" xmlns:xlink="http://www.w3.org/1999/xlink" x="0px" y="0px"
	 viewBox="0 0 300 300" style="enable-background:new 0 0 300 300;" xml:space="preserve">
<style type="text/css">
	.st0{fill:#FFFFFF;}
</style>
<g id="XMLID_818_">
	<path id="XMLID_819_" class="st0" d="M289.4,181.8c2.1-9.8,3.3-19.9,3.3-30.3c0-77.9-63.2-141.1-141.1-141.1
		c-8.2,0-16.3,0.7-24.1,2.1C114.8,4.6,99.9,0,83.9,0C38.7,0,2.1,36.6,2.1,81.8c0,15.1,4.1,29.2,11.2,41.4
		c-1.9,9.2-2.9,18.7-2.9,28.4c0,77.9,63.2,141.1,141.1,141.1c8.8,0,17.5-0.8,25.8-2.4c11.5,6.2,24.7,9.7,38.7,9.7
		c45.2,0,81.8-36.6,81.8-81.8C297.9,205.1,294.8,192.8,289.4,181.8z M223.9,219c-6.5,9.2-16.2,16.6-28.7,21.7
		c-12.4,5.1-27.2,7.8-44.1,7.8c-20.3,0-37.3-3.6-50.5-10.6c-9.5-5.1-17.3-12.1-23.2-20.6c-6-8.6-9-17.2-9-25.5c0-5.2,2-9.7,5.9-13.3
		c3.9-3.6,8.8-5.5,14.7-5.5c4.8,0,9,1.5,12.4,4.3c3.2,2.8,6,6.8,8.3,12.1c2.5,5.7,5.2,10.6,8.1,14.4c2.8,3.7,6.7,6.7,11.8,9.1
		c5.1,2.4,12,3.6,20.5,3.6c11.7,0,21.2-2.5,28.4-7.4c7-4.8,10.4-10.6,10.4-17.6c0-5.6-1.8-9.9-5.4-13.4c-3.8-3.6-8.9-6.4-15.1-8.3
		c-6.4-2-15.1-4.2-25.9-6.4c-14.6-3.1-27-6.8-36.9-11c0,0-0.1,0-0.1,0c-10.1-4.3-18.3-10.3-24.2-17.7c-6.1-7.6-9.1-17.1-9.1-28.3
		c0-10.7,3.2-20.3,9.6-28.6c6.3-8.2,15.5-14.6,27.4-19c11.7-4.3,25.6-6.5,41.4-6.5c12.6,0,23.7,1.5,32.9,4.3
		c9.3,2.9,17.1,6.8,23.3,11.6c6.2,4.8,10.8,10,13.7,15.4c2.9,5.4,4.4,10.9,4.4,16.1c0,5-1.9,9.6-5.8,13.6c-3.9,4-8.7,6.1-14.5,6.1
		c-5.2,0-9.3-1.3-12.2-3.8c-2.6-2.3-5.4-6-8.4-11.2c-3.5-6.7-7.8-12-12.7-15.7c-4.7-3.6-12.7-5.4-23.6-5.4c-10.1,0-18.3,2-24.4,6
		c-5.9,3.9-8.7,8.3-8.7,13.5c0,3.2,0.9,5.9,2.8,8.2c2,2.4,4.8,4.6,8.4,6.4c3.7,1.9,7.5,3.3,11.4,4.4c3.9,1.1,10.5,2.7,19.5,4.8
		c9.5,2,18.4,4.3,26.4,6.7c1.6,0.5,3.2,1,4.8,1.5c9.4,3,17.5,6.7,24.1,11c6.8,4.4,12.1,10.1,15.9,16.8c3.8,6.8,5.7,15.1,5.7,24.8
		C233.8,199.1,230.5,209.7,223.9,219z"/>
</g>
</svg>
