<svg xmlns="http://www.w3.org/2000/svg" viewBox="0 0 24.11 21.13"><defs><style>.cls-1{fill:#fff;}.cls-2{fill:#d2e5f1;}.cls-3{fill:#b5cfe4;}</style></defs><title>Ресурс 1</title><g id="Слой_2" data-name="Слой 2"><g id="Layer_1" data-name="Layer 1"><path class="cls-1" d="M24.11.73l-3.8,19.5a1.36,1.36,0,0,1-2,.7l-8.8-6.8-3.2-1.6-5.4-1.8s-.8-.3-.9-.9.9-1,.9-1L22.31.33C22.31.23,24.11-.57,24.11.73Z"/><path class="cls-2" d="M8.81,20s-.3,0-.6-1.1-1.9-6.4-1.9-6.4l12.9-8.3s.7-.5.7,0c0,0,.1.1-.3.5s-10.1,9.2-10.1,9.2"/><path class="cls-3" d="M12.81,16.73l-3.5,3.2a.77.77,0,0,1-.6.1l.7-6"/></g></g></svg>