<?xml version="1.0" encoding="UTF-8"?>
<svg version="1.1" viewBox="0 0 5 4" xmlns="http://www.w3.org/2000/svg" xmlns:xlink="http://www.w3.org/1999/xlink">
<title>arrow</title>
<desc>Created using Figma</desc>
<g transform="translate(145 122)">
<use transform="translate(-145 -122)" fill="url(#b)" xlink:href="#a"/>
</g>
<defs>
<linearGradient id="b" x2="1" gradientTransform="matrix(3.0616e-16 4 -5 2.4493e-16 5 -2.4493e-16)" gradientUnits="userSpaceOnUse">
<stop stop-color="#3A607B" offset="0"/>
<stop stop-color="#89A5BA" stop-opacity=".39" offset="1"/>
</linearGradient>
<path id="a" d="m0.27684 3.9029e-5h4.4414c0.04996-8.0991e-4 0.09918 0.01067 0.14253 0.033219 0.04336 0.022549 0.07921 0.05533 0.10371 0.094865 0.02449 0.039535 0.03674 0.084352 0.03545 0.1297-0.00128 0.045347-0.01605 0.089534-0.04275 0.12788-0.09476 0.15374-2.0476 3.2244-2.2166 3.4862-0.02403 0.03885-0.05903 0.07119-0.10139 0.09369-0.04235 0.02251-0.09053 0.03437-0.13961 0.03437s-0.09731-0.01186-0.13966-0.03437c-0.04236-0.0225-0.07736-0.05484-0.10139-0.09369-0.11948-0.18703-2.0847-3.2708-2.2207-3.4941-0.024605-0.038159-0.037667-0.081541-0.037871-0.12576-2.0351e-4 -0.044216 0.012461-0.087696 0.036714-0.12604 0.024253-0.038345 0.059276-0.070191 0.10144-0.092317 0.042165-0.022126 0.090007-0.033748 0.13871-0.033687z" fill-rule="evenodd"/>
</defs>
</svg>
