<svg xmlns="http://www.w3.org/2000/svg" viewBox="0 0 496 496" fill="#fedb58"><path d="M217.528 96h-14.4L183.44 32h-27.824l-19.688 64h-14.4v16h9.48l-9.128 29.648 15.288 4.704L147.744 112h43.568l10.568 34.352 15.288-4.704-9.12-29.648h9.48V96zm-64.864 0l14.776-48h4.176l14.768 48h-33.72zm142.008-8c6.656-5.864 10.856-14.456 10.856-24 0-17.648-14.352-32-32-32h-32v112h32c17.648 0 32-14.352 32-32 0-9.544-4.2-18.136-10.856-24zm-21.144 40h-16V96h16c8.824 0 16 7.176 16 16s-7.176 16-16 16zm0-48h-16V48h16c8.824 0 16 7.176 16 16s-7.176 16-16 16zm104-32V32c-30.88 0-56 25.12-56 56s25.12 56 56 56v-16c-22.056 0-40-17.944-40-40s17.944-40 40-40zm-280 112v144h304V160h-304zm288 128h-272V176h272v112zm-280 32h288v16h-288zm0 32h288v16h-288zm272 32h16v16h-16zm-272 0h256v16h-256z"/><path d="M494.472 32h-60.944V0h-392c-22.056 0-40 17.944-40 40v416c0 22.056 17.944 40 40 40h392v-16h-24c-13.232 0-24-10.768-24-24s10.768-24 24-24h24V112h60.944l-20-40 20-40zM377.736 480H41.528c-13.232 0-24-10.768-24-24s10.768-24 24-24h336.208c-5.08 6.704-8.208 14.96-8.208 24s3.128 17.296 8.208 24zm39.792-64h-336v-32h-16v32h-24c-9 0-17.312 2.992-24 8.016V40c0-13.232 10.768-24 24-24h24v352h16V16h336v400zm51.056-320h-35.056V48h35.056l-12 24 12 24z"/><path d="M65.528 448h288v16h-288zm-32 0h16v16h-16z"/></svg>