<svg xmlns="http://www.w3.org/2000/svg" viewBox="0 0 496.01 496.01" fill="#ffdd58"><path d="M432.01 294.461l-19.76-7.416 8.736-19.208-24.816-24.816-19.208 8.736-7.408-19.752h-35.088l-7.408 19.76-19.208-8.736-24.816 24.816 8.736 19.208-19.76 7.416v35.08l19.752 7.416-8.728 19.208 24.816 24.816 19.208-8.736 7.408 19.752h35.088l7.408-19.76 19.208 8.736 24.816-24.816-8.728-19.208 19.752-7.416v-35.08zm-16 24l-17.72 6.648-1.272 3.432a48.21 48.21 0 0 1-1.48 3.584l-1.536 3.328 7.832 17.24-9.128 9.128-17.24-7.832-3.336 1.544a46.588 46.588 0 0 1-3.576 1.472l-3.44 1.272-6.648 17.728h-12.912l-6.648-17.728-3.44-1.272a43.58 43.58 0 0 1-3.576-1.472l-3.336-1.544-17.24 7.832-9.128-9.128 7.832-17.24-1.536-3.328a48.21 48.21 0 0 1-1.48-3.584l-1.272-3.432-17.72-6.64v-12.92l17.72-6.648 1.272-3.432c.448-1.2.936-2.408 1.48-3.568l1.552-3.336-7.84-17.248 9.128-9.128 17.24 7.832 3.336-1.544a46.588 46.588 0 0 1 3.576-1.472l3.44-1.272 6.64-17.728h12.912l6.648 17.728 3.44 1.272a43.58 43.58 0 0 1 3.576 1.472l3.336 1.544 17.24-7.832 9.128 9.128-7.84 17.248 1.552 3.336a49.295 49.295 0 0 1 1.48 3.568l1.272 3.432 17.712 6.64v12.92z"/><path d="M352.01 280.005c-17.648 0-32 14.352-32 32s14.352 32 32 32 32-14.352 32-32-14.352-32-32-32zm0 48c-8.824 0-16-7.176-16-16s7.176-16 16-16 16 7.176 16 16-7.176 16-16 16z"/><path d="M464.01 280.005v-80H332.394c7.616-17.872 11.616-36.744 11.616-56.232C344.01 64.501 279.514.005 200.242.005h-9.208c-68.944 0-129.992 46.4-148.448 112.832a138.37 138.37 0 0 1-35.408 60.68l-4.832 4.832a7.991 7.991 0 0 0 0 11.312l3.288 3.288c22.168 22.168 34.376 51.632 34.376 82.968 0 28.72 23.36 52.088 52.08 52.088a52.095 52.095 0 0 0 26.24-7.096l17.68-10.304v73.4h72v72h96.664c3.824 22.672 23.592 40 47.336 40s43.512-17.328 47.336-40h96.664v-176h-32zm-256 88h-56v-66.736l52.032-30.352-8.064-13.832-85.712 50a36.073 36.073 0 0 1-18.176 4.92c-19.896 0-36.08-16.184-36.08-36.088 0-34.496-13.016-66.992-36.72-91.888 18.336-18.608 31.72-41.728 38.712-66.904 16.536-59.544 71.248-101.12 133.032-101.12h9.208c2.624 0 5.184.24 7.768.392v32.08c-35.944 3.992-64 34.528-64 71.528s28.056 67.536 64 71.528v32.472h16v-32.472c35.944-3.992 64-34.528 64-71.528s-28.056-67.536-64-71.528V18.309c59.12 11.176 104 63.136 104 125.464 0 18.384-3.856 36.184-11.328 52.6l-1.848 3.632H240.01v80h-32v88zm8-304c30.88 0 56 25.128 56 56s-25.12 56-56 56-56-25.128-56-56 25.12-56 56-56zm264 376h-96v8c0 17.648-14.352 32-32 32s-32-14.352-32-32v-8h-96v-144h16v128h224v-96h-16v80h-192v-192h192v96h16v-16h16v144z"/><path d="M216.01 80.005c-22.056 0-40 17.944-40 40s17.944 40 40 40 40-17.944 40-40-17.944-40-40-40zm0 64c-13.232 0-24-10.768-24-24s10.768-24 24-24 24 10.768 24 24-10.768 24-24 24z"/></svg>