<svg xmlns="http://www.w3.org/2000/svg" width="512" height="512"><g fill="#222"><path d="M486.4 38.4H25.6C11.468 38.415.015 49.868 0 64v307.2c.015 14.132 11.468 25.585 25.6 25.6h86.043c7.065 43.697 67.921 76.8 144.357 76.8s137.292-33.103 144.357-76.8H486.4c14.132-.015 25.585-11.468 25.6-25.6V64c-.015-14.132-11.468-25.585-25.6-25.6zM170.667 55.467h170.667v263.679a205.75 205.75 0 0 0-58.767-14.792 250.568 250.568 0 0 0-53.075-.004 205.91 205.91 0 0 0-58.825 14.803V55.467zM25.6 379.733a8.54 8.54 0 0 1-8.533-8.533V64a8.54 8.54 0 0 1 8.533-8.533h128V327.72c-23.27 13.652-38.502 31.891-41.894 52.014H25.6zm230.4 76.8c-69.383 0-128-31.262-128-68.267 0-31.879 44.408-60.663 103.367-66.954a232.037 232.037 0 0 1 49.325.004c58.9 6.287 103.308 35.071 103.308 66.95 0 37.005-58.617 68.267-128 68.267zM494.933 371.2a8.54 8.54 0 0 1-8.533 8.533h-86.106c-3.393-20.125-18.627-38.367-41.894-52.019V55.467h128A8.54 8.54 0 0 1 494.933 64v307.2z"/><path d="M238.933 345.6H204.8a8.53 8.53 0 0 0-8.534 8.534V422.4c0 4.713 3.82 8.533 8.533 8.533s8.533-3.82 8.533-8.533v-25.6H230.4c4.713 0 8.533-3.82 8.533-8.533s-3.82-8.533-8.533-8.533h-17.067v-17.067h25.6c4.713 0 8.533-3.82 8.533-8.533s-3.82-8.534-8.533-8.534zm76.8 25.6c-.015-14.132-11.468-25.585-25.6-25.6h-25.6a8.53 8.53 0 0 0-8.534 8.534V422.4c0 4.713 3.82 8.533 8.533 8.533s8.533-3.82 8.533-8.533v-25.6h4.268l23.041 30.721a8.533 8.533 0 0 0 13.65-10.242l-16.316-21.754a25.546 25.546 0 0 0 18.025-24.325zm-25.6 8.533h-17.067v-17.067h17.067c4.713 0 8.533 3.82 8.533 8.533s-3.82 8.534-8.533 8.534z"/></g></svg>