<svg xmlns="http://www.w3.org/2000/svg" width="512" height="512"><g fill="#222"><path d="M486.4 38.4H25.6C11.468 38.415.015 49.868 0 64v307.2c.015 14.132 11.468 25.585 25.6 25.6h86.043c7.065 43.697 67.921 76.8 144.357 76.8s137.292-33.103 144.357-76.8H486.4c14.132-.015 25.585-11.468 25.6-25.6V64c-.015-14.132-11.468-25.585-25.6-25.6zM256 456.533c-69.383 0-128-31.258-128-68.267S186.617 320 256 320s128 31.258 128 68.267-58.617 68.266-128 68.266zM494.933 371.2a8.538 8.538 0 0 1-8.533 8.533h-86.043c-7.065-43.697-67.921-76.8-144.357-76.8s-137.292 33.103-144.357 76.8H25.6a8.539 8.539 0 0 1-8.533-8.533v-85.333h477.867V371.2zm0-102.4H17.067V166.4h477.867v102.4zm0-119.467H17.067V64a8.538 8.538 0 0 1 8.533-8.533h460.8A8.538 8.538 0 0 1 494.933 64v85.333z"/><path d="M213.333 345.6h-17.067a8.525 8.525 0 0 0-8.533 8.533V422.4a8.525 8.525 0 0 0 8.533 8.533h17.067c18.844-.019 34.115-15.29 34.133-34.133v-17.067c-.018-18.843-15.289-34.114-34.133-34.133zm17.067 51.2c-.012 9.421-7.646 17.055-17.067 17.067H204.8v-51.2h8.533c9.421.012 17.054 7.646 17.067 17.067V396.8zm76.8-34.133c4.713 0 8.533-3.82 8.533-8.533s-3.82-8.533-8.533-8.533h-34.133a8.525 8.525 0 0 0-8.533 8.533V422.4a8.525 8.525 0 0 0 8.533 8.533H307.2c4.713 0 8.533-3.82 8.533-8.533s-3.82-8.533-8.533-8.533h-25.6V396.8h17.067c4.713 0 8.533-3.82 8.533-8.533s-3.82-8.533-8.533-8.533H281.6v-17.067h25.6z"/></g></svg>