<svg xmlns="http://www.w3.org/2000/svg" viewBox="0 0 496 496" fill="#fedb58"><path d="M477.072 480l-69.848-147.912L448 291.312l32 32V216H372.688l32 32-25.248 25.248L341.072 192h-54.864l-17.456-32H256v-48h182.128l-29.224-48.712L427.816 16H256V0h-16v160h-69.056l-152 320H0v16h496v-16h-18.928zM256 32h148.184l-13.088 32.712L409.872 96H256V32zm171.312 216l-16-16H464v52.688l-16-16-128 128-56-56-112 112L131.312 432 268 295.312l56 56L427.312 248zM36.656 480l144.4-304h78.192l45.728 83.832 14.048-7.664L294.928 208h36l36.488 77.272L324 328.688l-56-56L108.688 432 152 475.312l112-112 56 56 75.208-75.208L459.376 480H36.656z"/><path d="M272 64h16v16h-16zm32 0h16v16h-16zm32 0h16v16h-16z"/></svg>