<svg xmlns="http://www.w3.org/2000/svg" width="512" height="512"><g fill="#222"><path d="M213.333 362.667h25.6c4.713 0 8.533-3.82 8.533-8.533s-3.82-8.533-8.533-8.533h-25.6c-14.132.015-25.585 11.468-25.6 25.6v34.133c.015 14.132 11.468 25.585 25.6 25.6h25.6a8.533 8.533 0 0 0 8.533-8.533v-34.133a8.533 8.533 0 0 0-8.533-8.533h-17.067c-4.713 0-8.533 3.82-8.533 8.533s3.82 8.533 8.533 8.533h8.533v17.067h-17.067a8.544 8.544 0 0 1-8.533-8.533V371.2a8.546 8.546 0 0 1 8.534-8.533zm108.741-1.921a25.49 25.49 0 0 0-23.408-15.146h-25.6a8.533 8.533 0 0 0-8.533 8.533V422.4a8.533 8.533 0 0 0 8.533 8.533h25.6a25.49 25.49 0 0 0 18.942-42.667 25.485 25.485 0 0 0 4.466-27.52zm-23.407 53.121H281.6V396.8h17.067a8.533 8.533 0 1 1 0 17.067zm0-34.134H281.6v-17.067h17.067c4.713 0 8.533 3.82 8.533 8.533s-3.82 8.534-8.533 8.534z"/><path d="M502.656 44.389a8.468 8.468 0 0 0-.769-.635A25.349 25.349 0 0 0 486.4 38.4H25.6a25.344 25.344 0 0 0-15.495 5.362 8.405 8.405 0 0 0-.751.62A25.44 25.44 0 0 0 0 64v307.2c.015 14.132 11.468 25.585 25.6 25.6h86.043c7.065 43.697 67.917 76.8 144.357 76.8s137.293-33.103 144.357-76.8H486.4c14.132-.015 25.585-11.468 25.6-25.6V64a25.442 25.442 0 0 0-9.344-19.611zM315.733 55.467h160.296l-148.447 102.4h-11.849v-102.4zm-119.466 0v102.4h-11.849L35.971 55.467h160.296zM17.067 64c0-.261.126-.481.149-.735l137.142 94.602H17.067V64zm.149 307.935c-.023-.255-.149-.474-.149-.735v-93.867h137.291L17.216 371.935zm18.755 7.798l148.447-102.4h11.849v32.972c-46.558 12.085-79.541 37.985-84.624 69.428H35.971zM256 456.533c-69.383 0-128-31.262-128-68.267S186.617 320 256 320s128 31.262 128 68.267-58.617 68.266-128 68.266zm144.357-76.8c-5.083-31.443-38.066-57.343-84.624-69.428v-32.972h11.849l148.447 102.4h-75.672zm94.576-8.533c0 .261-.126.481-.149.735l-137.142-94.602h137.291V371.2zm0-110.933H307.2a8.533 8.533 0 0 0-8.533 8.533v37.771a252.05 252.05 0 0 0-85.333 0V268.8a8.533 8.533 0 0 0-8.533-8.533H17.067v-85.333H204.8a8.533 8.533 0 0 0 8.533-8.533V55.467h85.333V166.4a8.533 8.533 0 0 0 8.533 8.533h187.733v85.334zm0-102.4H357.642l137.142-94.602c.023.255.149.474.149.735v93.867z"/></g></svg>