<svg xmlns="http://www.w3.org/2000/svg" viewBox="0 0 295.239 295.239" fill="#ffdd58"><path d="M277.005 104.761a18.12 18.12 0 0 0-12.89 5.338l-26.019 26.024V75.729c3.038 6.195 4.762 12.971 4.762 19.51h9.524c0-16.924 17.067-42.857 38.095-42.857v-9.524c-23.143 0-38.095-14.957-38.095-38.095h-9.524c0 6.838-1.729 13.19-4.762 18.681v-9.157C238.096 6.41 231.687 0 223.811 0H14.287C6.41 0 .001 6.41.001 14.286v266.667c0 7.876 6.41 14.286 14.286 14.286h209.524c7.876 0 14.286-6.41 14.286-14.286v-93.267l51.8-51.805c3.447-3.438 5.342-8.014 5.342-12.891 0-10.048-8.176-18.229-18.234-18.229zm-29.734-78.194c4.6 10.205 12.6 17.881 23.076 22.114-9.762 5.876-17.51 15.505-22.257 25.586-4.762-11.271-13.129-20.667-23.262-26.162a46.7 46.7 0 0 0 22.443-21.538zm-18.698 254.385h-.001a4.766 4.766 0 0 1-4.762 4.762H14.287a4.766 4.766 0 0 1-4.762-4.762V14.286a4.766 4.766 0 0 1 4.762-4.762h209.524a4.766 4.766 0 0 1 4.762 4.762v20.39c-6.481 5.129-14.719 8.181-23.81 8.181v9.524c9.19 0 17.386 4.052 23.81 10.219v83.048l-66.667 66.667v-26.6h-33.333v33.333h26.6l-1.395 1.395-.648.648-19.338 45.124 45.119-19.338 49.662-49.667v83.742zm-60.724-39.704l-15.924 6.824 6.824-15.924 9.1 9.1zm-15.468-46.01v14.286h-14.286v-14.286h14.286zm23.81 40.886l-12.314-12.314 83.743-83.743 12.314 12.314-83.743 83.743zm106.971-106.976l-16.495 16.5-12.314-12.314 16.495-16.495a8.647 8.647 0 0 1 6.157-2.552c4.805 0 8.71 3.905 8.71 8.705a8.76 8.76 0 0 1-2.553 6.156z"/><path d="M61.906 90.476c15.757 0 28.571-12.814 28.571-28.571 0-15.757-12.814-28.572-28.571-28.572-15.757 0-28.572 12.815-28.572 28.572s12.815 28.571 28.572 28.571zm0-47.619c10.505 0 19.048 8.543 19.048 19.048 0 10.505-8.543 19.047-19.048 19.047S42.857 72.41 42.857 61.905s8.544-19.048 19.049-19.048zM38.096 100h38.095v9.524H38.096zm38.095 38.095H42.857v33.333H76.19v-33.333zm-9.524 23.81H52.381v-14.286h14.286v14.286zm-23.81 57.143H76.19v-33.333H42.857v33.333zm9.524-23.81h14.286v14.286H52.381v-14.286zm109.523-57.142h-33.333v33.333h33.333v-33.333zm-9.523 23.809h-14.286v-14.286h14.286v14.286zm-28.57-114.286h66.667v9.524h-66.667zm0 28.571h85.714v9.524h-85.714zm0 28.572h85.714v9.524h-85.714zm-38.097 38.095h23.81v9.524h-23.81zm0 19.048h23.81v9.524h-23.81zm85.716-19.048h23.81v9.524h-23.81zm0 19.048h23.81v9.524h-23.81zM85.714 200h23.81v9.524h-23.81zm-42.857 38.095h85.714v9.524H42.857zm0 19.048h85.714v9.524H42.857zM85.714 100h9.524v9.524h-9.524zm123.81 166.667h9.524v9.524h-9.524zm-19.047 0h9.524v9.524h-9.524zm-171.429 0h9.524v9.524h-9.524z"/></svg>