<svg xmlns="http://www.w3.org/2000/svg" viewBox="0 0 224.1 88.4"><path d="M7 84.4s2.3-1.1-.6-5.4c0 0-1.8-31 .8-41.1 0 0 1-6.7-3-5.8-4 .8-4.2 5.3-4.2 5.3l.2 39s-.9 8.6 6.8 8z"/><path d="M89.9 63c-.5-11.9-1.4-44.8-1.4-44.8 1.5-7 .3-9.8.3-9.8-3-6.7-10.8-7-18.8-5.2s-45.7.5-45.7.5-13.1-1.8-17.1-.5S-.5 8 .4 18.2s5.5 9.2 5.5 9.2 2.2.8 2.7-4-.7-3-2.5-8.8S10.8 8 10.8 8s12.3.8 26 2S74.5 8 78 7.9c3.5-.2 8.3 1.2 6.5 8.7s1.2 50.7 1.2 50.7c1.8 9.9.3 13 .3 13-1.7 5.2-27.3 3.3-27.3 3.3S29.2 82 21.5 82 15 84.7 15 84.7c.2 3.7 4.2 3.2 4.2 3.2l34 .3s12.3.3 22.5.2 13.2-2 14.8-8.3c.9-3.6.8-6.8.5-9.2L89.9 63z"/><path d="M62.9 62.6c0 3-1.8 5.3-5.3 7-2.8 1.3-5.9 2-9.3 2-3.1 0-6.8-.7-11-2.1-5.2-1.8-7.8-3.9-7.8-6.2 0-.9.3-1.7 1-2.3.6-.6 1.4-1 2.3-1 1.3 0 2.6.5 3.7 1.6 1.9 1.6 3 2.5 3.1 2.7 1.7 1 4.8 1.5 9.3 1.5 4 0 6-.9 6-2.7 0-1.5-1.9-3.7-5.6-6.4-2.6-1.7-5.2-3.4-7.9-5-3.4-2.3-5.8-4.4-7.3-6.4-2-2.7-3-5.7-3-9.2 0-4.3 1.3-8.2 4-11.6 2.9-3.8 6.4-5.6 10.7-5.6 3.7 0 6.7 1 9.3 3 2.5 2 4.1 4.8 4.8 8.4.1 1.4.4 3.4.9 6.1.2.8.3 1.4.3 1.8 0 1.8-.3 3.3-.9 4.5-.7 1.7-1.9 2.5-3.5 2.5-.9 0-1.7-.4-2.6-1.2-.8-.8-1.2-1.7-1.2-2.6 0-.6.1-1.6.4-2.9s.4-2.2.4-2.9c0-6.7-2.2-10-6.7-10-2.5 0-4.5 1.1-6.2 3.2-1.7 2.1-2.5 4.4-2.5 6.9 0 3.6 2.1 7 6.4 10.4 3.9 2.6 7.8 5.2 11.8 7.9 4.3 2.9 6.4 5.8 6.4 8.6zm75.7-44.7c0 .4-.3.8-.8 1.2-.6.4-.9.8-1 1-1 2-1.5 5.8-1.4 11.6l.1 2.3c.1 0 .3-.1.4-.1.6 0 1.2.3 1.7 1s.8 1.3.8 2c0 .5-.4.8-1.1 1-.6.1-1.2.2-1.8.4 0 1.9.1 3.8.1 5.7.1 2.4.3 4.3.8 5.5.3 1 .5 1.7.5 2 0 .8-.3 1.5-.9 2.2-.6.7-1.3 1-2.1 1-1.5 0-2.5-.8-3-2.4-.1-.3-.3-1.7-.5-4.2-.1-.9-.1-1.9-.1-3.2v-2.5c0-1.6-.1-3-.3-4-2.3.1-5.1.4-8.3 1-2.8.5-5.5 1-8.2 1.6.2.5.2 2.7.2 6.5 0 3 .5 5 1.4 6 .1.2.2.4.2.6 0 1-.8 1.6-2.4 1.6-1.5 0-2.6-.5-3.5-1.4-.5-.6-1-4.7-1.5-12.5-.8-.2-1.4-.6-1.8-1.4-.4-.8-.7-1.6-.7-2.4 0-.5.3-.8.8-1 .5-.2 1-.4 1.5-.5 0-.5.1-1.5.2-2.8.1-1.2.2-2.1.2-2.8 0-7 .4-11.5 1.1-13.5.6-1.6 1.7-2.3 3.3-2.3 1 0 1.9.3 2.7.9.8.6 1.3 1.4 1.3 2.3 0 .5-.2 1.1-.5 1.8-.4 1-.7 1.5-.7 1.7-1.1 3.4-1.6 7.4-1.6 12v1.4c.4 0 1.3-.2 2.8-.5 4.7-1 9.2-1.4 13.3-1.4.1-5.9.3-9.7.5-11.4.7-5.8 2.1-8.7 4.1-8.7 1.2 0 2.3.5 3.1 1.4.7.9 1.1 2 1.1 3.3zm42.6 16.7c0 5.8-1.4 10.7-4.3 14.7-3.2 4.5-7.5 6.8-13 6.8-1.6 0-3.2-.3-5-.9-4-1.3-6.9-3.5-8.6-6.7-1.5-2.7-2.2-6.4-2.2-10.9 0-5.9 1.4-11.2 4.3-15.7 3.3-5.3 7.7-8 13.3-8 4.9 0 8.9 2.3 11.8 6.9 2.4 3.9 3.7 8.5 3.7 13.8zm-5.8-.6c0-8.3-2.7-13.3-8-15-.6-.2-1.2-.2-1.9-.2-2.2 0-4.5 1-6.7 3-3.6 3.2-5.3 9-5.3 17.4 0 .8.2 1.8.5 3.2.7 3.1 1.7 5.3 3.1 6.7 1.6 1.6 3.8 2.4 6.8 2.4 4.1 0 7.2-2 9.3-5.9 1.4-3.2 2.2-7.1 2.2-11.6zm48.7-24c0 2.6-1.5 5.1-4.6 7.4-.9.7-3.8 2.4-8.5 5.1-3.1 1.7-4.6 3.2-4.6 4.3 0 .3.2.8.6 1.6.4.7.6 1.5.6 2.1v.4c-.5.1-1 .2-1.5.2-1.2 0-2.4-.5-3.7-1.4-1.3-1-2-2.1-2-3.3 0-2 1.5-4 4.5-5.9 2.8-1.6 5.5-3.1 8.3-4.7 3-1.9 4.5-3.8 4.5-5.8 0-1.5-.6-2.7-1.8-3.6-1.1-.8-2.4-1.2-4-1.2-1.5 0-3.4.6-5.9 1.8-2.5 1.2-4.2 2.4-5.3 3.5 1.5.4 2.2 1 2.2 1.9 0 .7-.4 1.4-1.3 2.1-.8.6-1.7.9-2.4.9-1 0-2.1-.5-3.3-1.5-1.2-1-1.8-2-1.8-3 0-1.6 1.3-3.5 4-5.7 2.3-1.9 4.4-3.2 6.3-3.8 2.8-1 4.9-1.5 6.5-1.5 2.7 0 5.5 1 8.4 2.9 3.2 2.3 4.8 4.6 4.8 7.2zm-15.5 26.7c0 .6-.6 1.2-1.7 1.8-.9.6-1.8.8-2.5.8s-1.6-.3-2.4-.9c-.9-.6-1.3-1.3-1.3-2s.4-1.3 1.1-1.9c.7-.5 1.4-.8 2.2-.8.9 0 1.9.3 3 .9 1.1.6 1.6 1.3 1.6 2.1zM116.2 81c0 .7-.5 1.5-1.6 2.5-1 .9-1.8 1.4-2.6 1.7-.8.2-1.5.3-2.2.3-1.8 0-3.2-.6-4.2-1.7s-1.5-2.6-1.5-4.4c0-1.7.5-3.7 1.4-5.8 1.1-2.6 2.4-3.9 3.9-3.9.8 0 1.8.3 3 1s1.9 1.4 2.1 2.1c.2.6.3 1.3.3 2.1 0 .7-.1 1.5-.4 2.4-.4 1.1-.8 1.7-1.4 1.7-.4 0-.7-.1-1.1-.3-.4-.2-.6-.6-.6-.9 0 0 .1-.3.3-.8.1-.2.2-.8.2-1.9 0-.8 0-1.4-.1-1.6-.1-.7-.5-1-1-1-1.1 0-2 1-2.6 2.9-.5 1.4-.7 2.9-.7 4.3 0 2.4.8 3.6 2.3 3.6.6 0 1.3-.3 2.1-1 .7-.6 1.2-1.2 1.5-1.8.4-.7.8-1.1 1.3-1.1.3 0 .7.2 1 .6.5.3.6.7.6 1zm26.3 4.4c-.4.4-1 .6-1.7.6-.5 0-1-.3-1.5-.9v-4.6c0-5-.7-7.5-2.2-7.5-1.5 0-2.2 2-2.2 6.1v2c0 .3.1.9.2 1.5.1.7.2 1.2.2 1.5 0 .3-.2.6-.5.8-.4.2-.7.4-1 .4-.6 0-1-.2-1.4-.7-.4-.5-.6-1-.6-1.5l.1-19.7v-.5c0-.8.5-1.2 1.4-1.2.4 0 .9.2 1.5.6.6.4.8.8.8 1.2 0 .5-.1 1.2-.3 2.2-.2 1-.3 1.7-.3 2.2 0 .6 0 1.6.1 3 .5-.3.9-.4 1.3-.4.9 0 1.8.2 2.9.6 1.3.6 2.3 1.5 2.8 2.8.4 1 .6 2.3.6 3.9v7.6zm27.4-7.2c0 2-.5 3.8-1.5 5.2-1.2 1.7-2.7 2.5-4.7 2.5s-3.5-.7-4.5-2c-.9-1.2-1.4-2.8-1.4-4.9 0-2 .5-4 1.5-5.8 1.2-2.1 2.7-3.2 4.6-3.2.6 0 1.3.3 2.2.8 2.6 1.5 3.8 3.9 3.8 7.4zm-3-.1c0-3.5-.8-5.2-2.5-5.2-1.2 0-2.1.7-2.7 2.2-.5 1.1-.7 2.4-.7 3.8 0 3 .9 4.5 2.7 4.5 1.2 0 2-.6 2.6-1.9.4-.9.6-2.1.6-3.4zm30.7.1c0 2-.5 3.8-1.5 5.2-1.2 1.7-2.7 2.5-4.7 2.5s-3.5-.7-4.5-2c-.9-1.2-1.4-2.8-1.4-4.9 0-2 .5-4 1.5-5.8 1.2-2.1 2.7-3.2 4.6-3.2.6 0 1.3.3 2.2.8 2.5 1.5 3.8 3.9 3.8 7.4zm-3-.1c0-3.5-.8-5.2-2.5-5.2-1.2 0-2.1.7-2.7 2.2-.5 1.1-.7 2.4-.7 3.8 0 3 .9 4.5 2.7 4.5 1.2 0 2-.6 2.6-1.9.4-.9.6-2.1.6-3.4zm22.7 5.8c0 .4-.2.8-.5 1s-.7.4-1.1.4c-1.4 0-2.1-1.9-2.1-5.6 0-1.7 0-4.2.1-7.6s.1-5.9.1-7.6c0-.3 0-.7-.1-1.2s-.1-.9-.1-1.2c.7-.5 1.3-.7 1.8-.7s1 .2 1.4.5c.5.3.7.7.7 1.2 0 .2-.1.5-.2.9-.2.5-.2.8-.3.9-.3 1.4-.4 3.4-.4 6v6.3c.1 2.9.3 4.8.7 6-.1.3 0 .6 0 .7z"/></svg>