<svg xmlns="http://www.w3.org/2000/svg" width="512" height="512"><g fill="#222"><path d="M486.4 38.4H25.6C11.468 38.415.015 49.868 0 64v307.2c.015 14.132 11.468 25.585 25.6 25.6h86.043c7.065 43.697 67.917 76.8 144.357 76.8s137.293-33.103 144.357-76.8H486.4c14.132-.015 25.585-11.468 25.6-25.6V64c-.015-14.132-11.468-25.585-25.6-25.6zM256 456.533c-69.383 0-128-31.258-128-68.267 0-31.875 44.413-60.658 103.367-66.958a232.404 232.404 0 0 1 49.329.009C339.588 327.608 384 356.392 384 388.267c0 37.008-58.617 68.266-128 68.266zM494.933 371.2a8.54 8.54 0 0 1-8.533 8.533h-86.106c-6.328-37.535-53.876-68.56-117.731-75.375a249.963 249.963 0 0 0-53.067-.009c-63.91 6.822-111.461 37.848-117.789 75.383H25.6a8.54 8.54 0 0 1-8.533-8.533V226.133h477.867V371.2zm0-162.133H17.067V64a8.54 8.54 0 0 1 8.533-8.533h460.8A8.54 8.54 0 0 1 494.933 64v145.067z"/><path d="M221.867 345.6h-25.6a8.53 8.53 0 0 0-8.534 8.534V422.4c0 4.713 3.82 8.533 8.533 8.533s8.533-3.82 8.533-8.533v-25.6h17.067c14.138 0 25.6-11.461 25.6-25.6s-11.461-25.6-25.599-25.6zm0 34.133H204.8v-17.067h17.067c4.713 0 8.533 3.82 8.533 8.533s-3.82 8.534-8.533 8.534zm85.333 34.134h-25.6v-59.733a8.533 8.533 0 0 0-17.066 0V422.4a8.53 8.53 0 0 0 8.534 8.534H307.2c4.713 0 8.533-3.82 8.533-8.533s-3.82-8.534-8.533-8.534z"/></g></svg>