<svg xmlns="http://www.w3.org/2000/svg" viewBox="0 0 32 32"><path d="M26 15V9c0-.3-.1-.6-.3-.7L18 15l2.9 2.5c1-1.5 2.7-2.5 4.6-2.5h.5zm-5.6 3.4l-3.2-2.8-2.7 2.4-2.7-2.3L4.5 22h15.7c-.1-.5-.2-1-.2-1.5 0-.7.1-1.4.4-2.1zm.2 4.6H4c-1.1 0-2-.9-2-2V9c0-1.1.9-2 2-2h21c1.1 0 2 .9 2 2v6.2c2.3.7 4 2.8 4 5.3 0 3-2.5 5.5-5.5 5.5-2.1 0-4-1.2-4.9-3zM3.3 8.3c-.2.2-.3.4-.3.7v12c0 .3.1.6.3.7L11 15 3.3 8.3zm11.2 8.4l10-8.7h-20l10 8.7zm11 8.3c2.5 0 4.5-2 4.5-4.5S28 16 25.5 16 21 18 21 20.5s2 4.5 4.5 4.5zm-.5-1.8l-2.4-2.4.7-.7 1.6 1.6 3.1-3.1.7.7-3.7 3.9z" fill="#fce108"/></svg>