<svg xmlns="http://www.w3.org/2000/svg" viewBox="0 0 496 496" fill="#fedb58"><path d="M445.904 184a206.77 206.77 0 0 0-12.696-30.704l35.408-35.408-90.504-90.504-35.408 35.408A206.77 206.77 0 0 0 312 50.096V0H184v50.096a206.77 206.77 0 0 0-30.704 12.696l-35.408-35.408-90.504 90.504 35.408 35.408A206.77 206.77 0 0 0 50.096 184H0v128h50.096a206.77 206.77 0 0 0 12.696 30.704l-35.408 35.408 90.504 90.504 35.408-35.408A206.77 206.77 0 0 0 184 445.904V496h128v-50.096a206.77 206.77 0 0 0 30.704-12.696l35.408 35.408 90.504-90.504-35.408-35.408A206.77 206.77 0 0 0 445.904 312H496V184h-50.096zM16 200h46.008l1.672-5.76c3.92-13.464 9.288-26.44 15.952-38.568l2.888-5.264L50 117.888l67.88-67.88 32.52 32.52 5.264-2.888c12.128-6.664 25.104-12.032 38.568-15.952l5.768-1.68V16h40l-.016 103.56 11.216-4.896A31.722 31.722 0 0 1 264 112c17.648 0 32 14.352 32 32s-14.352 32-32 32a31.76 31.76 0 0 1-12.808-2.664l-11.264-4.928.04 71.568-48.632.024c.44-2.624.664-5.296.664-8 0-26.472-21.528-48-48-48s-48 21.528-48 48c0 2.704.224 5.376.664 8H16v-40zm224 280h-40v-46.008l-5.76-1.672c-13.464-3.92-26.44-9.288-38.568-15.952l-5.264-2.888-32.52 32.52-67.88-67.88 32.52-32.52-2.888-5.264c-6.664-12.128-12.032-25.104-15.952-38.568L62.008 296H16v-40l103.56.016-4.896-11.216A31.722 31.722 0 0 1 112 232c0-17.648 14.352-32 32-32s32 14.352 32 32a31.76 31.76 0 0 1-2.664 12.808l-4.928 11.264 71.568-.04.024 48.632a48.341 48.341 0 0 0-8-.664c-26.472 0-48 21.528-48 48s21.528 48 48 48c2.704 0 5.376-.224 8-.664V480zm240-184h-46.008l-1.672 5.76c-3.92 13.464-9.288 26.44-15.952 38.568l-2.888 5.264 32.52 32.52-67.88 67.88-32.52-32.52-5.264 2.888c-12.128 6.664-25.104 12.032-38.568 15.952l-5.768 1.68V480h-40l.016-103.56-11.216 4.896A31.722 31.722 0 0 1 232 384c-17.648 0-32-14.352-32-32s14.352-32 32-32c4.456 0 8.768.896 12.808 2.664l11.264 4.928-.04-71.568 48.632-.024a48.341 48.341 0 0 0-.664 8c0 26.472 21.528 48 48 48s48-21.528 48-48c0-2.704-.224-5.376-.664-8H480v40zm0-56l-103.56-.016 4.896 11.216A31.722 31.722 0 0 1 384 264c0 17.648-14.352 32-32 32s-32-14.352-32-32c0-4.456.896-8.768 2.664-12.808l4.928-11.264-71.568.04-.024-48.632c2.624.44 5.296.664 8 .664 26.472 0 48-21.528 48-48s-21.528-48-48-48c-2.704 0-5.376.224-8 .664V16h40v46.008l5.76 1.672c13.464 3.92 26.44 9.288 38.568 15.952l5.264 2.888L378.112 50l67.88 67.88-32.52 32.52 2.888 5.264c6.664 12.128 12.032 25.104 15.952 38.568l1.68 5.768H480v40z"/></svg>