<svg width="22" height="19" viewBox="0 0 22 19" version="1.1" xmlns="http://www.w3.org/2000/svg" xmlns:xlink="http://www.w3.org/1999/xlink">
<title>Vector</title>
<desc>Created using Figma</desc>
<g id="Canvas" transform="translate(-98 53)">
<g id="Vector">
<use xlink:href="#path0_fill" transform="translate(98.8947 -52.2773)" fill="#FFFFFF"/>
</g>
</g>
<defs>
<path id="path0_fill" d="M 20.6749 2.1011C 19.9143 2.45781 19.0967 2.69804 18.2387 2.80632C 19.1148 2.25216 19.7876 1.37404 20.1038 0.327586C 19.2845 0.840805 18.3766 1.21389 17.41 1.41499C 16.6373 0.544157 15.5338 -8.50451e-08 14.3139 -8.50451e-08C 11.5754 -8.50451e-08 9.56301 2.69895 10.1815 5.50072C 6.65732 5.31418 3.53197 3.53065 1.43949 0.819876C 0.328214 2.83362 0.863178 5.46796 2.75149 6.80197C 2.05715 6.77831 1.40245 6.57721 0.831304 6.24143C 0.784786 8.31705 2.19326 10.2589 4.23319 10.6911C 3.6362 10.8622 2.98236 10.9023 2.31731 10.7676C 2.85659 12.5475 4.42271 13.8423 6.28001 13.8787C 4.4968 15.3556 2.25012 16.0153 0 15.7351C 1.87711 17.0063 4.10742 17.7479 6.50226 17.7479C 14.3777 17.7479 18.8271 10.7221 18.5583 4.4206C 19.387 3.78817 20.1064 2.99923 20.6749 2.1011Z"/>
</defs>
</svg>
