<svg width="27" height="30" viewBox="0 0 27 30" fill="none" xmlns="http://www.w3.org/2000/svg">
<path d="M13.002 0.997978C12.402 0.997978 12.002 1.49798 12.002 1.99798L12.002 25.598L1.70203 15.498C1.30203 15.098 0.702029 15.098 0.302029 15.498C-0.0979706 15.898 -0.0979706 16.498 0.302029 16.898L12.302 28.698C12.602 28.998 13.002 29.098 13.402 28.898C13.802 28.798 14.002 28.398 14.002 27.998L14.002 1.99798C14.002 1.39798 13.602 0.997978 13.002 0.997978Z" fill="white"/>
<path d="M25.702 15.498C25.302 15.098 24.702 15.098 24.302 15.498L16.302 23.398C15.902 23.798 15.902 24.398 16.302 24.798C16.702 25.198 17.302 25.198 17.702 24.798L25.702 16.898C25.902 16.698 26.002 16.498 26.002 16.198C26.002 15.998 25.902 15.698 25.702 15.498Z" fill="white"/>
</svg>
