<?xml version="1.0" encoding="utf-8"?>
<!-- Generator: Adobe Illustrator 21.1.0, SVG Export Plug-In . SVG Version: 6.00 Build 0)  -->
<svg version="1.1" id="Слой_1" xmlns:sketch="http://www.bohemiancoding.com/sketch/ns"
	 xmlns="http://www.w3.org/2000/svg" xmlns:xlink="http://www.w3.org/1999/xlink" x="0px" y="0px" viewBox="0 0 32 32"
	 style="enable-background:new 0 0 32 32;" xml:space="preserve">
<style type="text/css">
	.st0{fill:#FCE108;}
</style>
<title></title>
<desc></desc>
<g id="Page-1">
	<g id="icon-8-mail-error">
		<path id="mail-error" class="st0" d="M21.5,19L18,16l5.9-5.1l0,0l-0.8-0.8l-8.6,7.4l-8.6-7.4l-0.8,0.8l0,0L11,16l-5.9,5.1l0,0
			l0.8,0.8l6-5.1l2.6,2.3l2.6-2.3l3.8,3.3l-2.3,4H4c-1.1,0-2-0.9-2-2V10c0-1.1,0.9-2,2-2h21c1.1,0,2,0.9,2,2v8.2L24.5,14L21.5,19
			L21.5,19L21.5,19z M24.5,16L31,27H18L24.5,16L24.5,16z M24,20v3h1v-3H24L24,20z M24,24v1h1v-1H24L24,24z"/>
	</g>
</g>
</svg>
