<svg xmlns="http://www.w3.org/2000/svg" viewBox="0 0 21 20.995" fill='#ffffff'>
  <path id="Path_343" data-name="Path 343" d="M10.495,14.764a4.269,4.269,0,1,1,4.269-4.269A4.269,4.269,0,0,1,10.495,14.764ZM20.919,5.321a6.987,6.987,0,0,0-.442-2.379,3.973,3.973,0,0,0-.955-1.474A3.911,3.911,0,0,0,18.047.513,7.118,7.118,0,0,0,15.669.071C14.322.015,13.915,0,10.495,0S6.673.015,5.321.076A7.115,7.115,0,0,0,2.948.513a3.973,3.973,0,0,0-1.474.955A3.911,3.911,0,0,0,.518,2.943,7.118,7.118,0,0,0,.076,5.321C.015,6.673,0,7.08,0,10.495s.015,3.822.076,5.174a6.987,6.987,0,0,0,.442,2.379,3.973,3.973,0,0,0,.955,1.474,3.911,3.911,0,0,0,1.474.955,7.118,7.118,0,0,0,2.379.442c1.352.061,1.753.076,5.174.076s3.822-.015,5.174-.076a6.987,6.987,0,0,0,2.379-.442,3.973,3.973,0,0,0,1.474-.955,3.911,3.911,0,0,0,.955-1.474,7.118,7.118,0,0,0,.442-2.379c.061-1.352.076-1.753.076-5.174S20.98,6.673,20.919,5.321ZM10.495,17.071a6.576,6.576,0,1,1,6.576-6.576A6.577,6.577,0,0,1,10.495,17.071ZM17.331,5.2a1.535,1.535,0,1,1,1.535-1.535A1.533,1.533,0,0,1,17.331,5.2Z"/>
</svg>
