<?xml version="1.0" encoding="utf-8"?>
<!-- Generator: Adobe Illustrator 21.0.0, SVG Export Plug-In . SVG Version: 6.00 Build 0)  -->
<svg version="1.1" id="Слой_1" xmlns="http://www.w3.org/2000/svg" xmlns:xlink="http://www.w3.org/1999/xlink" x="0px" y="0px"
	 viewBox="0 0 373.4 346" style="enable-background:new 0 0 373.4 346;" xml:space="preserve">
<style type="text/css">
	.st0{fill:#FFFFFF;}
</style>
<g>
	<path class="st0" d="M204.3,118.4h1.8v11.5h6v1.7h-7.8V118.4z"/>
	<path class="st0" d="M220.6,118.4v8.1c0,0.4,0.1,0.8,0.2,1.3c0.1,0.4,0.3,0.8,0.6,1.2c0.3,0.4,0.6,0.7,1,0.9
		c0.4,0.2,0.9,0.4,1.6,0.4s1.1-0.1,1.6-0.4c0.4-0.2,0.8-0.5,1-0.9c0.3-0.4,0.4-0.8,0.6-1.2c0.1-0.4,0.2-0.9,0.2-1.3v-8.1h1.8v8.3
		c0,0.8-0.1,1.5-0.4,2.1c-0.3,0.6-0.6,1.2-1.1,1.6s-1,0.8-1.6,1.1c-0.6,0.2-1.3,0.4-2,0.4s-1.4-0.1-2-0.4s-1.2-0.6-1.6-1.1
		c-0.4-0.5-0.8-1-1.1-1.6c-0.3-0.6-0.4-1.3-0.4-2.1v-8.3C219,118.4,220.6,118.4,220.6,118.4z"/>
	<path class="st0" d="M240.3,124.6l-4.4-6.2h2.3l3.4,5.1l3.4-5.1h2.2l-4.4,6.2l4.8,6.9h-2.3l-3.8-5.7l-3.8,5.7h-2.2L240.3,124.6z"/>
	<path class="st0" d="M256,118.4v8.1c0,0.4,0.1,0.8,0.2,1.3c0.1,0.4,0.3,0.8,0.6,1.2c0.3,0.4,0.6,0.7,1,0.9c0.4,0.2,0.9,0.4,1.6,0.4
		s1.1-0.1,1.6-0.4c0.4-0.2,0.8-0.5,1-0.9c0.3-0.4,0.4-0.8,0.6-1.2c0.1-0.4,0.2-0.9,0.2-1.3v-8.1h1.8v8.3c0,0.8-0.1,1.5-0.4,2.1
		c-0.3,0.6-0.6,1.2-1.1,1.6s-1,0.8-1.6,1.1c-0.6,0.2-1.3,0.4-2,0.4s-1.4-0.1-2-0.4s-1.2-0.6-1.6-1.1c-0.4-0.5-0.8-1-1.1-1.6
		c-0.3-0.6-0.4-1.3-0.4-2.1v-8.3C254.4,118.4,256,118.4,256,118.4z"/>
	<path class="st0" d="M272.7,118.4h4.6c0.8,0,1.5,0.1,2.1,0.3c0.5,0.2,1,0.5,1.3,0.9s0.5,0.7,0.7,1.2c0.1,0.4,0.2,0.9,0.2,1.3
		s-0.1,0.8-0.2,1.2c-0.1,0.4-0.4,0.7-0.6,1.1c-0.3,0.3-0.6,0.6-1,0.8s-0.9,0.3-1.3,0.4l3.7,6h-2.3l-3.3-5.8h-2v5.8h-1.8v-13.2H272.7
		z M274.5,124.2h2.3c0.3,0,0.7,0,1-0.1s0.6-0.2,0.9-0.3c0.3-0.1,0.5-0.4,0.6-0.6c0.2-0.3,0.2-0.6,0.2-1.1s-0.1-0.8-0.2-1.1
		c-0.2-0.3-0.4-0.5-0.6-0.6c-0.3-0.1-0.6-0.3-0.9-0.3s-0.7-0.1-1-0.1h-2.3V124.2z"/>
	<path class="st0" d="M292.4,125.9l-5-7.5h2.3l3.6,5.8l3.7-5.8h2.2l-5,7.5v5.6h-1.8L292.4,125.9L292.4,125.9z"/>
</g>
<g>
	<path class="st0" d="M203.6,142.3h4.6c0.8,0,1.5,0.1,2.1,0.3c0.5,0.2,1,0.5,1.3,0.9s0.5,0.7,0.7,1.2c0.1,0.4,0.2,0.9,0.2,1.3
		s-0.1,0.8-0.2,1.3c-0.1,0.4-0.3,0.8-0.7,1.2c-0.3,0.4-0.7,0.6-1.3,0.9c-0.5,0.2-1.2,0.3-2.1,0.3h-2.8v5.8h-1.8V142.3z M205.4,148.1
		h2.3c0.3,0,0.7,0,1-0.1s0.6-0.2,0.9-0.3c0.3-0.1,0.5-0.4,0.6-0.6c0.2-0.3,0.2-0.6,0.2-1.1s-0.1-0.8-0.2-1.1
		c-0.2-0.3-0.4-0.5-0.6-0.6c-0.3-0.1-0.6-0.3-0.9-0.3s-0.7-0.1-1-0.1h-2.3V148.1z"/>
	<path class="st0" d="M219.8,142.3h4.6c0.8,0,1.5,0.1,2.1,0.3c0.5,0.2,1,0.5,1.3,0.9s0.5,0.7,0.7,1.2c0.1,0.4,0.2,0.9,0.2,1.3
		c0,0.4-0.1,0.8-0.2,1.2c-0.1,0.4-0.4,0.7-0.6,1.1c-0.3,0.3-0.6,0.6-1,0.8s-0.9,0.3-1.3,0.4l3.7,6h-2.4l-3.3-5.8h-2v5.8h-1.8V142.3z
		 M221.6,148.1h2.3c0.3,0,0.7,0,1-0.1s0.6-0.2,0.9-0.3c0.3-0.1,0.5-0.4,0.6-0.6c0.2-0.3,0.2-0.6,0.2-1.1s-0.1-0.8-0.2-1.1
		c-0.2-0.3-0.4-0.5-0.6-0.6c-0.3-0.1-0.6-0.3-0.9-0.3s-0.7-0.1-1-0.1h-2.3V148.1z"/>
	<path class="st0" d="M242.3,155.7c-1,0-1.9-0.2-2.8-0.5c-0.8-0.4-1.6-0.8-2.2-1.5c-0.6-0.6-1.1-1.3-1.4-2.2
		c-0.3-0.8-0.5-1.8-0.5-2.7c0-1,0.2-1.9,0.5-2.7s0.8-1.6,1.4-2.2c0.6-0.6,1.3-1.1,2.2-1.5c0.8-0.4,1.8-0.5,2.8-0.5s1.9,0.2,2.8,0.5
		c0.8,0.4,1.6,0.8,2.2,1.5c0.6,0.6,1.1,1.4,1.4,2.2c0.3,0.8,0.5,1.8,0.5,2.7c0,1-0.2,1.9-0.5,2.7s-0.8,1.6-1.4,2.2
		c-0.6,0.6-1.3,1.1-2.2,1.5S243.3,155.7,242.3,155.7z M242.3,154.1c0.8,0,1.4-0.1,2-0.4s1.1-0.7,1.6-1.1c0.4-0.5,0.8-1,1-1.7
		s0.4-1.3,0.4-2s-0.1-1.4-0.4-2s-0.6-1.2-1-1.7s-1-0.8-1.6-1.1s-1.3-0.4-2-0.4c-0.8,0-1.4,0.1-2,0.4c-0.6,0.3-1.1,0.7-1.6,1.1
		c-0.4,0.5-0.8,1-1,1.7c-0.2,0.6-0.4,1.3-0.4,2s0.1,1.4,0.4,2c0.2,0.6,0.6,1.2,1,1.7s1,0.8,1.6,1.1
		C240.9,153.9,241.6,154.1,242.3,154.1z"/>
	<path class="st0" d="M256.6,142.3h4.6c0.9,0,1.7,0.1,2.4,0.3c0.7,0.2,1.3,0.5,1.8,0.8s0.9,0.8,1.3,1.2c0.3,0.5,0.6,0.9,0.8,1.4
		s0.3,1,0.4,1.4c0.1,0.5,0.1,0.9,0.1,1.3c0,0.8-0.2,1.7-0.5,2.4s-0.8,1.5-1.4,2.1s-1.4,1.1-2.3,1.5s-1.9,0.6-3.1,0.6h-4.3v-13H256.6
		z M258.4,153.7h2.2c0.8,0,1.5-0.1,2.1-0.3c0.7-0.2,1.3-0.5,1.8-0.9s0.9-0.9,1.2-1.5s0.4-1.3,0.4-2.1c0-0.4-0.1-0.9-0.2-1.5
		s-0.4-1.1-0.8-1.6s-0.9-0.9-1.6-1.3c-0.7-0.4-1.5-0.5-2.6-0.5h-2.7v9.7H258.4z"/>
	<path class="st0" d="M277.4,142.3v8.1c0,0.4,0.1,0.8,0.2,1.3c0.1,0.4,0.3,0.8,0.6,1.2c0.3,0.4,0.6,0.7,1,0.9s0.9,0.4,1.6,0.4
		s1.1-0.1,1.6-0.4c0.4-0.2,0.8-0.5,1-0.9c0.3-0.4,0.4-0.8,0.6-1.2c0.1-0.4,0.2-0.9,0.2-1.3v-8.1h1.8v8.3c0,0.8-0.1,1.5-0.4,2.1
		s-0.6,1.2-1.1,1.6s-1,0.8-1.6,1.1c-0.6,0.2-1.3,0.4-2,0.4s-1.4-0.1-2-0.4s-1.2-0.6-1.6-1.1s-0.8-1-1.1-1.6
		c-0.3-0.6-0.4-1.3-0.4-2.1v-8.3H277.4z"/>
	<path class="st0" d="M303.2,145.1c-0.4-0.5-0.8-0.9-1.4-1.1c-0.6-0.3-1.2-0.4-1.8-0.4c-0.7,0-1.4,0.1-2,0.4
		c-0.6,0.3-1.1,0.7-1.5,1.1c-0.4,0.5-0.8,1-1,1.7c-0.2,0.6-0.4,1.3-0.4,2.1c0,0.7,0.1,1.4,0.3,2c0.2,0.6,0.5,1.2,1,1.6
		c0.4,0.5,0.9,0.8,1.5,1.1s1.3,0.4,2.1,0.4c0.8,0,1.4-0.2,2-0.5s1.1-0.7,1.4-1.3l1.5,1.1c-0.1,0.1-0.3,0.3-0.5,0.6s-0.6,0.5-1,0.8
		s-0.9,0.5-1.5,0.7s-1.2,0.3-2,0.3c-1,0-2-0.2-2.8-0.6c-0.8-0.4-1.5-0.9-2.1-1.6c-0.6-0.6-1-1.4-1.3-2.2s-0.5-1.6-0.5-2.5
		c0-1,0.2-2,0.5-2.8c0.3-0.9,0.8-1.6,1.4-2.2c0.6-0.6,1.3-1.1,2.2-1.5c0.8-0.3,1.8-0.5,2.8-0.5c0.9,0,1.7,0.2,2.6,0.5
		c0.8,0.3,1.5,0.8,2.1,1.5L303.2,145.1z"/>
	<path class="st0" d="M315.1,143.9h-4.2v-1.7h10.3v1.7H317v11.5h-1.8L315.1,143.9L315.1,143.9z"/>
	<path class="st0" d="M328.1,142.3h1.8v13.2h-1.8V142.3z"/>
	<path class="st0" d="M344.5,155.7c-1,0-1.9-0.2-2.8-0.5c-0.8-0.4-1.6-0.8-2.2-1.5c-0.6-0.6-1.1-1.3-1.4-2.2
		c-0.3-0.8-0.5-1.8-0.5-2.7c0-1,0.2-1.9,0.5-2.7s0.8-1.6,1.4-2.2c0.6-0.6,1.3-1.1,2.2-1.5c0.8-0.4,1.8-0.5,2.8-0.5s1.9,0.2,2.8,0.5
		c0.8,0.4,1.6,0.8,2.2,1.5c0.6,0.6,1.1,1.4,1.4,2.2s0.5,1.8,0.5,2.7c0,1-0.2,1.9-0.5,2.7s-0.8,1.6-1.4,2.2c-0.6,0.6-1.3,1.1-2.2,1.5
		C346.4,155.6,345.5,155.7,344.5,155.7z M344.5,154.1c0.8,0,1.4-0.1,2-0.4s1.1-0.7,1.6-1.1c0.4-0.5,0.8-1,1-1.7s0.4-1.3,0.4-2
		s-0.1-1.4-0.4-2s-0.6-1.2-1-1.7s-1-0.8-1.6-1.1s-1.3-0.4-2-0.4c-0.8,0-1.4,0.1-2,0.4c-0.6,0.3-1.1,0.7-1.6,1.1
		c-0.4,0.5-0.8,1-1,1.7c-0.2,0.6-0.4,1.3-0.4,2s0.1,1.4,0.4,2c0.2,0.6,0.6,1.2,1,1.7s1,0.8,1.6,1.1
		C343.1,153.9,343.7,154.1,344.5,154.1z"/>
	<path class="st0" d="M359.1,142.3h2.3l7.2,10.8l0,0v-10.8h1.8v13.2h-2.3l-7.3-10.8l0,0v10.8H359L359.1,142.3L359.1,142.3z"/>
</g>
<g>
	<path class="st0" d="M186.9,3.4c0,19.5,0.1,39,0.1,58.5c0,52.3,0,104.7,0,157c0,1.9,0,3.8,0,5.7c-0.5,0.1-1,0.3-1.5,0.4
		c-0.7-1.1-1.4-2.1-2-3.2c-2.8-6.2-5-12.8-8.4-18.6c-11.9-20.8-42-16.8-52.7-5.1c-8.7,9.6-8.2,22.8,2.7,29.7
		c7.3,4.6,15.9,7.3,24.1,10.5c9.3,3.6,18.9,6.5,28,10.5c8.1,3.6,13.8,10,18.1,17.9c9.2,16.7,28.5,18.8,42.1,11.9
		c7.2-3.7,9.7-10.6,9.6-18.5c-0.1-7.7-4.1-13.2-10.8-16.1c-7.8-3.3-16-5.4-24-8.3c-8-2.8-15.6-6.3-18.5-15.3
		c-6.2-19.4,11.4-38.1,32.6-34.6c3.2,0.5,6.5,1.6,9.5,2.9c4,1.7,7.7,3.1,11.9-1.4c0,8.5,0,16.1,0,23.6c-0.2,0.1-0.5,0.2-0.7,0.3
		c-0.7-1.8-1.4-3.7-2.1-5.5c-5.6-15.7-18.6-22.1-33.6-16.4c-6.6,2.5-10.8,7.1-11.5,14.3c-0.7,7.6,2.9,13.2,9.6,15.9
		c9.2,3.8,18.7,6.8,28.2,9.8c10.4,3.3,18.6,8.7,19.5,20.6c1,12.8-4.2,22.9-15.4,29.1c-12.2,6.8-25,5.4-37.8,1.6
		c-1.9-0.6-3.7-1.1-6-1.7c0,14.2-5,25.7-15.3,34.5c-15.3,13-33.2,15.2-52.2,11.3c-6-1.2-12-2.9-17.9-4.5c-4.6-1.3-7.9-0.4-11.2,3.7
		c-13.5,16.8-31.7,22.3-52.3,19.1c-20.1-3.1-34.7-14.4-41.4-34c-10.7-31.4,7.7-64.4,42.9-69.7c1.6-0.2,3.2-0.5,5.2-0.8
		c0-78.6,0-156.9,0-235.2c8.3,0,16.7,0,25,0c0.3,0.8,0.8,1.5,1,2.3c12.2,35.6,24.5,71.2,36.7,106.7c1,2.8,2,5.6,3.5,9.6
		C136,81.4,149.5,42.4,162.9,3.4C170.9,3.4,178.9,3.4,186.9,3.4z M112.6,158.6c-0.4,0-0.8-0.1-1.1-0.1c-17-49-34.1-98.1-51.1-147.1
		c-0.3,0.1-0.6,0.2-0.9,0.2c0,75.5,0,151,0,226.9c1.8,0.2,3.4,0.5,5,0.6c31.6,2.9,52.7,29.9,47.6,61.1c-0.6,3.9,0,6.8,2.8,9.4
		c2.2,2.1,4.1,4.3,6.4,6.3c12.4,10.4,35.4,10.9,48.2,1.3c17-12.9,14.4-35.4-5.1-43.6c-2.7-1.2-5.6-2.1-8.4-3.1
		c-10.2-3.4-20.8-6.2-30.7-10.4c-26.8-11.5-31.2-44.9-8.7-63.3c12.3-10,26.5-12.5,41.9-10.1c2,0.3,4.1,0.3,6.3,0.4
		c0-59.2,0-117.8,0-176.4c-0.3,0-0.6-0.1-0.8-0.1C146.7,59.9,129.7,109.2,112.6,158.6z M58.4,259.5C41,259.6,28,273.4,28.1,291.7
		c0.1,18,13.6,31.6,31,31.6c17.4,0,30.6-14,30.3-32.1C89.2,273,75.8,259.4,58.4,259.5z"/>
</g>
</svg>
