<?xml version="1.0" encoding="utf-8"?>
<!-- Generator: Adobe Illustrator 21.0.0, SVG Export Plug-In . SVG Version: 6.00 Build 0)  -->
<svg version="1.1" id="Layer_1" xmlns="http://www.w3.org/2000/svg" xmlns:xlink="http://www.w3.org/1999/xlink" x="0px" y="0px" viewBox="0 0 32 32" style="enable-background:new 0 0 32 32;" xml:space="preserve">
<g>
	<path d="M30,16c0-0.6-0.5-1-1-1H5.4L15.5,4.7c0.4-0.4,0.4-1,0-1.4s-1-0.4-1.4,0l-11.8,12C2,15.6,1.9,16,2.1,16.4
		C2.2,16.8,2.6,17,3,17h26C29.6,17,30,16.6,30,16z"/>
	<path d="M15.5,28.7c0.4-0.4,0.4-1,0-1.4l-7.9-8c-0.4-0.4-1-0.4-1.4,0s-0.4,1,0,1.4l7.9,8c0.2,0.2,0.4,0.3,0.7,0.3
		C15,29,15.3,28.9,15.5,28.7z"/>
</g>
</svg>
