<svg width="13" height="7" viewBox="0 0 13 7" fill="none" xmlns="http://www.w3.org/2000/svg">
<path d="M1.08116 -2.36556e-07C1.19405 -2.36556e-07 1.29392 0.0400914 1.38076 0.120275L6.5 4.84708L11.6192 0.120275C11.7061 0.0400914 11.8059 -2.36556e-07 11.9188 -2.36556e-07C12.0317 -2.36556e-07 12.1316 0.0400914 12.2184 0.120275L12.8697 0.721649C12.9566 0.801833 13 0.894043 13 0.998282C13 1.10252 12.9566 1.19473 12.8697 1.27491L6.7996 6.87973C6.71276 6.95991 6.61289 7 6.5 7C6.38711 7 6.28724 6.95991 6.2004 6.87973L0.130261 1.27491C0.0434202 1.19473 0 1.10252 0 0.998282C0 0.894043 0.0434202 0.801833 0.130261 0.721649L0.781563 0.120275C0.868403 0.0400914 0.96827 -2.36556e-07 1.08116 -2.36556e-07Z" fill="#D20062"/>
</svg>
