<?xml version="1.0" encoding="utf-8"?>
<!-- Generator: Adobe Illustrator 21.0.0, SVG Export Plug-In . SVG Version: 6.00 Build 0)  -->
<svg version="1.1" id="Слой_1" xmlns="http://www.w3.org/2000/svg" xmlns:xlink="http://www.w3.org/1999/xlink" x="0px" y="0px"
	 viewBox="0 0 1990 1870" style="enable-background:new 0 0 1990 1870;" xml:space="preserve">
<style type="text/css">
	.st0{display:none;fill:#FFFFFF;}
	.st1{fill:#FFFFFF;}
</style>
<g>
	<path class="st0" d="M1990,1870c-663.3,0-1326.7,0-1990,0C0,1246.7,0,623.3,0,0c663.3,0,1326.7,0,1990,0
		C1990,623.3,1990,1246.7,1990,1870z M998.6,1213.8c0-404.8,0-808.7,0-1212.4c-0.7-0.3-1-0.5-1.3-0.5c-42.8,0-85.7-0.1-128.5,0
		c-1.2,0-3.1,1.7-3.6,3c-5.1,13.3-10.2,26.6-14.9,40c-24.4,70.7-48.7,141.5-73.1,212.3C732.8,385.3,688.4,514.5,644,643.6
		c-0.5,1.5-1.2,2.9-1.7,4.3c-0.4,0-0.9,0-1.3,0c-0.7-1.6-1.4-3.1-1.9-4.7C611.7,563.6,584.4,484,557,404.4
		C511.3,271.5,465.6,138.6,420,5.7c-1.3-3.7-2.7-5.1-6.9-5.1c-42.2,0.2-84.3,0.1-126.5,0.1c-1.8,0-3.6,0-6,0
		c0,430.1,0,859.6,0,1289.4c-7.4,0.6-14.2,1.1-21,1.9c-6.8,0.8-13.5,1.7-20.3,3c-71.7,13.3-131.9,46.8-177.1,104.3
		C4,1473.2-12.3,1557.2,8.9,1647.7c20.2,86,71.8,148.6,151.2,187.4c59.6,29.1,122.9,36.5,188,25.9c80-13.1,144.4-52.3,192-118.3
		c3.8-5.3,8.7-8.5,15-9.8c10.4-2.1,20.5-0.7,30.6,1.8c36.2,9,72.2,18.3,108.5,26.7c53.5,12.5,107.1,11.9,160.4-1
		c41.5-10,79.3-28.3,112.4-55.3c53.7-43.8,84.8-99.9,90.1-169.6c0.6-8.4,0.1-16.9,0.1-26.5c8.2,2.3,15.2,3.8,21.8,6.3
		c48.7,18.6,99.1,24.7,150.7,18.5c45.9-5.5,84.9-25.6,115.1-61c25-29.3,37.3-63.8,38.6-102.2c1.1-30.8-5.5-59.1-25.9-83.3
		c-16.7-20-37.6-34-62-42.2c-40.5-13.6-81.4-26.2-122.1-39.2c-21.4-6.9-42.8-13.9-62-26c-15.4-9.7-28.4-21.9-35.7-38.7
		c-13.7-31.4-10.5-80.4,30.7-109.3c19.1-13.4,40.5-19.8,63.3-22.5c39-4.7,74.1,4.2,103.7,31c20.7,18.7,33.7,42.3,42.2,68.5
		c3.5,10.7,6,21.7,8.9,32.7c2.5,0,5.1,0,7.9,0c0-43.6,0-87,0-130.1c-6.9-2-11.4,0-14.3,6.4c-2.2,4.8-6.2,7.9-11.8,8
		c-4.5,0.1-9.3,0.7-13.4-0.7c-11-3.7-21.6-8.7-32.5-12.5c-14.2-4.9-28.4-10.8-43.1-13.4c-21.6-3.9-43.4-3.3-65.2,1.7
		c-37.3,8.6-69.3,25.4-92.7,56.3c-22.7,29.9-31.5,64.2-29.6,101.4c1.4,26.7,9.8,50.6,29,69.8c15.6,15.7,34,27.6,54.6,35.3
		c25.7,9.6,51.9,17.6,78,26.2c24.5,8,49.8,13.5,73.1,25c23.1,11.4,42.2,27.4,53.9,50.9c11,22,11.2,45.3,6.4,68.8
		c-9.2,44.5-36.1,73.2-79.5,85.3c-31,8.6-62.8,6.9-94.2,2.3c-22.6-3.3-43.5-11.4-60.4-27.5c-9.2-8.7-18.5-17.3-27.3-26.4
		c-9-9.1-18-18.3-21.8-31.2c-0.7-2.3-2.2-4.5-3.4-6.7c-23.1-42.6-58.7-71.9-101.9-91.5c-28.2-12.8-57.7-23.1-87.1-33.3
		c-31.6-11-63.6-20.6-95.5-30.6c-30.1-9.5-59.3-20.9-85.9-38.1c-17.9-11.6-34.6-25.1-44.4-44.4c-19.1-37.7-15.2-74.5,8.1-109.1
		c21-31.2,51.5-49.6,86.9-60.4c30.8-9.3,62.3-10.4,94-7c37.4,4.1,69.7,19.1,96.2,46c21.5,21.8,36.8,47.7,48.2,75.8
		c9.6,23.7,18,47.9,27.1,71.9c0.6,1.5,2.2,3.5,3.5,3.7C990.9,1214.2,994.6,1213.8,998.6,1213.8z M1936.7,775.2
		c0.4-0.1,0.8-0.1,1.1-0.2c11.5,17.1,23.3,34.1,34.4,51.4c3.2,5,6.8,5.1,11.5,4.2c0-22.3,0-44.2,0-66.2c-2.3,0-4.3,0-6.8,0
		c0,18.6,0,36.8,0,56.3c-1.9-2.6-3.1-4.1-4.1-5.7c-10.3-15.1-20.7-30.2-30.7-45.5c-3.1-4.7-6.4-6.7-11.9-4.8c0,22,0,44.1,0,66.1
		c2.2,0,4.1,0,6.5,0C1936.7,812,1936.7,793.6,1936.7,775.2z M1304,833c19.7,0,34.5-14.8,34.6-34.8c0.1-20.1-14.8-35.2-34.8-35.2
		c-19.7,0-34.6,14.9-34.7,34.8C1269.1,817.9,1284.1,833,1304,833z M1849.8,833c20,0,34.9-15,34.9-35.1c-0.1-20-14.8-34.9-34.6-34.9
		c-20,0-35,15-34.9,35.1C1815.3,818,1830.1,833,1849.8,833z M1384.2,831.4c10.4-0.5,20.3-0.1,29.9-1.6c15.5-2.4,26.1-15.1,26.8-30.4
		c0.8-15.9-8.1-29.7-23.6-33.3c-10.6-2.4-21.9-2-33.1-2.9C1384.2,786.6,1384.2,808.5,1384.2,831.4z M1464.3,638.6
		c0,22.1,0,44.1,0,66.2c2.2,0,4,0,6.4,0c0-10.2,0-20.3,0-30.2c7.5-2,12.4-0.6,15.7,6.6c3,6.6,7.7,12.5,10.9,19c2.4,5,5.9,5.3,11,4.3
		c-6.4-10.5-12.6-20.7-18.8-31.1c1.2-0.5,2.2-0.8,3.1-1.1c9.5-2.8,14-8.8,13.5-18.3c-0.4-8.5-5.8-14.4-15.5-15.3
		C1482,638,1473.3,638.6,1464.3,638.6z M1186.3,764.6c0,22,0,44.1,0,66.4c2.3-0.1,4.2-0.2,6.5-0.3c0-10.4,0-20.3,0-30.2
		c10.5-1.5,10.5-1.5,15.4,6.8c3.8,6.3,7.9,12.4,11.1,18.9c2.4,5,5.9,5.4,11,4.3c-6.4-10.5-12.5-20.7-18.8-31.1
		c1.2-0.5,2.1-0.9,3.1-1.1c9.5-2.8,14-8.8,13.5-18.2c-0.4-8.5-5.7-14.4-15.5-15.3C1204,764,1195.3,764.6,1186.3,764.6z
		 M1296.5,674.9c5.9,8.7,11.7,16.8,16.9,25.3c2.8,4.6,6.1,5.8,11.3,4.3c-1.3-2-2.5-3.8-3.7-5.6c-6-8.6-11.9-17.3-18.1-25.8
		c-1.8-2.4-1.7-4.1,0-6.5c5.3-7.3,10.3-14.7,15.4-22.1c1.4-2,2.7-3.9,4.3-6.2c-7.7-0.5-7.7-0.5-11.3,4.9
		c-4.8,7.2-9.6,14.3-14.7,21.9c-5.4-7.9-10.7-15.2-15.3-22.9c-2.8-4.7-6.2-4.7-11-3.6c7.4,10.6,14.5,20.8,21.8,31.2
		c-8,11.6-15.9,23-24,34.7c7.6,1.1,7.6,1.1,11.4-4.4C1285.2,691.7,1290.7,683.5,1296.5,674.9z M1177,638.2c0,16.5-0.6,32.4,0.2,48.3
		c0.5,10.5,8,17.8,17.5,19.9c17.7,3.8,31-6.4,31.4-24.5c0.3-13.8,0.1-27.6,0.1-41.5c0-0.8-0.3-1.5-0.5-2.2c-2.1,0-3.8,0-6.1,0
		c0,2.1,0,3.8,0,5.6c0,11.3,0.1,22.6-0.1,34c-0.1,3.8-0.5,7.7-1.5,11.3c-2.3,7.7-8.3,11.8-16.5,11.8c-8.3,0-14.2-3.9-16.6-11.7
		c-1.1-3.6-1.6-7.5-1.6-11.3c-0.2-11.5-0.1-23-0.1-34.5c0-1.8,0-3.5,0-5.4C1180.7,638.2,1178.9,638.2,1177,638.2z M1484.8,764.2
		c-0.1,1-0.4,1.8-0.4,2.6c0.1,14.5-0.3,29,0.5,43.4c0.8,14.8,10.6,23,25.5,22.8c13.7-0.2,23.1-9.4,23.6-23.8
		c0.4-11.5,0.1-23,0.2-34.5c0-3.4,0-6.9,0-10.4c-2.5,0-4.4,0-6.6,0c0,12.1,0.1,23.9,0,35.8c0,4-0.1,8-0.7,11.9
		c-1.5,9.3-8.1,14.9-17.1,15c-9.5,0.1-16.1-5.2-17.7-14.8c-0.7-4.1-0.8-8.3-0.8-12.4c-0.1-11.8,0-23.5,0-35.5
		C1488.8,764.2,1486.8,764.2,1484.8,764.2z M1365.9,638.2c0,15.8-0.6,31.4,0.2,47c0.7,13.2,10.2,21.5,22.8,21.8
		c14.5,0.4,24.7-6.9,25.7-20.8c1.2-15.8,0.3-31.8,0.3-47.9c-2,0-3.9,0-6.2,0c0,13.3,0.1,26.2-0.1,39.2c0,3.6-0.4,7.4-1.3,10.8
		c-2.3,8.5-8.6,12.8-17.4,12.6c-8.3-0.2-14.5-5-16.5-13.3c-0.8-3.2-1-6.6-1.1-9.9c-0.1-11.5,0-23,0-34.5c0-1.7,0-3.5,0-5.2
		C1369.6,638.2,1367.8,638.2,1365.9,638.2z M1101.3,763.6c0,23.1,0,45.1,0,67.4c2.3-0.1,4.2-0.2,6.5-0.3c0-10.4,0-20.3,0-30.7
		c3.7,0,7,0.1,10.3,0c3.3-0.2,6.7-0.3,9.9-1c9.2-2,14.2-8.3,14.1-17.3s-5.1-15.4-14.6-16.7C1119,763.9,1110.3,764,1101.3,763.6z
		 M1632.3,777.6c1.9-1.4,3.5-2.7,5.1-3.9c-7.5-9.9-23.2-13.4-36.3-8.4c-14.4,5.5-23.3,20-21.8,35.7c1.6,16.8,12,28.6,27.8,31.5
		c13.3,2.4,26.5-2.7,31.2-12.2c-1.5-0.9-3-1.9-4.5-2.8c-12.1,14.4-30.3,10.3-38.4,2.5c-11.5-11.1-12-31.4-1-43
		C1602.4,768.6,1620,764.2,1632.3,777.6z M1597.3,638.5c-5.7-1.7-8.5,0.4-11,4.8c-5.1,9.1-10.9,17.8-16.8,27.1
		c-5.8-9.5-11.6-18.2-16.7-27.4c-2.7-4.8-5.9-6-11.2-4.5c0.7,1.2,1.3,2.3,2,3.4c6.4,9.9,13.1,19.7,19.2,29.8c1.8,2.9,2.8,6.7,3,10.1
		c0.4,7.6,0.1,15.2,0.1,22.9c2.5,0,4.4,0,6.7,0c0-7.4,0.3-14.6-0.1-21.7c-0.2-4.9,1.2-8.9,3.9-13
		C1583.6,659.8,1590.2,649.3,1597.3,638.5z M1701.1,769.8c7.8,0,14.9,0,22.1,0c0-2.1,0-3.7,0-5.5c-17.1,0-34,0-50.8,0
		c0,2,0,3.6,0,5.7c7.3,0,14.4,0,22.1,0c0,20.6,0,40.6,0,60.7c2.5,0,4.4,0,6.7,0C1701.1,810.5,1701.1,790.5,1701.1,769.8z
		 M1107.4,699c0-20.8,0-40.8,0-60.7c-2.5,0-4.4,0-6.1,0c0,22.4,0,44.4,0,66.3c12.6,0,24.8,0,37.3,0c-0.1-2-0.2-3.6-0.3-5.6
		C1128.2,699,1118.3,699,1107.4,699z M1765.2,764.2c0,22.3,0,44.4,0,66.5c2.2,0,4.1,0,6.2,0c0-22.3,0-44.3,0-66.5
		C1769.3,764.2,1767.5,764.2,1765.2,764.2z"/>
	<path class="st1" d="M998.6,1213.8c-4,0-7.7,0.4-11.2-0.2c-1.4-0.2-3-2.2-3.5-3.7c-9.1-23.9-17.5-48.2-27.1-71.9
		c-11.4-28.1-26.7-54-48.2-75.8c-26.5-26.9-58.8-42-96.2-46c-31.7-3.4-63.3-2.4-94,7c-35.4,10.7-65.8,29.2-86.9,60.4
		c-23.3,34.6-27.3,71.5-8.1,109.1c9.8,19.3,26.5,32.8,44.4,44.4c26.6,17.2,55.8,28.7,85.9,38.1c31.9,10,63.9,19.7,95.5,30.6
		c29.3,10.2,58.8,20.5,87.1,33.3c43.3,19.6,78.8,48.9,101.9,91.5c1.2,2.2,2.7,4.3,3.4,6.7c3.8,12.9,12.9,22,21.8,31.2
		c8.9,9,18.1,17.7,27.3,26.4c17,16.1,37.9,24.1,60.4,27.5c31.4,4.7,63.2,6.4,94.2-2.3c43.5-12.1,70.3-40.8,79.5-85.3
		c4.9-23.5,4.6-46.8-6.4-68.8c-11.7-23.4-30.7-39.4-53.9-50.9c-23.3-11.5-48.6-17-73.1-25c-26.1-8.6-52.3-16.6-78-26.2
		c-20.5-7.7-39-19.6-54.6-35.3c-19.1-19.3-27.6-43.1-29-69.8c-1.9-37.2,6.8-71.4,29.6-101.4c23.5-30.9,55.4-47.7,92.7-56.3
		c21.8-5,43.6-5.6,65.2-1.7c14.7,2.6,28.9,8.5,43.1,13.4c11,3.8,21.5,8.8,32.5,12.5c4.1,1.4,8.9,0.8,13.4,0.7
		c5.5-0.1,9.6-3.2,11.8-8c2.9-6.4,7.5-8.3,14.3-6.4c0,43.1,0,86.5,0,130.1c-2.8,0-5.4,0-7.9,0c-3-11-5.4-22-8.9-32.7
		c-8.5-26.2-21.6-49.8-42.2-68.5c-29.6-26.8-64.7-35.6-103.7-31c-22.8,2.7-44.2,9.2-63.3,22.5c-41.2,29-44.4,77.9-30.7,109.3
		c7.4,16.9,20.3,29,35.7,38.7c19.2,12.1,40.6,19.1,62,26c40.7,13.1,81.5,25.6,122.1,39.2c24.4,8.2,45.3,22.2,62,42.2
		c20.3,24.2,26.9,52.6,25.9,83.3c-1.3,38.4-13.6,72.9-38.6,102.2c-30.2,35.4-69.2,55.4-115.1,61c-51.6,6.2-101.9,0.1-150.7-18.5
		c-6.6-2.5-13.7-4-21.8-6.3c0,9.6,0.6,18.1-0.1,26.5c-5.3,69.6-36.4,125.8-90.1,169.6c-33.1,27-70.9,45.3-112.4,55.3
		c-53.3,12.8-106.9,13.5-160.4,1c-36.3-8.5-72.4-17.8-108.5-26.7c-10.1-2.5-20.2-3.9-30.6-1.8c-6.4,1.3-11.2,4.6-15,9.8
		c-47.6,66-112,105.2-192,118.3c-65.1,10.6-128.4,3.3-188-25.9c-79.4-38.8-131-101.4-151.2-187.4c-21.3-90.5-4.9-174.5,53.2-248.3
		c45.3-57.5,105.4-91,177.1-104.3c6.7-1.2,13.5-2.2,20.3-3s13.6-1.2,21-1.9c0-429.8,0-859.3,0-1289.4c2.4,0,4.2,0,6,0
		c42.2,0,84.3,0.1,126.5-0.1c4.2,0,5.7,1.4,6.9,5.1c45.6,132.9,91.3,265.8,137,398.7c27.4,79.6,54.7,159.2,82.1,238.8
		c0.5,1.6,1.3,3.1,1.9,4.7c0.4,0,0.9,0,1.3,0c0.6-1.4,1.2-2.9,1.7-4.3c44.4-129.1,88.8-258.3,133.2-387.4
		c24.3-70.8,48.6-141.6,73.1-212.3c4.6-13.5,9.8-26.7,14.9-40c0.5-1.3,2.4-2.9,3.6-3c42.8-0.1,85.7-0.1,128.5,0
		c0.3,0,0.6,0.2,1.3,0.5C998.6,405.1,998.6,809,998.6,1213.8z M877.7,25.1c-0.6-0.1-1.1-0.3-1.7-0.4
		c-97.7,277-191.8,555.3-288.7,833.8C491.8,583.3,396.7,309.1,301.6,34.9c-0.2-0.6-0.8-1-1.3-1.5c-0.1-0.1-0.3-0.1-0.5,0
		c-0.2,0-0.3,0.1-0.7,0.2c0,418.6,0,837.3,0,1255.5c18.1,2,35.9,3.1,53.4,6c59.6,10,112.3,35,154.8,78.2
		c75.3,76.6,97.9,168.7,76.1,272.7c-0.8,3.8-0.4,6.6,1.8,9.7c15.2,22.4,33.9,41.6,55,58.4c28.7,22.8,61.1,37.5,97.9,40
		c21.7,1.5,43.6,0.7,65.4,0c18.4-0.6,36.5-4.2,53.6-10.8c65.8-25,101.4-78.4,104.9-145.1c1.6-30.2-7.3-57.1-29-79.2
		c-15.9-16.2-34.7-27.8-55.1-37.3c-27.4-12.8-56.6-20.3-85.4-28.9c-41.4-12.4-83.1-24-123-41c-32.4-13.8-61.9-31.9-86-57.8
		c-30.5-32.9-45.8-72.2-49.3-116.8c-3.6-45.4,5.4-87.3,30.3-125.7c23-35.4,53.9-61.7,91.1-81.2c36.9-19.4,76.4-28.8,117.6-31.3
		c12.6-0.8,25.5,0.6,38.2,1.9c11.7,1.2,23.3,3.5,35,5.4c10.5,1.7,21,1.6,31.3,0.3C877.7,679.1,877.7,352.1,877.7,25.1z
		 M463.6,1573.4c-0.6-5.8-1.1-16.1-2.7-26.3c-6.9-41.7-25.5-77.3-57.8-104.9c-35.7-30.4-77.4-42.5-123.8-38.4
		c-46.5,4.1-84.6,24.4-113.5,61.1c-21.5,27.3-33,58.7-36.3,93.1c-3.5,36.6,2,71.9,19.6,104.5c27.9,51.9,71.3,82.3,130.1,88.5
		c54.3,5.7,101.5-10.6,138.9-51.1C449.6,1665.7,462.9,1624.1,463.6,1573.4z"/>
	<path class="st1" d="M1936.7,775.2c0,18.4,0,36.8,0,55.5c-2.4,0-4.3,0-6.5,0c0-22.1,0-44.1,0-66.1c5.5-1.8,8.8,0.1,11.9,4.8
		c10,15.3,20.4,30.4,30.7,45.5c1.1,1.6,2.2,3.1,4.1,5.7c0-19.5,0-37.7,0-56.3c2.5,0,4.5,0,6.8,0c0,22,0,43.9,0,66.2
		c-4.7,0.9-8.3,0.9-11.5-4.2c-11.1-17.3-22.9-34.3-34.4-51.4C1937.5,775.1,1937.1,775.1,1936.7,775.2z"/>
	<path class="st1" d="M1304,833c-20,0-35-15.1-34.8-35.2c0.1-19.9,15-34.8,34.7-34.8c20,0,34.9,15.1,34.8,35.2
		C1338.6,818.2,1323.8,833,1304,833z M1304.3,769c-16.1-0.1-27.8,12-27.9,28.8c-0.1,16.5,11.4,29,27,29.2
		c16.4,0.2,28.2-12.1,28.2-29C1331.5,781.4,1319.9,769.1,1304.3,769z"/>
	<path class="st1" d="M1849.8,833c-19.7,0-34.5-15-34.6-34.9c-0.1-20,14.9-35.1,34.9-35.1c19.7,0,34.5,15,34.6,34.9
		C1884.7,818,1869.8,833,1849.8,833z M1850,827c16,0,27.7-12.4,27.6-29.2c-0.1-16.6-11.7-28.8-27.4-28.8
		c-16-0.1-27.7,12.2-27.8,28.9C1822.3,814.7,1834,827,1850,827z"/>
	<path class="st1" d="M1384.2,831.4c0-22.9,0-44.9,0-68.2c11.2,0.9,22.5,0.4,33.1,2.9c15.6,3.6,24.5,17.4,23.6,33.3
		c-0.8,15.4-11.4,28-26.8,30.4C1404.5,831.4,1394.6,831,1384.2,831.4z M1391.1,770.5c0,18.2,0,36.2,0,54.5c5.9,0,11.4,0.3,16.8-0.1
		c14.7-1.1,25.2-11.9,25.9-26.1c0.7-14.3-8.7-26-23.5-28.1C1404.2,769.7,1397.8,770.5,1391.1,770.5z"/>
	<path class="st1" d="M1464.3,638.6c9,0,17.7-0.6,26.2,0.2c9.8,0.9,15.1,6.8,15.5,15.3c0.5,9.4-4,15.5-13.5,18.3
		c-0.9,0.3-1.8,0.7-3.1,1.1c6.3,10.4,12.5,20.6,18.8,31.1c-5.1,1-8.5,0.7-11-4.3c-3.2-6.6-8-12.4-10.9-19c-3.3-7.3-8.2-8.6-15.7-6.6
		c0,9.9,0,20,0,30.2c-2.4,0-4.2,0-6.4,0C1464.3,682.8,1464.3,660.7,1464.3,638.6z M1471,668.4c6.8-0.5,13.3-0.5,19.6-1.6
		c6.1-1.1,8.8-5.2,8.8-10.9s-2.9-9.8-8.9-10.8c-6.3-1.1-12.7-1-19.4-1.4C1471,652.1,1471,659.7,1471,668.4z"/>
	<path class="st1" d="M1186.3,764.6c9,0,17.7-0.6,26.3,0.2c9.7,0.9,15,6.8,15.5,15.3c0.5,9.4-4,15.5-13.5,18.2
		c-0.9,0.3-1.8,0.7-3.1,1.1c6.3,10.4,12.5,20.6,18.8,31.1c-5.1,1.1-8.5,0.6-11-4.3c-3.2-6.5-7.4-12.7-11.1-18.9
		c-4.9-8.3-4.9-8.3-15.4-6.8c0,9.8,0,19.8,0,30.2c-2.3,0.1-4.2,0.2-6.5,0.3C1186.3,808.7,1186.3,786.7,1186.3,764.6z M1192.7,794.4
		c6.9-0.4,13-0.3,19-1.3c6.8-1.1,9.7-5.2,9.6-11.3c-0.1-6-3.3-10.2-10-11c-6-0.7-12.1-0.2-18.4-0.2c-0.1,1.5-0.2,2.9-0.2,4.4
		C1192.7,781.1,1192.7,787.2,1192.7,794.4z"/>
	<path class="st1" d="M1296.5,674.9c-5.8,8.6-11.3,16.9-16.9,25.1c-3.7,5.6-3.7,5.6-11.4,4.4c8-11.6,15.9-23.1,24-34.7
		c-7.3-10.4-14.4-20.6-21.8-31.2c4.7-1.2,8.2-1.2,11,3.6c4.6,7.7,9.9,15,15.3,22.9c5.1-7.5,9.9-14.7,14.7-21.9
		c3.6-5.4,3.6-5.4,11.3-4.9c-1.6,2.3-2.9,4.3-4.3,6.2c-5.1,7.4-10.1,14.8-15.4,22.1c-1.7,2.4-1.8,4.1,0,6.5
		c6.2,8.5,12.1,17.2,18.1,25.8c1.2,1.7,2.4,3.5,3.7,5.6c-5.2,1.5-8.5,0.4-11.3-4.3C1308.2,691.7,1302.4,683.6,1296.5,674.9z"/>
	<path class="st1" d="M1177,638.2c1.9,0,3.7,0,6.2,0c0,1.9,0,3.6,0,5.4c0,11.5-0.1,23,0.1,34.5c0.1,3.8,0.5,7.7,1.6,11.3
		c2.4,7.8,8.3,11.7,16.6,11.7c8.2,0,14.2-4.1,16.5-11.8c1.1-3.6,1.5-7.5,1.5-11.3c0.2-11.3,0.1-22.6,0.1-34c0-1.8,0-3.6,0-5.6
		c2.3,0,4.1,0,6.1,0c0.1,0.7,0.5,1.4,0.5,2.2c0,13.8,0.3,27.6-0.1,41.5c-0.4,18.1-13.7,28.3-31.4,24.5c-9.5-2-17-9.4-17.5-19.9
		C1176.5,670.6,1177,654.6,1177,638.2z"/>
	<path class="st1" d="M1484.8,764.2c2.1,0,4,0,6.5,0c0,12-0.1,23.8,0,35.5c0,4.1,0.1,8.3,0.8,12.4c1.6,9.6,8.2,14.9,17.7,14.8
		c9-0.1,15.6-5.7,17.1-15c0.6-3.9,0.7-8,0.7-11.9c0.1-11.8,0-23.6,0-35.8c2.2,0,4.1,0,6.6,0c0,3.5,0,6.9,0,10.4
		c0,11.5,0.3,23-0.2,34.5c-0.6,14.5-9.9,23.6-23.6,23.8c-14.9,0.2-24.7-8-25.5-22.8c-0.8-14.4-0.4-28.9-0.5-43.4
		C1484.4,766,1484.6,765.2,1484.8,764.2z"/>
	<path class="st1" d="M1365.9,638.2c1.9,0,3.7,0,6.3,0c0,1.7,0,3.4,0,5.2c0,11.5-0.1,23,0,34.5c0,3.3,0.3,6.7,1.1,9.9
		c2,8.3,8.1,13.1,16.5,13.3c8.9,0.2,15.1-4.1,17.4-12.6c0.9-3.5,1.3-7.2,1.3-10.8c0.2-13,0.1-25.9,0.1-39.2c2.3,0,4.2,0,6.2,0
		c0,16.1,0.9,32.1-0.3,47.9c-1,13.9-11.2,21.1-25.7,20.8c-12.6-0.3-22.1-8.6-22.8-21.8C1365.3,669.6,1365.9,654,1365.9,638.2z"/>
	<path class="st1" d="M1101.3,763.6c9,0.4,17.7,0.3,26.2,1.4c9.5,1.3,14.5,7.7,14.6,16.7s-4.9,15.3-14.1,17.3
		c-3.2,0.7-6.6,0.8-9.9,1s-6.6,0-10.3,0c0,10.4,0,20.3,0,30.7c-2.3,0.1-4.2,0.2-6.5,0.3C1101.3,808.7,1101.3,786.7,1101.3,763.6z
		 M1108,794.4c6.5-0.5,12.7-0.4,18.6-1.5c6.1-1.1,8.6-5.1,8.6-11.1s-2.5-9.7-8.8-10.8c-5.9-1-12.1-1-18.4-1.4
		C1108,778.1,1108,785.7,1108,794.4z"/>
	<path class="st1" d="M1632.3,777.6c-12.2-13.4-29.9-8.9-37.9-0.6c-11,11.5-10.5,31.8,1,43c8.1,7.8,26.3,12,38.4-2.5
		c1.5,0.9,3,1.8,4.5,2.8c-4.7,9.5-17.8,14.6-31.2,12.2c-15.8-2.9-26.2-14.6-27.8-31.5c-1.5-15.7,7.4-30.2,21.8-35.7
		c13-5,28.7-1.5,36.3,8.4C1635.8,774.9,1634.1,776.1,1632.3,777.6z"/>
	<path class="st1" d="M1597.3,638.5c-7,10.8-13.7,21.3-20.7,31.6c-2.7,4-4.2,8-3.9,13c0.4,7.1,0.1,14.3,0.1,21.7c-2.4,0-4.3,0-6.7,0
		c0-7.7,0.3-15.3-0.1-22.9c-0.2-3.4-1.2-7.2-3-10.1c-6.1-10.1-12.8-19.9-19.2-29.8c-0.7-1.1-1.3-2.2-2-3.4c5.2-1.5,8.5-0.2,11.2,4.5
		c5.1,9.1,10.9,17.9,16.7,27.4c5.8-9.4,11.6-18.1,16.8-27.1C1588.7,638.9,1591.6,636.8,1597.3,638.5z"/>
	<path class="st1" d="M1701.1,769.8c0,20.7,0,40.7,0,60.9c-2.3,0-4.2,0-6.7,0c0-20.1,0-40.1,0-60.7c-7.7,0-14.7,0-22.1,0
		c0-2.1,0-3.7,0-5.7c16.8,0,33.7,0,50.8,0c0,1.8,0,3.4,0,5.5C1716.1,769.8,1709,769.8,1701.1,769.8z"/>
	<path class="st1" d="M1107.4,699c10.9,0,20.8,0,31,0c0.1,2,0.2,3.6,0.3,5.6c-12.5,0-24.7,0-37.3,0c0-21.9,0-43.9,0-66.3
		c1.7,0,3.6,0,6.1,0C1107.4,658.3,1107.4,678.3,1107.4,699z"/>
	<path class="st1" d="M1765.2,764.2c2.3,0,4.1,0,6.2,0c0,22.2,0,44.3,0,66.5c-2.1,0-4,0-6.2,0
		C1765.2,808.6,1765.2,786.5,1765.2,764.2z"/>
</g>
</svg>
