<?xml version="1.0" encoding="utf-8"?>
<!-- Generator: Adobe Illustrator 21.0.0, SVG Export Plug-In . SVG Version: 6.00 Build 0)  -->
<svg version="1.1" id="Layer_1" xmlns="http://www.w3.org/2000/svg" xmlns:xlink="http://www.w3.org/1999/xlink" x="0px" y="0px" viewBox="0 0 32 32" style="enable-background:new 0 0 32 32;" xml:space="preserve">
<g>
	<path d="M3,17h26c0.4,0,0.8-0.2,0.9-0.6c0.2-0.4,0.1-0.8-0.2-1.1l-11.8-12c-0.4-0.4-1-0.4-1.4,0s-0.4,1,0,1.4L26.6,15H3
		c-0.5,0-1,0.4-1,1S2.4,17,3,17z"/>
	<path d="M17.2,29c0.3,0,0.5-0.1,0.7-0.3l7.9-8c0.4-0.4,0.4-1,0-1.4s-1-0.4-1.4,0l-7.9,8c-0.4,0.4-0.4,1,0,1.4
		C16.7,28.9,17,29,17.2,29z"/>
</g>
</svg>
