<svg width="29" height="26" viewBox="0 0 29 26" fill="none" xmlns="http://www.w3.org/2000/svg">
<path d="M28.0041 13C28.0041 12.4 27.5041 12 27.0041 12H3.40406L13.5041 1.70002C13.9041 1.30002 13.9041 0.700015 13.5041 0.300015C13.1041 -0.0999847 12.5041 -0.0999847 12.1041 0.300015L0.30406 12.3C0.00405949 12.6 -0.0959405 13 0.104059 13.4C0.204059 13.8 0.60406 14 1.00406 14H27.0041C27.6041 14 28.0041 13.6 28.0041 13Z" fill="white"/>
<path d="M13.5041 25.7C13.9041 25.3 13.9041 24.7 13.5041 24.3L5.60406 16.3C5.20406 15.9 4.60406 15.9 4.20406 16.3C3.80406 16.7 3.80406 17.3 4.20406 17.7L12.1041 25.7C12.3041 25.9 12.5041 26 12.8041 26C13.0041 26 13.3041 25.9 13.5041 25.7Z" fill="white"/>
</svg>
