<svg width="107" height="137" viewBox="0 0 107 137" fill="none" xmlns="http://www.w3.org/2000/svg">
<path d="M10.5 50.3C4.5 51.7 0 57.1 0 63.5C0 69.9 4.5 75.3 10.5 76.7L10.5 137H16.5L16.5 76.7C22.5 75.3 27 70 27 63.5C27 57 22.5 51.7 16.5 50.3L16.5 0H10.5L10.5 50.3Z" fill="black"/>
<path d="M40 101.5C40 107.9 44.5 113.3 50.5 114.7V137H56.5V114.7C62.5 113.3 67 108 67 101.5C67 95.1 62.5 89.7 56.5 88.3L56.5 0H50.5L50.5 88.3C44.5 89.7 40 95.1 40 101.5Z" fill="black"/>
<path d="M80 43.5C80 49.9 84.5 55.3 90.5 56.7V137H96.5V56.7C102.5 55.3 107 50 107 43.5C107 37 102.5 31.7 96.5 30.3V0H90.5L90.5 30.3C84.5 31.7 80 37.1 80 43.5Z" fill="black"/>
</svg>
