<?xml version="1.0" encoding="utf-8"?>
<!-- Generator: Adobe Illustrator 21.0.0, SVG Export Plug-In . SVG Version: 6.00 Build 0)  -->
<svg version="1.1" id="Слой_1" xmlns="http://www.w3.org/2000/svg" xmlns:xlink="http://www.w3.org/1999/xlink" x="0px" y="0px"
	 viewBox="0 0 157 32" style="enable-background:new 0 0 157 32;" xml:space="preserve">
<g>
	<g>
		<path d="M0.8,1.4h5c0.9,0,1.7,0.2,2.4,0.5c0.7,0.3,1.2,0.8,1.7,1.3s0.8,1.2,1,1.9c0.2,0.7,0.3,1.5,0.3,2.4s-0.1,1.6-0.3,2.4
			c-0.2,0.7-0.5,1.4-1,1.9s-1,1-1.7,1.3c-0.7,0.3-1.5,0.5-2.4,0.5h-5V1.4z M2.9,11.8H5c0.8,0,1.5-0.1,2-0.3c0.5-0.2,0.9-0.5,1.2-0.9
			s0.5-0.9,0.6-1.4C9,8.6,9.1,8,9.1,7.4c0-0.6-0.1-1.2-0.2-1.7c-0.1-0.5-0.3-1-0.6-1.4C8,4,7.6,3.6,7,3.4C6.5,3.2,5.8,3.1,5,3.1H2.9
			V11.8z"/>
		<path d="M13,1.4h3l3.3,9.5h0l3.3-9.5h3v12.1h-2V4.1h0l-3.4,9.4h-1.8l-3.4-9.4h0v9.4h-2V1.4z"/>
		<path d="M28.2,1.4h2.1v12.1h-2.1V1.4z"/>
		<path d="M31.7,1.4h9.8v1.8h-3.9v10.3h-2.1V3.2h-3.8V1.4z"/>
		<path d="M43,1.4h5.8c1.3,0,2.3,0.3,3,0.9s1,1.4,1,2.4c0,0.6-0.1,1.1-0.3,1.4S52.2,6.8,51.9,7s-0.5,0.4-0.7,0.5
			c-0.2,0.1-0.4,0.2-0.5,0.2v0c0.2,0,0.4,0.1,0.6,0.2C51.6,8,51.8,8.1,52,8.3c0.2,0.2,0.3,0.5,0.5,0.8c0.1,0.3,0.2,0.7,0.2,1.2
			c0,0.7,0.1,1.4,0.2,1.9c0.1,0.6,0.3,1,0.5,1.2H51c-0.2-0.3-0.3-0.5-0.3-0.9c0-0.3,0-0.6,0-0.9c0-0.6,0-1-0.1-1.4
			c-0.1-0.4-0.2-0.7-0.4-1C50,9,49.7,8.8,49.4,8.7c-0.3-0.1-0.7-0.2-1.2-0.2h-3.1v5H43V1.4z M45.1,6.9h3.5c0.7,0,1.2-0.2,1.5-0.5
			c0.4-0.3,0.5-0.8,0.5-1.5c0-0.4-0.1-0.7-0.2-0.9c-0.1-0.2-0.3-0.4-0.5-0.6c-0.2-0.1-0.4-0.2-0.7-0.3s-0.5-0.1-0.8-0.1h-3.5V6.9z"
			/>
		<path d="M57.5,8.7l-4.6-7.4h2.5l3.2,5.4l3.2-5.4h2.4l-4.5,7.4v4.8h-2.1V8.7z"/>
		<path d="M71.5,9.5c0,0.5,0.1,0.9,0.2,1.2c0.2,0.3,0.4,0.6,0.7,0.8c0.3,0.2,0.6,0.4,1,0.5s0.8,0.1,1.2,0.1c0.5,0,0.9-0.1,1.2-0.2
			c0.3-0.1,0.6-0.2,0.8-0.4s0.4-0.4,0.4-0.6c0.1-0.2,0.1-0.4,0.1-0.7c0-0.5-0.1-0.8-0.3-1c-0.2-0.2-0.4-0.4-0.7-0.5
			c-0.4-0.2-0.9-0.3-1.5-0.5c-0.6-0.1-1.3-0.3-2.1-0.6c-0.5-0.1-1-0.3-1.3-0.5c-0.3-0.2-0.6-0.5-0.8-0.7S70,5.9,69.9,5.6
			c-0.1-0.3-0.1-0.6-0.1-0.9c0-0.6,0.1-1.1,0.4-1.6s0.6-0.8,1-1.1c0.4-0.3,0.9-0.5,1.4-0.7c0.5-0.1,1.1-0.2,1.6-0.2
			c0.6,0,1.2,0.1,1.8,0.2c0.6,0.2,1.1,0.4,1.5,0.7s0.8,0.7,1,1.2c0.2,0.5,0.4,1,0.4,1.7h-2.1c-0.1-0.8-0.3-1.3-0.8-1.7
			c-0.5-0.3-1.1-0.5-1.8-0.5c-0.2,0-0.5,0-0.8,0.1c-0.3,0.1-0.5,0.1-0.7,0.3c-0.2,0.1-0.4,0.3-0.5,0.5s-0.2,0.5-0.2,0.8
			c0,0.4,0.1,0.8,0.4,1c0.3,0.2,0.6,0.4,1,0.6c0,0,0.2,0.1,0.5,0.1c0.3,0.1,0.7,0.2,1,0.3s0.8,0.2,1.1,0.3c0.4,0.1,0.6,0.2,0.8,0.2
			c0.4,0.1,0.7,0.3,1,0.5s0.5,0.5,0.7,0.7S79,8.7,79.1,9c0.1,0.3,0.1,0.6,0.1,1c0,0.7-0.1,1.3-0.4,1.7c-0.3,0.5-0.6,0.9-1.1,1.2
			c-0.5,0.3-1,0.5-1.5,0.7c-0.6,0.1-1.2,0.2-1.8,0.2c-0.7,0-1.3-0.1-2-0.3c-0.6-0.2-1.1-0.4-1.6-0.8c-0.5-0.4-0.8-0.8-1.1-1.4
			c-0.3-0.5-0.4-1.2-0.4-1.9H71.5z"/>
		<path d="M79.9,1.4h9.8v1.8h-3.9v10.3h-2.1V3.2h-3.8V1.4z"/>
		<path d="M91.2,1.4H97c1.3,0,2.3,0.3,3,0.9s1,1.4,1,2.4c0,0.6-0.1,1.1-0.3,1.4s-0.4,0.7-0.6,0.9s-0.5,0.4-0.7,0.5
			c-0.2,0.1-0.4,0.2-0.5,0.2v0c0.2,0,0.4,0.1,0.6,0.2c0.2,0.1,0.4,0.2,0.6,0.4c0.2,0.2,0.3,0.5,0.5,0.8c0.1,0.3,0.2,0.7,0.2,1.2
			c0,0.7,0.1,1.4,0.2,1.9c0.1,0.6,0.3,1,0.5,1.2h-2.3c-0.2-0.3-0.3-0.5-0.3-0.9c0-0.3,0-0.6,0-0.9c0-0.6,0-1-0.1-1.4
			c-0.1-0.4-0.2-0.7-0.4-1c-0.2-0.3-0.4-0.5-0.7-0.6c-0.3-0.1-0.7-0.2-1.2-0.2h-3.1v5h-2.1V1.4z M93.3,6.9h3.5
			c0.7,0,1.2-0.2,1.5-0.5c0.4-0.3,0.5-0.8,0.5-1.5c0-0.4-0.1-0.7-0.2-0.9c-0.1-0.2-0.3-0.4-0.5-0.6c-0.2-0.1-0.4-0.2-0.7-0.3
			S97,3.1,96.7,3.1h-3.5V6.9z"/>
		<path d="M106.4,1.4h2.3l4.7,12.1H111l-1.1-3.2h-4.8l-1.1,3.2h-2.2L106.4,1.4z M105.6,8.7h3.7l-1.8-5.2h-0.1L105.6,8.7z"/>
		<path d="M111.8,1.4h9.8v1.8h-3.9v10.3h-2.1V3.2h-3.8V1.4z"/>
		<path d="M123,1.4h2.1v12.1H123V1.4z"/>
		<path d="M127.7,1.4h2.1v10.3h6.2v1.8h-8.3V1.4z"/>
		<path d="M140.7,1.4h2.3l4.7,12.1h-2.3l-1.1-3.2h-4.8l-1.1,3.2h-2.2L140.7,1.4z M140,8.7h3.7l-1.8-5.2h-0.1L140,8.7z"/>
		<path d="M146.1,1.4h9.8v1.8h-3.9v10.3h-2.1V3.2h-3.8V1.4z"/>
	</g>
	<g>
		<path d="M1,22.9h1.9c0.7,0,1.2,0.2,1.5,0.5c0.3,0.4,0.4,0.9,0.4,1.5c0,0.6-0.1,1.1-0.4,1.5c-0.3,0.4-0.8,0.6-1.4,0.6H1.5V31H1
			V22.9z M2.8,26.7c0.5,0,0.9-0.1,1.1-0.4c0.2-0.3,0.3-0.7,0.3-1.3c0-0.4,0-0.8-0.1-1c-0.1-0.2-0.2-0.4-0.4-0.5
			c-0.2-0.1-0.5-0.1-0.8-0.1H1.5v3.4H2.8z"/>
		<path d="M14.5,22.9h0.5v3.6h2.8v-3.6h0.5V31h-0.5v-4h-2.8v4h-0.5V22.9z"/>
		<path d="M28.9,30.5c-0.3-0.4-0.4-1-0.4-1.8v-3.5c0-0.7,0.2-1.3,0.5-1.7c0.3-0.4,0.8-0.6,1.5-0.6c0.7,0,1.2,0.2,1.5,0.6
			c0.3,0.4,0.5,1,0.5,1.7v3.5c0,0.8-0.1,1.3-0.4,1.8c-0.3,0.4-0.8,0.6-1.6,0.6C29.8,31.1,29.2,30.9,28.9,30.5z M31.6,30.2
			c0.2-0.3,0.3-0.8,0.3-1.4v-3.7c0-0.6-0.1-1.1-0.3-1.4s-0.6-0.5-1.1-0.5c-0.5,0-0.9,0.2-1.1,0.5S29,24.5,29,25.1v3.7
			c0,0.6,0.1,1.1,0.3,1.4c0.2,0.3,0.6,0.5,1.1,0.5C31,30.7,31.4,30.5,31.6,30.2z"/>
		<path d="M43.6,23.3H42v-0.4h3.7v0.4h-1.6V31h-0.5V23.3z"/>
		<path d="M55.6,30.5c-0.3-0.4-0.4-1-0.4-1.8v-3.5c0-0.7,0.2-1.3,0.5-1.7c0.3-0.4,0.8-0.6,1.5-0.6c0.7,0,1.2,0.2,1.5,0.6
			c0.3,0.4,0.5,1,0.5,1.7v3.5c0,0.8-0.1,1.3-0.4,1.8c-0.3,0.4-0.8,0.6-1.6,0.6C56.5,31.1,55.9,30.9,55.6,30.5z M58.3,30.2
			c0.2-0.3,0.3-0.8,0.3-1.4v-3.7c0-0.6-0.1-1.1-0.3-1.4s-0.6-0.5-1.1-0.5c-0.5,0-0.9,0.2-1.1,0.5s-0.3,0.8-0.3,1.4v3.7
			c0,0.6,0.1,1.1,0.3,1.4c0.2,0.3,0.6,0.5,1.1,0.5C57.7,30.7,58.1,30.5,58.3,30.2z"/>
		<path d="M69.5,30.5c-0.3-0.4-0.4-1-0.4-1.8v-3.4c0-0.8,0.1-1.4,0.4-1.8c0.3-0.4,0.8-0.6,1.5-0.6c0.7,0,1.2,0.2,1.4,0.6
			c0.3,0.4,0.4,1,0.4,1.7v0.3h-0.5v-0.3c0-0.6-0.1-1.1-0.3-1.4c-0.2-0.3-0.5-0.4-1.1-0.4c-0.6,0-0.9,0.2-1.1,0.5
			c-0.2,0.3-0.3,0.8-0.3,1.4v3.5c0,0.6,0.1,1.1,0.3,1.5c0.2,0.3,0.6,0.5,1.1,0.5c0.5,0,0.9-0.2,1.1-0.5c0.2-0.3,0.3-0.8,0.3-1.4
			v-1.2h-1.3v-0.4h1.8V31h-0.3l-0.1-0.9c-0.1,0.3-0.3,0.6-0.5,0.8c-0.2,0.2-0.6,0.3-1,0.3C70.3,31.1,69.8,30.9,69.5,30.5z"/>
		<path d="M83,22.9h2c0.7,0,1.1,0.2,1.4,0.5c0.3,0.4,0.4,0.8,0.4,1.5c0,0.5-0.1,1-0.3,1.3s-0.5,0.5-0.9,0.6l1.3,4.2h-0.5l-1.3-4.1
			h-1.5V31H83V22.9z M85,26.5c0.5,0,0.8-0.1,1-0.4c0.2-0.3,0.3-0.7,0.3-1.2c0-0.5-0.1-0.9-0.3-1.2c-0.2-0.2-0.5-0.4-1-0.4h-1.4v3.2
			H85z"/>
		<path d="M98.1,22.9h0.6l1.7,8.1h-0.6l-0.4-2.2h-2.1L96.9,31h-0.5L98.1,22.9z M99.4,28.4l-1-4.8l-1,4.8H99.4z"/>
		<path d="M110.2,22.9h1.9c0.7,0,1.2,0.2,1.5,0.5c0.3,0.4,0.4,0.9,0.4,1.5c0,0.6-0.1,1.1-0.4,1.5s-0.8,0.6-1.4,0.6h-1.4V31h-0.5
			V22.9z M112,26.7c0.5,0,0.9-0.1,1.1-0.4c0.2-0.3,0.3-0.7,0.3-1.3c0-0.4,0-0.8-0.1-1c-0.1-0.2-0.2-0.4-0.4-0.5
			c-0.2-0.1-0.5-0.1-0.8-0.1h-1.3v3.4H112z"/>
		<path d="M123.7,22.9h0.5v3.6h2.8v-3.6h0.5V31h-0.5v-4h-2.8v4h-0.5V22.9z"/>
		<path d="M137.8,22.9h2.8v0.4h-2.2v3.2h1.8V27h-1.8v3.6h2.3V31h-2.8V22.9z"/>
		<path d="M150.5,22.9h2c0.7,0,1.1,0.2,1.4,0.5c0.3,0.4,0.4,0.8,0.4,1.5c0,0.5-0.1,1-0.3,1.3s-0.5,0.5-0.9,0.6l1.3,4.2h-0.5
			l-1.3-4.1H151V31h-0.5V22.9z M152.4,26.5c0.5,0,0.8-0.1,1-0.4c0.2-0.3,0.3-0.7,0.3-1.2c0-0.5-0.1-0.9-0.3-1.2
			c-0.2-0.2-0.5-0.4-1-0.4H151v3.2H152.4z"/>
	</g>
</g>
</svg>
