<?xml version="1.0" encoding="utf-8"?>
<!-- Generator: Adobe Illustrator 21.1.0, SVG Export Plug-In . SVG Version: 6.00 Build 0)  -->
<svg version="1.1"
	 xmlns="http://www.w3.org/2000/svg" xmlns:xlink="http://www.w3.org/1999/xlink" x="0px" y="0px" viewBox="0 0 32 32"
	 style="enable-background:new 0 0 32 32;" xml:space="preserve" fill="red">

<title></title>
<desc></desc>
<g id="Page-1">
	<g id="icon-9-mail-checked">
		<path id="mail-checked" class="st0" d="M26,15V9c0-0.3-0.1-0.6-0.3-0.7l0,0L18,15l2.9,2.5c1-1.5,2.7-2.5,4.6-2.5
			C25.7,15,25.8,15,26,15L26,15L26,15z M20.4,18.4l-3.2-2.8l0,0L14.5,18l-2.7-2.3L4.5,22h15.7c-0.1-0.5-0.2-1-0.2-1.5
			C20,19.8,20.1,19.1,20.4,18.4L20.4,18.4L20.4,18.4z M20.6,23H4c-1.1,0-2-0.9-2-2V9c0-1.1,0.9-2,2-2h21c1.1,0,2,0.9,2,2v6.2
			c2.3,0.7,4,2.8,4,5.3c0,3-2.5,5.5-5.5,5.5C23.4,26,21.5,24.8,20.6,23L20.6,23L20.6,23z M3.3,8.3C3.1,8.5,3,8.7,3,9v12
			c0,0.3,0.1,0.6,0.3,0.7l0,0l7.7-6.7L3.3,8.3L3.3,8.3L3.3,8.3z M14.5,16.7l10-8.7h-20L14.5,16.7L14.5,16.7z M25.5,25
			c2.5,0,4.5-2,4.5-4.5S28,16,25.5,16S21,18,21,20.5S23,25,25.5,25L25.5,25L25.5,25z M25,23.2l-2.4-2.4l0.7-0.7l1.6,1.6l3.1-3.1
			l0.7,0.7L25,23.2L25,23.2z"/>
	</g>
</g>
</svg>
