<?xml version="1.0" encoding="utf-8"?>
<!-- Generator: Adobe Illustrator 21.0.0, SVG Export Plug-In . SVG Version: 6.00 Build 0)  -->
<svg version="1.1" id="Слой_1" xmlns="http://www.w3.org/2000/svg" xmlns:xlink="http://www.w3.org/1999/xlink" x="0px" y="0px"
	 viewBox="0 0 84.1 112.1" style="enable-background:new 0 0 84.1 112.1;" xml:space="preserve">
<style type="text/css">
	.st0{display:none;fill:#FFFFFF;}
</style>
<g>
	<path class="st0" d="M84.1,112.1c-28,0-56,0-84.1,0C0,74.7,0,37.4,0,0c28,0,56,0,84.1,0C84.1,37.4,84.1,74.7,84.1,112.1z
		 M17.8,77.2c-0.9,0.1-1.7,0.2-2.5,0.3c-3.8,0.7-7,2.4-9.6,5.2c-3.4,3.7-5,8.1-4.5,13.2c0.6,6.4,3.8,11.1,9.5,13.9
		c3.2,1.6,6.7,2.1,10.2,1.7c5.2-0.6,9.4-3,12.5-7.2c0.2-0.3,0.5-0.4,0.8-0.5c0.6-0.1,1.3-0.1,1.9,0.1c1.7,0.4,3.4,0.9,5.1,1.3
		c2.5,0.6,4.9,0.9,7.5,0.8c3.3-0.2,6.4-1.2,9.1-3.1c3.9-2.7,6.1-6.4,6.4-11.1c0-0.4,0-0.8,0-1.3c0.5,0.1,0.9,0.2,1.2,0.4
		c2.9,1.1,5.9,1.5,9,1.1c2.6-0.3,4.9-1.4,6.6-3.4c1.9-2.1,2.7-4.7,2.5-7.5c-0.1-2.2-1.2-3.9-2.9-5.2c-0.9-0.7-2-1.1-3.1-1.5
		c-2.4-0.8-4.8-1.5-7.1-2.3c-1.3-0.4-2.5-0.9-3.6-1.7c-0.9-0.7-1.5-1.5-1.8-2.5c-0.6-2.6,0.2-4.7,2.4-6.1c1.2-0.8,2.6-1.1,4-1.2
		c2.5-0.2,4.7,0.7,6.3,2.6c1.3,1.5,1.9,3.2,2.3,5.1c0.1,0.3,0.2,0.3,0.4,0.3c0.3,0,0.2-0.2,0.2-0.4c0-2.4,0-4.8,0-7.1
		c0-0.1,0-0.2,0-0.3c-0.4-0.1-0.6-0.1-0.8,0.3c-0.2,0.4-0.6,0.5-1,0.6c-0.7,0-1.3-0.3-1.9-0.6c-2.1-1-4.3-1.3-6.7-1
		c-2.1,0.3-3.9,1.2-5.4,2.7c-1.8,2-2.5,4.4-2.3,7c0.1,1.9,1,3.4,2.5,4.6c1,0.7,2,1.3,3.2,1.7c1.7,0.6,3.4,1.1,5.1,1.6
		c1.2,0.4,2.4,0.7,3.5,1.3c2.3,1.3,3.6,3.1,3.4,5.9C80,88,78,90.4,75,91.1c-1.9,0.4-3.7,0.3-5.6,0c-1.3-0.3-2.5-0.8-3.5-1.8
		c-0.4-0.5-0.9-0.9-1.4-1.3c-0.5-0.6-1.1-1.1-1.3-1.9c0-0.2-0.1-0.3-0.2-0.5c-1.4-2.5-3.5-4.2-6.1-5.4c-2.1-1-4.3-1.7-6.5-2.4
		c-2.1-0.7-4.2-1.3-6.2-2c-1.6-0.6-3.1-1.4-4.4-2.5c-2.7-2.3-2.5-5.5-1.5-7.5c0.9-1.7,2.3-3,4-3.8c2.2-1.1,4.6-1.3,7-1.1
		c2.2,0.2,4.1,1,5.6,2.5c1.1,1,2,2.2,2.6,3.6c0.8,1.8,1.4,3.6,2.2,5.4c0.1,0.3,0.3,0.4,0.8,0.3c0.3-0.1,0.1-0.3,0.1-0.4
		c0-4.1,0-8.2,0-12.3c0-19.8,0-39.5,0-59.3c0-0.4,0-0.4-0.4-0.4c-2.4,0-4.8,0-7.2,0c-0.3,0-0.4,0.1-0.5,0.3
		c-2.6,7.7-5.3,15.4-7.9,23c-1.7,5-3.4,10-5.1,15c0,0.1-0.1,0.2-0.1,0.3c-0.1-0.1-0.2-0.2-0.2-0.3c-0.6-1.8-1.2-3.5-1.8-5.3
		c-3.8-10.9-7.5-21.8-11.3-32.8c-0.1-0.2-0.2-0.3-0.4-0.3c-2.5,0-4.9,0-7.4,0c-0.6,0-0.5-0.1-0.5,0.5c0,25.3,0,50.6,0,75.9
		C17.8,76.9,17.8,77.1,17.8,77.2z"/>
	<path d="M17.8,77.2c0-0.2,0-0.3,0-0.5c0-25.3,0-50.6,0-75.9c0-0.5-0.1-0.5,0.5-0.5c2.5,0,4.9,0,7.4,0c0.2,0,0.4,0.1,0.4,0.3
		c3.7,10.9,7.5,21.8,11.3,32.8c0.6,1.8,1.2,3.5,1.8,5.3c0,0.1,0.1,0.2,0.2,0.3c0-0.1,0.1-0.2,0.1-0.3c1.7-5,3.4-10,5.1-15
		c2.6-7.7,5.3-15.4,7.9-23c0.1-0.3,0.2-0.4,0.5-0.3c2.4,0,4.8,0,7.2,0c0.4,0,0.4,0,0.4,0.4c0,19.8,0,39.5,0,59.3c0,4.1,0,8.2,0,12.3
		c0,0.1,0.1,0.3-0.1,0.4c-0.4,0.1-0.7,0-0.8-0.3c-0.7-1.8-1.4-3.7-2.2-5.4c-0.6-1.4-1.5-2.6-2.6-3.6c-1.6-1.5-3.5-2.3-5.6-2.5
		c-2.4-0.2-4.8,0-7,1.1c-1.7,0.8-3.1,2.1-4,3.8c-1,2-1.2,5.2,1.5,7.5c1.3,1.1,2.8,1.9,4.4,2.5c2.1,0.7,4.2,1.4,6.2,2
		c2.2,0.7,4.4,1.4,6.5,2.4c2.5,1.2,4.7,2.9,6.1,5.4c0.1,0.1,0.2,0.3,0.2,0.5c0.2,0.8,0.8,1.3,1.3,1.9c0.4,0.5,0.9,0.9,1.4,1.3
		c1,1,2.2,1.6,3.5,1.8c1.9,0.3,3.7,0.4,5.6,0c3.1-0.6,5.1-3,5.3-6.3c0.2-2.7-1.1-4.6-3.4-5.9c-1.1-0.6-2.3-0.9-3.5-1.3
		c-1.7-0.5-3.4-1-5.1-1.6C67,75.6,66,75,65,74.3c-1.5-1.1-2.4-2.7-2.5-4.6c-0.2-2.7,0.5-5,2.3-7c1.5-1.6,3.3-2.4,5.4-2.7
		c2.3-0.4,4.5-0.1,6.7,1c0.6,0.3,1.2,0.6,1.9,0.6c0.4,0,0.8-0.1,1-0.6c0.2-0.4,0.5-0.4,0.8-0.3c0,0.1,0,0.2,0,0.3c0,2.4,0,4.8,0,7.1
		c0,0.1,0.1,0.3-0.2,0.4c-0.2,0-0.3,0-0.4-0.3c-0.4-1.9-1-3.6-2.3-5.1c-1.7-1.9-3.8-2.8-6.3-2.6c-1.4,0.1-2.8,0.4-4,1.2
		c-2.2,1.4-3,3.6-2.4,6.1c0.3,1.1,0.9,1.9,1.8,2.5c1.1,0.8,2.3,1.3,3.6,1.7c2.4,0.8,4.8,1.5,7.1,2.3c1.1,0.4,2.2,0.8,3.1,1.5
		c1.8,1.3,2.8,3,2.9,5.2c0.2,2.8-0.6,5.4-2.5,7.5c-1.8,2-4,3.1-6.6,3.4c-3.1,0.4-6.1,0-9-1.1c-0.4-0.1-0.8-0.2-1.2-0.4
		c0,0.5,0,0.9,0,1.3c-0.3,4.8-2.5,8.4-6.4,11.1c-2.7,1.9-5.8,2.9-9.1,3.1c-2.5,0.2-5-0.2-7.5-0.8c-1.7-0.4-3.4-0.9-5.1-1.3
		c-0.6-0.2-1.3-0.2-1.9-0.1c-0.3,0.1-0.6,0.2-0.8,0.5c-3.1,4.3-7.3,6.6-12.5,7.2c-3.6,0.4-7-0.1-10.2-1.7c-5.7-2.9-8.9-7.5-9.5-13.9
		c-0.5-5,1.1-9.5,4.5-13.2c2.6-2.8,5.9-4.5,9.6-5.2C16.1,77.4,16.9,77.3,17.8,77.2z M18.9,77.2c0.5,0,1,0,1.4,0.1
		c0.5,0,1,0.1,1.4,0.2c4,0.6,7.5,2.3,10.2,5.4c4,4.5,5.2,9.8,3.9,15.6c-0.1,0.2,0,0.4,0.1,0.6c0.7,1,1.4,1.8,2.3,2.6
		c1.7,1.6,3.7,2.8,6,3.1c1.9,0.3,3.9,0.3,5.8,0c4-0.6,7.8-3.5,8.3-8.7c0.2-2-0.3-3.8-1.8-5.3c-0.9-0.9-2-1.6-3.2-2.2
		c-1.7-0.8-3.6-1.3-5.4-1.8c-2.4-0.7-4.9-1.4-7.2-2.4c-1.9-0.8-3.5-1.9-4.9-3.4c-2.3-2.5-3.1-5.5-3-8.7c0.1-3.1,1.4-5.7,3.5-7.8
		c3.9-3.8,8.6-5.1,14-4.4c0.9,0.1,1.8,0.4,2.7,0.3c0.3,0,0.3-0.1,0.3-0.4c0-19.3,0-38.6,0-57.9c0-0.1,0-0.2,0-0.3c0,0-0.1,0-0.1,0
		c-5.7,16.6-11.4,33.1-17.1,49.7c0,0-0.1,0-0.1,0C30.4,35,24.7,18.7,19,2.3c0,0-0.1,0-0.1,0C18.9,27.3,18.9,52.2,18.9,77.2z
		 M28.7,94.4c0-0.2,0-0.4,0-0.6c-0.2-5.2-4-9.4-9.1-9.8c-3.2-0.3-6,0.7-8.1,3.1c-2.1,2.3-2.9,5-2.7,8c0.3,5.1,4,9.2,9.1,9.6
		c3,0.3,5.7-0.6,7.8-2.7C27.8,100,28.7,97.4,28.7,94.4z"/>
	<path class="st0" d="M18.9,77.2c0-25,0-50,0-74.9c0,0,0.1,0,0.1,0C24.7,18.7,30.4,35,36.1,51.4c0,0,0.1,0,0.1,0
		c5.7-16.6,11.4-33.1,17.1-49.7c0,0,0.1,0,0.1,0c0,0.1,0,0.2,0,0.3c0,19.3,0,38.6,0,57.9c0,0.3-0.1,0.3-0.3,0.4
		c-0.9,0.1-1.8-0.2-2.7-0.3c-5.3-0.7-10.1,0.6-14,4.4c-2.2,2.1-3.4,4.7-3.5,7.8c-0.1,3.3,0.7,6.3,3,8.7c1.4,1.5,3.1,2.6,4.9,3.4
		c2.3,1,4.8,1.7,7.2,2.4c1.8,0.5,3.7,1,5.4,1.8c1.2,0.6,2.3,1.2,3.2,2.2c1.5,1.5,2,3.3,1.8,5.3c-0.5,5.2-4.3,8.1-8.3,8.7
		c-1.9,0.3-3.9,0.3-5.8,0c-2.3-0.4-4.3-1.5-6-3.1c-0.8-0.8-1.6-1.7-2.3-2.6c-0.1-0.2-0.2-0.4-0.1-0.6c1.2-5.8,0.1-11.1-3.9-15.6
		c-2.7-3-6.2-4.7-10.2-5.4c-0.5-0.1-0.9-0.1-1.4-0.2C19.9,77.3,19.4,77.3,18.9,77.2z"/>
	<path class="st0" d="M28.7,94.4c0,2.9-0.9,5.5-3,7.6c-2.2,2.1-4.8,3-7.8,2.7c-5.1-0.4-8.8-4.6-9.1-9.6c-0.2-3,0.6-5.7,2.7-8
		c2.2-2.4,5-3.4,8.1-3.1c5.2,0.4,8.9,4.7,9.1,9.8C28.7,94.1,28.7,94.2,28.7,94.4z"/>
</g>
</svg>
