<svg width="59" height="50" xmlns="http://www.w3.org/2000/svg" xmlns:xlink="http://www.w3.org/1999/xlink"><use xlink:href="#path0_fill" transform="translate(0 1)" fill="#17A1E6"/><use xlink:href="#path1_fill" transform="translate(37 -3)" fill="#17A1E6"/><defs><path id="path0_fill" d="M0 7.583h13.794v4.084H0V7.583zM0 0h13.794v4.083H0V0zm24.747 15.108H0v4.084h23.82c2.608 0 8.694.058 10.954 3.733V20.65c-1.101-3.617-4.347-5.542-10.027-5.542zm.058 7.584H0v4.083h23.82c5.796 0 9.447.233 10.954 1.05v-1.808c-1.16-2.859-6.027-3.325-9.969-3.325zm-.058 19.25H0v-4.084h23.82c2.608 0 8.694-.058 10.954-3.733V36.4c-1.101 3.617-4.347 5.542-10.027 5.542zm.058-7.584H0v-4.083h23.82c5.796 0 9.447-.233 10.954-1.05v1.808c-1.16 2.859-6.027 3.325-9.969 3.325zM40.802 49H59v-2.508H41.323c-1.565 0-5.274-.059-6.607-2.217v1.4C35.354 47.833 37.324 49 40.802 49zm-.058-4.608h18.198v-2.509H41.323c-3.535 0-5.737-.116-6.607-.641v1.108c.696 1.75 3.651 2.042 6.028 2.042z"/><path id="path1_fill" d="M2.412 6.6h.596c.93 0 1.65.19 2.158.567.508.378.762.911.762 1.602 0 1.487-.983 2.231-2.95 2.231H.899V3.861H5.41v1.25H2.412v1.49zm0 3.16h.508c.511 0 .885-.082 1.123-.244.238-.166.356-.415.356-.747 0-.33-.12-.565-.36-.708-.242-.147-.655-.22-1.241-.22h-.386V9.76zm6.275-4.741c-.322 0-.64.045-.952.136-.31.091-.615.2-.918.327l-.479-1.22a5.797 5.797 0 0 1 2.378-.503c1.058 0 1.875.325 2.451.976.58.648.87 1.55.87 2.705 0 1.179-.298 2.084-.894 2.715-.593.629-1.449.943-2.568.943-.772 0-1.475-.122-2.11-.367v-1.27c.791.252 1.465.377 2.022.377.621 0 1.095-.151 1.42-.454.33-.303.508-.757.538-1.363H7.349v-1.24h3.086c-.02-.553-.186-.984-.498-1.294-.313-.312-.73-.468-1.25-.468zM16.139 11l-1.72-5.6h-.043c.062 1.139.093 1.899.093 2.28V11h-1.353V3.861h2.06l1.69 5.46h.03l1.791-5.46h2.06V11h-1.41V7.621c0-.16.001-.343.005-.552.006-.208.029-.761.068-1.66h-.044L17.526 11h-1.387z"/></defs></svg>