<svg width="32" height="32" xmlns="http://www.w3.org/2000/svg" xmlns:xlink="http://www.w3.org/1999/xlink"><use xlink:href="#path0_stroke" transform="translate(1.464 1)" fill="#FFF" style="mix-blend-mode:hard-light"/><defs><path id="path0_stroke" d="M30.036 14.79c0-.336-.011-.67-.033-1l-.997.065c.02.309.03.62.03.935h1zm-.29-2.981c-.13-.66-.304-1.305-.516-1.932l-.947.32c.198.586.36 1.189.481 1.805l.982-.193zm-1.28-3.78c-.296-.6-.63-1.178-1-1.73l-.83.555c.344.517.657 1.057.933 1.618l.897-.442zm-2.215-3.316a15.37 15.37 0 0 0-1.412-1.415l-.66.751c.468.412.909.854 1.32 1.323l.752-.66zm-2.995-2.634c-.552-.37-1.13-.706-1.73-1.003l-.443.896c.56.278 1.1.591 1.616.937l.557-.83zM19.68.309a15.143 15.143 0 0 0-1.932-.518l-.194.981c.616.123 1.218.285 1.804.484l.322-.947zm-3.913-.777c-.331-.021-.664-.032-1-.032v1c.314 0 .626.01.935.03l.065-.998zm-1-.032c-.336 0-.67.01-1 .032l.065.998c.309-.02.62-.03.935-.03v-1zm-2.982.291c-.66.131-1.304.305-1.931.518l.322.947A14.144 14.144 0 0 1 11.98.772l-.195-.98zM8.01 1.076c-.6.297-1.177.632-1.73 1.003l.558.83c.516-.346 1.055-.66 1.616-.937l-.444-.896zM4.696 3.298c-.5.44-.972.913-1.411 1.415l.752.659c.41-.47.852-.911 1.32-1.323l-.66-.75zm-2.627 3a15.28 15.28 0 0 0-1 1.732l.898.442c.276-.56.588-1.101.933-1.618L2.07 6.3zM.305 9.878a15.198 15.198 0 0 0-.515 1.932l.981.193c.122-.616.283-1.219.482-1.804l-.948-.321zm-.773 3.913c-.021.33-.032.664-.032 1h1c0-.314.01-.626.03-.935l-.998-.065zm-.032 1c0 .336.01.67.032 1l.998-.065c-.02-.309-.03-.62-.03-.935h-1zm.29 2.981c.13.66.303 1.305.515 1.932l.948-.32a14.198 14.198 0 0 1-.482-1.806l-.98.194zm1.28 3.779c.296.6.63 1.178.999 1.73l.831-.555a14.287 14.287 0 0 1-.933-1.617l-.897.442zm2.215 3.317c.44.502.91.974 1.411 1.415l.66-.751a14.364 14.364 0 0 1-1.319-1.323l-.752.659zM6.28 27.5c.552.37 1.13.706 1.729 1.003l.444-.896c-.56-.278-1.1-.591-1.616-.937l-.557.83zm3.575 1.77a15.15 15.15 0 0 0 1.931.517l.195-.98a14.141 14.141 0 0 1-1.804-.484l-.322.947zm3.913.777c.33.021.664.032 1 .032v-1c-.315 0-.626-.01-.935-.03l-.065.998zm1 .032c.336 0 .669-.011 1-.032l-.065-.998c-.31.02-.62.03-.935.03v1zm2.981-.292a15.15 15.15 0 0 0 1.932-.517l-.322-.947c-.586.2-1.188.361-1.804.483l.194.981zm3.778-1.284c.6-.297 1.177-.633 1.729-1.003l-.557-.83c-.516.346-1.056.66-1.616.937l.444.896zm3.312-2.222c.5-.44.973-.913 1.412-1.415l-.753-.659c-.41.47-.851.911-1.32 1.323l.661.75zm2.628-3.001c.369-.553.703-1.13.999-1.731l-.897-.442a14.298 14.298 0 0 1-.934 1.617l.832.556zm1.763-3.578c.212-.627.385-1.272.515-1.932l-.98-.194c-.122.617-.284 1.22-.482 1.805l.947.32zm.773-3.913c.022-.33.033-.664.033-1h-1c0 .314-.01.626-.03.935l.997.065z"/></defs></svg>