<svg width="188" height="104" xmlns="http://www.w3.org/2000/svg" xmlns:xlink="http://www.w3.org/1999/xlink"><use xlink:href="#path0_fill" transform="translate(130.043)" fill="#FFF"/><use xlink:href="#path1_fill" transform="translate(0 12)" fill="#FFF"/><use xlink:href="#path2_fill" transform="translate(37.5 .5)" fill="#FFF"/><use xlink:href="#path3_fill" transform="translate(0 81)" fill="#FFF"/><use xlink:href="#path4_fill" transform="rotate(-90 123.5 -51.5)" fill="#FFF"/><defs><path id="path0_fill" d="M.02 15c1.5-4.5 8.23-4.176 8-4.5-.23-.324 4-10.5 10.5-10.5 5 0 7.112 2.16 9.5 7 4.16-.359 6.087.085 8.5 2.5.722 1.943.5 4 .5 5s9.076-.194 8 6.5c-.223 4.62-2.419 5.864-8 7h-3c-2.71 2.9-4.78 3.397-7 4.5-2.22 1.103-5.589 3.083-8.5 1-3.027-2.166-3.183-10.334-16.563-10-1 0-2.12-7.121-1.937-8.5z"/><path id="path1_fill" d="M34.5 46.002c-.642-4.187-1-3-1-7 0-4.031.5-6 3-10.5 2.5-4 4.189-5.227 8-7.5 3.462-2.172 7.5-3 9-3.5s1.5-2.5 1.5-3.5c-.5-5-.894-7-1-7.5-.106-.5-3.134-3.61-5.5-5-3.31-1.42-4.788-1.518-8.5-1.5-4.02.526-5.804 1.385-8.5 3.5-2.182 2.429-3.218 4.011-4.5 7.5a101.98 101.98 0 0 0-1.5 4.5c-.017.099-.844 1.621-1 1.5-.156-.122-1.857-1.101-3.5-1-1.643.1-3.5.5-5 2-1.045 1.045-1.577 3.046-3 4.5-1.423 1.453-5.476.548-8 2-3.38 2.983-4.354 4.998-5 9 .815 4.026 1.929 5.147 4 7 2.803 1.367 4.56 1.796 8 2h5c.52 2.43.958 3.416 2 4.5 2.985 2.09 3.25 1.915 6.5 3 5.353.78 9.642.186 9-4z"/><path id="path2_fill" fill-rule="evenodd" d="M0 50.5c.994-6.334 2.626-9.01 6.5-13 5-3.5 12.5-4 13-5s.346-6.123 2-10 2.761-5.695 6-6.5c5-1 12.043.676 13 0 .957-.676 5.414-7.953 9.5-11.5C55.012 1.3 58.005.523 63.5 0c7.293.83 9.79 2.104 14 4.5 4.398 3.777 6.432 6.148 9 11 1.296 4.145 1.871 6.448 2.5 10.5 3.823-.335 6.531-.687 11 0 6 2 6.546 5.175 8.5 9 5.116 1.422 4.11.35 11.5 3s9.724 7.995 10 14.5c-.247 7.003-3.519 9.436-9.5 13s-13.647.515-17 2c-3.353 1.485-4.5 6-6 8-2.705 3.708-4.774 4.208-8.5 5-4.377.015-6.5-.5-10-1.5-4-1.5-4.952-1.898-7.5-3.5-3.73 1.565-5.963 2.124-10 3-2.803.754-4.522 1.01-8 1-4.684-.467-7.523-1.112-13-3-5.733-2.893-8.595-4.954-13-9.5-6.212.045-9.464-.342-15-1.5C9.664 64.301 8.24 63.535 6 62c-2.714-1.93-3.59-3.197-5-5.5-.76-2.343-.946-3.657-1-6zm26-2V41l29-15-2 8-20 11 13.5 11.5-1.5 7-19-15zM51 64l11-38h7L58 64h-7zm22-31l2-7 20 17-3 7-28 13.5 2-7.5 20-11.5L73 33z"/><path id="path3_fill" d="M10.818 22l-.738-2.81H5.209L4.45 22H0L4.891 6.947h5.404L15.248 22h-4.43zm-1.58-6.132l-.645-2.46c-.15-.548-.335-1.255-.554-2.123a36.746 36.746 0 0 1-.42-1.867c-.062.35-.185.923-.37 1.723-.177.8-.577 2.376-1.2 4.727h3.19zm11.69.677V22h-4.05V7.009h4.912c4.074 0 6.11 1.476 6.11 4.43 0 1.736-.847 3.08-2.542 4.03L29.726 22h-4.594l-3.178-5.455h-1.026zm0-3.046h.759c1.415 0 2.123-.625 2.123-1.876 0-1.032-.694-1.548-2.082-1.548h-.8V13.5zM37.704 22h-4.05V10.32h-3.661V7.01h11.361v3.312h-3.65V22zm14.694 0h-8.9V7.009h8.9v3.25h-4.85v2.359h4.49v3.25h-4.49v2.83h4.85V22zm9.156 0l-3.066-10.797h-.092c.144 1.838.215 3.267.215 4.286V22h-3.588V7.009h5.393l3.128 10.643h.082L66.69 7.01h5.404V22h-3.722v-6.573c0-.342.003-.72.01-1.138.014-.417.062-1.439.144-3.066h-.092L65.41 22h-3.856zm19.226 0V7.009h4.071V22h-4.07zm7.322 0V7.009h4.05v11.72h5.773V22h-9.823zM107 10.116c-.964 0-1.716.396-2.256 1.19-.54.785-.81 1.872-.81 3.26 0 2.885 1.097 4.327 3.291 4.327.663 0 1.306-.092 1.928-.277a19.293 19.293 0 0 0 1.876-.666v3.425c-1.251.553-2.666.83-4.245.83-2.263 0-3.999-.656-5.209-1.969-1.203-1.312-1.805-3.21-1.805-5.69 0-1.552.291-2.916.872-4.092.588-1.176 1.429-2.078 2.523-2.707 1.1-.636 2.392-.954 3.876-.954 1.62 0 3.168.353 4.645 1.057l-1.241 3.189a14.02 14.02 0 0 0-1.661-.657 5.81 5.81 0 0 0-1.784-.266zM126.81 22h-4.071v-6.111h-4.706V22h-4.071V7.009h4.071v5.557h4.706V7.01h4.071V22zm12.151 0h-8.9V7.009h8.9v3.25h-4.85v2.359h4.491v3.25h-4.491v2.83h4.85V22zm16.898 0h-5.311l-5.476-10.562h-.092c.13 1.662.195 2.93.195 3.805V22h-3.589V7.009h5.291l5.455 10.418h.062c-.096-1.511-.144-2.724-.144-3.64V7.009h3.609V22zm16.048 0h-4.574l-2.963-5.732-1.2.718V22h-4.07V7.009h4.07v6.511c.205-.403.619-1.043 1.241-1.918l3.148-4.593h4.43l-4.727 6.716L171.907 22zm15.657-7.516c0 2.522-.618 4.44-1.856 5.752-1.237 1.313-3.048 1.97-5.434 1.97-2.352 0-4.156-.66-5.414-1.98-1.251-1.32-1.877-3.24-1.877-5.763 0-2.495.622-4.398 1.867-5.711 1.251-1.32 3.066-1.98 5.444-1.98 2.386 0 4.194.654 5.425 1.96 1.23 1.305 1.845 3.223 1.845 5.752zm-10.315 0c0 2.898 1.008 4.347 3.025 4.347 1.025 0 1.784-.351 2.276-1.056.499-.704.749-1.8.749-3.291 0-1.497-.253-2.601-.759-3.312-.499-.718-1.248-1.077-2.246-1.077-2.03 0-3.045 1.463-3.045 4.389z"/><path id="path4_fill" d="M6.89 11H4.95V8.09H2.71V11H.771V3.861H2.71v2.647h2.241V3.86H6.89V11zm4.697 0H9.658V5.438H7.915V3.861h5.41v1.577h-1.738V11zm5.87 0l-1.46-5.142h-.045c.068.876.103 1.556.103 2.041V11h-1.71V3.861h2.57l1.488 5.069h.04l1.46-5.069h2.573V11h-1.773V7.87c0-.163.002-.343.005-.542.007-.198.03-.685.068-1.46h-.044L19.292 11h-1.836zm6.557 0V3.861h1.928v5.581h2.75V11h-4.678zm10.825.098c-.905 0-1.592-.245-2.06-.733-.466-.488-.699-1.19-.699-2.104 0-.918.252-1.63.757-2.134.505-.505 1.222-.757 2.153-.757.642 0 1.245.14 1.812.42l-.562 1.411c-.23-.1-.444-.18-.64-.24a2.01 2.01 0 0 0-.61-.092c-.309 0-.548.12-.718.361-.169.241-.253.582-.253 1.021 0 .885.327 1.328.981 1.328.56 0 1.097-.163 1.611-.488v1.518c-.491.326-1.082.489-1.772.489zm8.154-2.876c0 .905-.244 1.611-.732 2.119-.485.504-1.166.757-2.041.757-.84 0-1.51-.26-2.007-.777-.495-.517-.742-1.217-.742-2.1 0-.901.242-1.6.727-2.099.489-.501 1.172-.752 2.051-.752.544 0 1.024.116 1.44.347.417.23.738.563.962.996.228.43.342.933.342 1.509zm-3.584 0c0 .475.064.838.19 1.089.128.247.34.37.64.37.297 0 .505-.123.625-.37.124-.251.186-.614.186-1.09 0-.471-.062-.828-.186-1.069-.123-.24-.335-.361-.634-.361-.293 0-.503.12-.63.361-.127.238-.19.594-.19 1.07zm6.397 2.876c-.394 0-.74-.113-1.035-.337-.294-.225-.521-.555-.684-.991-.16-.437-.24-.946-.24-1.529 0-.898.181-1.601.543-2.11.361-.507.857-.76 1.489-.76.31 0 .58.061.81.185.235.123.448.332.64.625h.04a9.165 9.165 0 0 1-.094-1.3V3.403H49.2V11h-1.44l-.41-.698h-.074c-.328.53-.818.796-1.47.796zm.78-1.51c.307 0 .522-.095.645-.287.127-.192.196-.489.206-.889v-.151c0-.489-.07-.835-.21-1.04-.14-.209-.36-.313-.66-.313-.25 0-.446.119-.586.357-.136.234-.205.57-.205 1.006 0 .43.07.756.21.981.14.225.34.337.6.337zm6.607 1.51c-.92 0-1.637-.245-2.148-.733-.508-.491-.762-1.19-.762-2.094 0-.935.236-1.65.708-2.149.472-.501 1.146-.752 2.022-.752.833 0 1.476.218 1.928.654.456.433.684 1.058.684 1.875v.85h-3.413c.013.31.125.552.337.728.215.175.506.263.874.263.335 0 .643-.03.923-.093.283-.065.589-.174.918-.327v1.372a3.37 3.37 0 0 1-.928.318c-.32.058-.7.088-1.143.088zm-.112-4.43a.797.797 0 0 0-.566.216c-.15.14-.238.361-.264.664h1.64c-.006-.267-.082-.48-.229-.64-.143-.16-.337-.24-.58-.24zm6.963-1.298c.166 0 .324.013.474.04l.107.019-.17 1.801a2.808 2.808 0 0 0-.65-.058c-.417 0-.72.096-.908.288-.19.189-.284.462-.284.82V11h-1.909V5.468h1.421l.298.884h.093a1.9 1.9 0 0 1 .664-.708c.286-.183.574-.274.864-.274z"/></defs></svg>