<svg width="478" height="210" xmlns="http://www.w3.org/2000/svg" xmlns:xlink="http://www.w3.org/1999/xlink"><use xlink:href="#path0_fill" transform="translate(358)" fill="#26A6D1"/><use xlink:href="#path1_fill" fill="#E2574C"/><use xlink:href="#path2_fill" transform="translate(75 24)" fill="#2196F3"/><use xlink:href="#path3_fill" transform="translate(101.25 85.25)" fill="#FAFAFA"/><use xlink:href="#path4_fill" transform="translate(136.25 50.25)" fill="#F44336"/><use xlink:href="#path5_fill" transform="translate(268.37 24)" fill="#2394BC"/><use xlink:href="#path6_fill" transform="translate(264 33.445)" fill="#EC8840"/><g><use xlink:href="#path7_fill" transform="translate(208.974 99.937)" fill="#26A6D1"/><use xlink:href="#path8_fill" transform="translate(159 87.5)" fill="#3DB39E"/><use xlink:href="#path9_fill" transform="translate(235.748 100.327)" fill="#EFC75E"/><use xlink:href="#path10_fill" transform="translate(178.182 50)" fill="#E2574C"/></g><g><use xlink:href="#path11_fill" transform="translate(216)" fill="#2995CC"/></g><defs><path id="path0_fill" d="M46.353 29.593c-5.198 5.21-7.798 11.622-8.664 18.434h45.92v-3.206c-.433-4.408-1.3-8.816-3.898-12.824-3.466-5.21-9.098-8.015-15.596-8.816-9.53-1.603-18.628 0-27.292 3.206-12.996 4.408-23.826 11.621-32.49 21.24-1.3 1.602-2.6 3.606-4.333 5.61 0-1.202 0-1.603.433-2.404 1.733-11.221 6.065-22.041 14.296-30.858 9.53-10.42 21.66-16.831 36.39-19.236 14.296-2.003 27.726 0 40.289 6.813 11.697 6.011 19.494 15.228 24.26 26.85 2.599 6.412 3.898 13.626 4.332 20.438v14.827H38.556c0 6.012 2.166 11.622 6.499 16.03 5.198 5.21 12.13 7.614 19.06 8.817 15.596 2.003 29.892-.401 43.322-7.615.433 0 .866-.4.866-.4h.433v24.045c0 .801-.433 1.202-1.299 1.602-9.53 4.408-19.928 7.214-30.758 7.614-6.931.401-13.863.401-20.36-.801-20.361-4.008-36.824-17.633-40.723-37.27-4.332-22.442 7.365-42.88 30.325-52.097h.432z"/><path id="path1_fill" d="M94.446 9.44C84.97 3.363 73.241 0 60.016 0 47.919 0 37.078 2.804 28.058 7.93 10.693 17.7 0 35.99 0 59.425 0 91.124 23.997 120 60.004 120 96.006 120 120 91.13 120 59.425c-.004-22.28-9.669-39.91-25.554-49.984zm-34.434 1.755c19.313 0 23.986 25.14 23.986 47.975 0 21.16-2.929 49.474-23.754 49.474-20.825 0-24.262-28.591-24.262-49.748.004-22.835 4.713-47.701 24.03-47.701z"/><path id="path2_fill" d="M70 140c38.66 0 70-31.34 70-70S108.66 0 70 0 0 31.34 0 70s31.34 70 70 70z"/><path id="path3_fill" d="M35 0L0 52.5l52.5-35L35 0z"/><path id="path4_fill" d="M0 35l17.5 17.5L52.5 0 0 35z"/><path id="path5_fill" d="M65.544 0c36.268 0 65.545 30.16 65.545 67.524 0 37.364-29.277 67.525-65.545 67.525C29.277 135.049 0 104.888 0 67.524 0 30.161 29.276 0 65.544 0z"/><path id="path6_fill" d="M81.275 129.205c33.209-5.852 58.553-35.113 58.553-71.126l-.437.9c.874-6.752.874-13.054-.437-18.006-.437 4.052-.874 6.302-1.748 7.203 0-.45 0-4.502-1.311-9.904-.437-4.05-1.311-8.103-2.622-11.704.437 1.8.437 3.151.437 4.502C128.467 17.115 116.232-.442 85.208.008c0 0 10.924 1.35 15.73 9.004 0 0-5.243-1.35-9.176.9 4.806 1.8 9.176 4.051 12.672 6.302h.437c.874.45 1.747 1.35 2.621 1.8 6.555 4.952 12.672 11.705 12.235 20.258-1.748-2.7-3.496-4.502-6.117-4.952 3.059 12.154 3.059 22.058.874 29.711-1.748-5.402-3.059-8.103-4.37-9.453 1.748 16.205-.437 27.91-7.428 35.562 1.311-4.502 1.747-8.553 1.747-11.704-8.302 12.604-17.478 19.357-27.965 19.807-3.933 0-7.866-.45-11.798-1.8-5.244-1.801-10.05-4.952-14.42-9.454 6.555.45 13.109-.45 18.353-3.601l8.739-5.853c1.31-.45 2.185-.45 3.496 0 2.184-.45 3.058-1.35 2.184-3.6-.874-1.351-2.621-2.702-4.806-4.052-4.37-2.251-9.176-1.8-13.983 1.35-4.807 2.701-9.176 2.701-13.546-.45-2.622-1.8-5.68-4.502-8.302-8.103l-.874-1.8c-.437 4.051 0 8.553 1.747 14.855-1.747-5.852-2.185-10.804-1.747-14.855 0-3.152 1.31-5.402 3.932-5.402h-.874 1.311c3.059.45 6.117.9 10.05 2.25.437-3.6 0-7.652-2.621-11.703 3.495-3.602 6.554-5.853 9.176-7.203 1.31-.45 1.748-1.8 2.185-3.151.874-1.8.437-2.701-.437-3.602-2.622 0-4.807 0-7.428-.45-.874-.45-2.185-1.35-3.933-2.7l-3.932-4.052-1.311-.9-.437-.45.437-.45c.437-3.151 1.31-5.852 2.622-8.103l.436-.45c1.311-2.251 3.933-4.502 7.429-7.203-6.992.9-13.11 4.051-18.79 9.454-4.37-1.35-10.05-.9-16.167 1.8l-.874.45.874-.45c-3.933-1.8-6.555-7.203-7.866-16.206-5.243 4.952-7.428 14.406-7.428 27.46l-1.31 2.251-.437.45c-.874 1.35-1.748 3.152-3.06 5.402-1.747 3.601-2.62 6.302-2.62 9.003v2.7l3.932-3.15c-1.311 4.05-2.622 8.103-3.06 12.154v1.8L0 58.08c0 15.306 4.807 29.712 12.672 41.416l.437.45.437.45c5.68 8.103 13.108 14.855 21.848 20.257 6.117 3.601 12.672 6.302 19.663 8.103l1.311.45c1.31.45 3.059.45 4.37.9 1.31 0 2.185.45 3.496.45H74.72c1.747 0 3.495-.45 5.243-.45 0-.9 1.31-.9 1.31-.9zm44.133-87.781v.45-.45z"/><path id="path7_fill" d="M30.026 0c16.585 0 30.027 13.438 30.027 29.995 0 16.573-13.442 29.995-30.026 29.995C13.45 59.99 0 46.562 0 29.995 0 13.438 13.452 0 30.026 0z"/><path id="path8_fill" d="M80 82.432c-20.258 0-36.957-15.038-39.62-34.555L12.78.07 12.75 0 9.664 4.454A80.887 80.887 0 0 0 7.48 8.708l-1.476 3.45a76.927 76.927 0 0 0-1.412 3.624 71.74 71.74 0 0 0-1.32 4.13l-.891 3.184a81.536 81.536 0 0 0-.97 4.465L.87 30.715C.65 32.18.48 33.635.35 35.09l-.26 3.484A81.66 81.66 0 0 0 0 42.558c0 1.33.02 2.66.09 3.985l.26 3.484c.135 1.455.31 2.92.52 4.375l.541 3.154c.29 1.495.6 2.98.97 4.465l.891 3.184c.411 1.375.831 2.764 1.321 4.13.436 1.22.926 2.42 1.412 3.624.48 1.15.94 2.305 1.476 3.444a83.22 83.22 0 0 0 2.187 4.26l.996 1.954.46.715c.881 1.505 1.852 2.94 2.833 4.375l1.572 2.334c.946 1.29 1.982 2.52 3.018 3.76l2.072 2.479c.9.984 1.866 1.925 2.817 2.87.951.955 1.887 1.934 2.878 2.819l2.482 2.08c1.24 1.024 2.472 2.059 3.763 3.009l2.317 1.58c1.441.984 2.888 1.955 4.38 2.829l.71.461 1.951.995c1.402.76 2.813 1.514 4.259 2.189l.416.215 2.026.83c5.415 2.304 11.07 3.934 16.835 5.009l22.845-39.574c-2.677.535-5.45.84-8.297.84z"/><path id="path9_fill" d="M83.054 24.156l-.105-1.32C82.383 16.158 79.635 6.49 77.354 0H30.097c8.082 7.314 13.191 17.847 13.191 29.605 0 12.688-5.93 23.971-15.138 31.295L0 109.673c9.899 0 23.225-1.785 32.814-5.614l.325-.105.511-.215c3.268-1.354 6.501-2.839 9.649-4.66 2.817-1.62 5.455-3.438 8.002-5.338l.145-.115a81.53 81.53 0 0 0 6.941-5.91l.34-.294 1.107-1.125c4.844-4.844 9.003-10.193 12.396-15.962l.385-.566.696-1.404a81.317 81.317 0 0 0 3.022-6.064l1.181-2.775a81.195 81.195 0 0 0 2.087-5.94l.826-2.579a81.397 81.397 0 0 0 1.856-8.439l.196-1.62a82.2 82.2 0 0 0 .715-7.373l.045-1.985c.04-2.47-.01-4.954-.185-7.434z"/><path id="path10_fill" d="M130.135 39.939c-1.677-2.9-3.553-5.604-5.525-8.213l-.646-.8a77.138 77.138 0 0 0-5.63-6.495l-1.341-1.375c-2.177-2.14-4.434-4.17-6.801-6.024l-.521-.44c-2.637-2.03-5.4-3.854-8.247-5.524l-.571-.38-2.167-1.125c-1.25-.675-2.497-1.35-3.783-1.955-1.236-.575-2.482-1.085-3.728-1.6l-3.138-1.25c-1.516-.544-3.047-1.004-4.584-1.474l-2.552-.74c-1.672-.43-3.358-.77-5.04-1.095L73.48.98C71.838.714 70.197.55 68.55.394L65.853.12c-1.411-.09-2.817-.08-4.239-.1L58.141 0 55.44.195a79.974 79.974 0 0 0-17.82 3.24l-1.217.33c-1.486.48-2.952 1.064-4.424 1.64l-2.822 1.114c-1.211.515-2.407 1.12-3.609 1.715-1.16.57-2.326 1.145-3.468 1.78l-1.3.665-1.923 1.24a80.167 80.167 0 0 0-3.368 2.174c-1.08.755-2.146 1.525-3.188 2.315l-2.752 2.195a84.825 84.825 0 0 0-3.318 2.914l-2.042 1.99a78.43 78.43 0 0 0-3.443 3.65l-.745.9 22.775 39.468c5.23-16.002 20.278-27.585 38.05-27.585-.002-.001 69.31-.001 69.31-.001z"/><path id="path11_fill" d="M44.713 10.954C49.211-.81 40.473.012 40.473.012c-5.605 0-12.612 5.146-12.612 5.146s-8.36-2.27-16.718 2.825c-9.11 5.851-8.81 16.243-8.81 16.243C9.741 13.532 20.052 9.193 20.052 9.193V9.9C4.836 20.386 1.232 35.727.33 38.855-.57 41.983.03 49 6.438 49s12.913-5.2 12.913-5.2 1.401.302 5.206.302c16.017 0 19.821-14.226 19.821-14.226H30.162s-1.001 4.641-6.106 4.641c-7.007 0-6.607-7.364-6.607-7.364h27.128C45.88 8.185 29.462 5.46 29.462 5.46s5.801-4.136 10.811-4.136c7.94 0 4.186 9.374 4.186 9.374l.254.255zM18.557 43.589S8.78 49.569 4.39 45.426c-2.35-4.144 1.47-10.012 1.47-10.012s3.233 6.042 12.696 8.175zm11.76-22.892H17.415s-.164-6.337 6.614-6.337c6.545 0 6.288 6.337 6.288 6.337z"/></defs></svg>