<svg width="67" height="67" xmlns="http://www.w3.org/2000/svg" xmlns:xlink="http://www.w3.org/1999/xlink"><use xlink:href="#path0_fill" fill="#F4511E"/><defs><path id="path0_fill" d="M65.588 30.153L36.848 1.412C35.965.53 34.732 0 33.5 0c-1.233 0-2.466.53-3.347 1.412l-6.171 6.171 7.224 7.225c.71-.351 1.412-.524 2.294-.524 2.996 0 5.29 2.287 5.29 5.29 0 .881-.18 1.584-.53 2.286l7.052 7.053c.71-.351 1.412-.523 2.293-.523 2.996 0 5.29 2.286 5.29 5.29 0 2.995-2.294 5.288-5.29 5.288s-5.29-2.293-5.29-5.289c0-.882.18-1.59.531-2.293l-7.052-7.053c-.18 0-.352.172-.53.172v18.341c2.114.703 3.525 2.645 3.525 4.938 0 2.996-2.293 5.29-5.289 5.29-2.996 0-5.29-2.294-5.29-5.29 0-2.293 1.412-4.235 3.527-4.938V24.333c-2.115-.71-3.526-2.645-3.526-4.938 0-.882.179-1.584.53-2.294l-7.232-7.225L1.412 30.153C.53 31.034 0 32.267 0 33.5s.53 2.466 1.412 3.347l28.74 28.741C31.035 66.47 32.268 67 33.5 67c1.233 0 2.466-.53 3.347-1.412l28.741-28.74C66.47 35.965 67 34.732 67 33.5c0-1.233-.53-2.466-1.412-3.347z"/></defs></svg>