<svg width="31" height="31" viewBox="0 0 31 31" version="1.1" xmlns="http://www.w3.org/2000/svg" xmlns:xlink="http://www.w3.org/1999/xlink">
<title>iconmonstr-instagram-1</title>
<desc>Created using Figma</desc>
<g id="Canvas" transform="translate(-93 10)">
<g id="iconmonstr-instagram-1">
<g id="Vector">
<use xlink:href="#path0_fill" transform="translate(100 -3.5)" fill="#FFFFFF"/>
</g>
<g id="Ellipse">
<use xlink:href="#path1_stroke" transform="translate(94 -9.38656)" fill="#FFFFFF" style="mix-blend-mode:hard-light"/>
</g>
</g>
</g>
<defs>
<path id="path0_fill" d="M 8.6884 12.1909C 10.5705 12.1909 12.1002 10.6604 12.1002 8.7783C 12.1002 7.75677 11.6486 6.83965 10.9359 6.21325C 10.685 5.99357 10.403 5.81015 10.0963 5.67095C 9.66642 5.4752 9.19082 5.36572 8.68912 5.36572C 8.18742 5.36572 7.7111 5.4752 7.2819 5.67095C 6.9745 5.8116 6.69175 5.99502 6.44235 6.21397C 5.72822 6.84037 5.27655 7.7575 5.27655 8.77903C 5.27655 10.6604 6.80775 12.1909 8.6884 12.1909ZM 8.7 6.25747C 10.0927 6.25747 11.2223 7.3863 11.2223 8.77903C 11.2223 10.1718 10.0927 11.3013 8.7 11.3013C 7.30727 11.3013 6.17772 10.1725 6.17772 8.77903C 6.17772 7.3863 7.30727 6.25747 8.7 6.25747ZM 12.4867 6.525L 17.4 6.525L 17.4 13.9765C 17.4 15.8673 15.8673 17.4 13.9765 17.4L 3.46912 17.4C 1.57832 17.4 0 15.8673 0 13.9765L 0 6.525L 4.89158 6.525C 4.49718 7.18692 4.25937 7.95253 4.25937 8.77903C 4.25937 11.2252 6.24225 13.208 8.6884 13.208C 11.1345 13.208 13.1174 11.2252 13.1174 8.77903C 13.1181 7.95253 12.8803 7.18692 12.4867 6.525ZM 13.9765 6.43929e-16L 5.075 6.43929e-16L 5.075 3.625L 4.35 3.625L 4.35 6.43929e-16L 3.625 6.43929e-16L 3.625 3.625L 2.9 3.625L 2.9 0.055825C 2.64915 0.09715 2.40555 0.1595 2.175 0.251575L 2.175 3.625L 1.45 3.625L 1.45 0.65105C 0.57855 1.27238 0 2.2794 0 3.42345L 0 5.8L 5.41793 5.8C 6.264 4.87055 7.44647 4.35 8.6884 4.35C 9.93685 4.35 11.1179 4.87562 11.9589 5.8L 17.4 5.8L 17.4 3.42345C 17.4 1.53265 15.8673 6.43929e-16 13.9765 6.43929e-16ZM 15.95 3.81712C 15.95 4.11147 15.7086 4.35 15.4099 4.35L 13.5894 4.35C 13.2914 4.35 13.05 4.11147 13.05 3.81712L 13.05 1.98287C 13.05 1.68852 13.2914 1.45 13.5894 1.45L 15.4099 1.45C 15.7086 1.45 15.95 1.68852 15.95 1.98287L 15.95 3.81712Z"/>
<path id="path1_stroke" d="M 29.5 14.5C 29.5 14.1703 29.4894 13.843 29.4684 13.5185L 28.4705 13.583C 28.4901 13.8861 28.5 14.1918 28.5 14.5L 29.5 14.5ZM 29.2145 11.5731C 29.0863 10.925 28.9163 10.2919 28.7075 9.67673L 27.7606 9.99811C 27.9554 10.572 28.1139 11.1626 28.2335 11.7672L 29.2145 11.5731ZM 27.9558 7.86394C 27.6648 7.2748 27.3362 6.70759 26.9732 6.16541L 26.1422 6.72173C 26.481 7.22783 26.7877 7.75719 27.0593 8.3069L 27.9558 7.86394ZM 25.7777 4.6096C 25.3459 4.11761 24.8824 3.65414 24.3904 3.22234L 23.7308 3.97392C 24.1901 4.3771 24.6229 4.80986 25.0261 5.26924L 25.7777 4.6096ZM 22.8346 2.02682C 22.2924 1.66384 21.7252 1.33524 21.1361 1.04416L 20.6931 1.9407C 21.2428 2.2123 21.7722 2.51896 22.2783 2.85779L 22.8346 2.02682ZM 19.3233 0.292453C 18.7081 0.0836655 18.075 -0.086291 17.4269 -0.2145L 17.2328 0.766488C 17.8374 0.886102 18.428 1.04465 19.0019 1.2394L 19.3233 0.292453ZM 15.4815 -0.468384C 15.157 -0.489356 14.8297 -0.5 14.5 -0.5L 14.5 0.5C 14.8082 0.5 15.1139 0.509949 15.417 0.529535L 15.4815 -0.468384ZM 14.5 -0.5C 14.1703 -0.5 13.843 -0.489356 13.5185 -0.468384L 13.583 0.529535C 13.8861 0.509949 14.1918 0.5 14.5 0.5L 14.5 -0.5ZM 11.5731 -0.2145C 10.925 -0.0862912 10.2919 0.0836655 9.67673 0.292453L 9.99811 1.2394C 10.572 1.04465 11.1626 0.886102 11.7672 0.766488L 11.5731 -0.2145ZM 7.86394 1.04416C 7.2748 1.33524 6.70759 1.66384 6.16541 2.02682L 6.72173 2.85779C 7.22783 2.51896 7.75719 2.2123 8.3069 1.9407L 7.86394 1.04416ZM 4.6096 3.22234C 4.11761 3.65414 3.65414 4.11761 3.22234 4.6096L 3.97392 5.26924C 4.3771 4.80986 4.80986 4.3771 5.26924 3.97392L 4.6096 3.22234ZM 2.02682 6.16541C 1.66384 6.70759 1.33524 7.2748 1.04416 7.86394L 1.9407 8.3069C 2.2123 7.75719 2.51896 7.22783 2.85779 6.72173L 2.02682 6.16541ZM 0.292453 9.67673C 0.0836655 10.2919 -0.086291 10.925 -0.2145 11.5731L 0.766488 11.7672C 0.886102 11.1626 1.04465 10.572 1.2394 9.99811L 0.292453 9.67673ZM -0.468384 13.5185C -0.489356 13.843 -0.5 14.1703 -0.5 14.5L 0.5 14.5C 0.5 14.1918 0.509949 13.8861 0.529535 13.583L -0.468384 13.5185ZM -0.5 14.5C -0.5 14.8297 -0.489356 15.157 -0.468384 15.4815L 0.529535 15.417C 0.509949 15.1139 0.5 14.8082 0.5 14.5L -0.5 14.5ZM -0.2145 17.4269C -0.0862912 18.075 0.0836655 18.7081 0.292453 19.3233L 1.2394 19.0019C 1.04465 18.428 0.886102 17.8374 0.766488 17.2328L -0.2145 17.4269ZM 1.04416 21.1361C 1.33524 21.7252 1.66384 22.2924 2.02682 22.8346L 2.85779 22.2783C 2.51896 21.7722 2.2123 21.2428 1.9407 20.6931L 1.04416 21.1361ZM 3.22234 24.3904C 3.65414 24.8824 4.11761 25.3459 4.6096 25.7777L 5.26924 25.0261C 4.80986 24.6229 4.3771 24.1901 3.97392 23.7308L 3.22234 24.3904ZM 6.16541 26.9732C 6.70759 27.3362 7.2748 27.6648 7.86394 27.9558L 8.3069 27.0593C 7.75719 26.7877 7.22783 26.481 6.72173 26.1422L 6.16541 26.9732ZM 9.67673 28.7075C 10.2919 28.9163 10.925 29.0863 11.5731 29.2145L 11.7672 28.2335C 11.1626 28.1139 10.572 27.9554 9.99811 27.7606L 9.67673 28.7075ZM 13.5185 29.4684C 13.843 29.4894 14.1703 29.5 14.5 29.5L 14.5 28.5C 14.1918 28.5 13.8861 28.4901 13.583 28.4705L 13.5185 29.4684ZM 14.5 29.5C 14.8297 29.5 15.157 29.4894 15.4815 29.4684L 15.417 28.4705C 15.1139 28.4901 14.8082 28.5 14.5 28.5L 14.5 29.5ZM 17.4269 29.2145C 18.075 29.0863 18.7081 28.9163 19.3233 28.7075L 19.0019 27.7606C 18.428 27.9554 17.8374 28.1139 17.2328 28.2335L 17.4269 29.2145ZM 21.1361 27.9558C 21.7252 27.6648 22.2924 27.3362 22.8346 26.9732L 22.2783 26.1422C 21.7722 26.481 21.2428 26.7877 20.6931 27.0593L 21.1361 27.9558ZM 24.3904 25.7777C 24.8824 25.3459 25.3459 24.8824 25.7777 24.3904L 25.0261 23.7308C 24.6229 24.1901 24.1901 24.6229 23.7308 25.0261L 24.3904 25.7777ZM 26.9732 22.8346C 27.3362 22.2924 27.6648 21.7252 27.9558 21.1361L 27.0593 20.6931C 26.7877 21.2428 26.481 21.7722 26.1422 22.2783L 26.9732 22.8346ZM 28.7075 19.3233C 28.9163 18.7081 29.0863 18.075 29.2145 17.4269L 28.2335 17.2328C 28.1139 17.8374 27.9554 18.428 27.7606 19.0019L 28.7075 19.3233ZM 29.4684 15.4815C 29.4894 15.157 29.5 14.8297 29.5 14.5L 28.5 14.5C 28.5 14.8082 28.4901 15.1139 28.4705 15.417L 29.4684 15.4815Z"/>
</defs>
</svg>
