<svg width="31" height="31" xmlns="http://www.w3.org/2000/svg" xmlns:xlink="http://www.w3.org/1999/xlink"><g transform="translate(4.921 5.77)"><use xlink:href="#path0_fill" fill="#FFF"/><use xlink:href="#path0_fill" fill="url(#paint1_linear)"/></g><g transform="translate(1 1.42)"><use xlink:href="#path1_stroke" fill="#FFF" style="mix-blend-mode:hard-light"/><use xlink:href="#path1_stroke" fill="url(#paint3_linear)"/></g><defs><linearGradient id="paint1_linear" x2="1" gradientUnits="userSpaceOnUse" gradientTransform="matrix(0 20.3 -20.4277 0 20.428 0)"><stop offset="0" stop-color="#666463"/><stop offset="1" stop-color="#918484" stop-opacity="0"/></linearGradient><linearGradient id="paint3_linear" x2="1" gradientUnits="userSpaceOnUse" gradientTransform="matrix(0 29 -29 0 29 0)"><stop offset="0" stop-color="#666463"/><stop offset="1" stop-color="#FFF" stop-opacity="0"/></linearGradient><path id="path0_fill" d="M19.566 11.813C20.72 5.245 14.956-.377 8.456.835 3.503-2.177-2.184 3.563.853 8.472-.33 15.024 5.433 20.719 11.986 19.476c4.964 2.99 10.634-2.758 7.579-7.663zm-9.025 4.982c-2.707 0-5.429-1.224-5.415-3.333.004-.636.48-1.22 1.114-1.22 1.594 0 1.58 2.364 4.117 2.364 1.782 0 2.39-.969 2.39-1.644 0-2.44-7.698-.945-7.698-5.534 0-2.485 2.045-4.197 5.26-4.01 3.066.18 4.862 1.525 5.036 2.782.086.821-.461 1.46-1.412 1.46-1.386 0-1.528-1.844-3.915-1.844-1.078 0-1.987.446-1.987 1.416 0 2.026 7.652.85 7.652 5.308 0 2.57-2.062 4.256-5.142 4.256z"/><path id="path1_stroke" d="M29.5 14.5c0-.33-.01-.657-.032-.982l-.997.065c.02.303.029.609.029.917h1zm-.285-2.927a14.887 14.887 0 0 0-.508-1.896l-.946.321c.194.574.353 1.165.473 1.77l.98-.195zm-1.26-3.71c-.29-.588-.619-1.155-.982-1.698l-.83.557c.338.506.645 1.035.916 1.585l.897-.443zM25.779 4.61a15.089 15.089 0 0 0-1.388-1.388l-.66.752c.46.403.893.836 1.296 1.295l.752-.66zm-2.943-2.583a14.989 14.989 0 0 0-1.699-.983l-.443.897c.55.271 1.08.578 1.585.917l.557-.831zM19.323.292a14.892 14.892 0 0 0-1.896-.506l-.194.98c.604.12 1.195.279 1.769.473l.321-.947zm-3.841-.76A15.218 15.218 0 0 0 14.5-.5v1c.308 0 .614.01.917.03l.065-.998zM14.5-.5c-.33 0-.657.01-.982.032l.065.998c.303-.02.609-.03.917-.03v-1zm-2.927.285a14.89 14.89 0 0 0-1.896.507l.321.947a13.897 13.897 0 0 1 1.77-.473l-.195-.98zm-3.71 1.26c-.588.29-1.155.619-1.698.982l.557.83a13.984 13.984 0 0 1 1.585-.916l-.443-.897zM4.61 3.221A15.09 15.09 0 0 0 3.222 4.61l.752.66c.403-.46.836-.893 1.295-1.296l-.66-.752zM2.027 6.165c-.363.543-.692 1.11-.983 1.699l.897.443c.271-.55.578-1.08.917-1.585l-.831-.557zM.292 9.677a14.89 14.89 0 0 0-.506 1.896l.98.194c.12-.604.279-1.195.473-1.769l-.947-.321zm-.76 3.841c-.021.325-.032.652-.032.982h1c0-.308.01-.614.03-.917l-.998-.065zM-.5 14.5c0 .33.01.657.032.982l.998-.065C.51 15.114.5 14.808.5 14.5h-1zm.285 2.927c.129.648.299 1.281.507 1.896l.947-.321a13.898 13.898 0 0 1-.473-1.77l-.98.195zm1.26 3.71c.29.588.619 1.155.982 1.698l.83-.557a13.985 13.985 0 0 1-.916-1.585l-.897.443zm2.177 3.253c.432.492.896.956 1.388 1.388l.66-.752c-.46-.403-.893-.836-1.296-1.295l-.752.66zm2.943 2.583c.543.363 1.11.692 1.699.983l.443-.897c-.55-.271-1.08-.578-1.585-.917l-.557.831zm3.512 1.735c.615.208 1.248.378 1.896.507l.194-.982a13.886 13.886 0 0 1-1.769-.472l-.321.947zm3.841.76c.325.021.652.032.982.032v-1c-.308 0-.614-.01-.917-.03l-.065.998zm.982.032c.33 0 .657-.01.982-.032l-.065-.997c-.303.02-.609.029-.917.029v1zm2.927-.285a14.889 14.889 0 0 0 1.896-.508l-.321-.946c-.574.194-1.165.353-1.77.473l.195.98zm3.71-1.26c.588-.29 1.155-.619 1.698-.982l-.557-.83a13.99 13.99 0 0 1-1.585.916l.443.897zm3.253-2.177c.492-.432.956-.896 1.388-1.388l-.752-.66c-.403.46-.836.893-1.295 1.296l.66.752zm2.583-2.943c.363-.543.692-1.11.983-1.699l-.897-.443a13.99 13.99 0 0 1-.917 1.585l.831.557zm1.735-3.512c.208-.615.378-1.248.507-1.896l-.982-.194c-.12.604-.278 1.195-.472 1.769l.947.321zm.76-3.841c.021-.325.032-.652.032-.982h-1c0 .308-.01.614-.03.917l.998.065z"/></defs></svg>