<svg width="95" height="53" xmlns="http://www.w3.org/2000/svg" xmlns:xlink="http://www.w3.org/1999/xlink"><g transform="translate(66)"><use xlink:href="#path0_fill" fill="#FFF"/><use xlink:href="#path0_fill" fill="url(#paint1_linear)"/></g><g transform="translate(0 7.046)"><use xlink:href="#path1_fill" fill="#FFF"/><use xlink:href="#path1_fill" fill="url(#paint3_linear)"/></g><g transform="translate(18.994 1.252)"><use xlink:href="#path2_fill" fill="#FFF"/><use xlink:href="#path2_fill" fill="url(#paint5_linear)"/></g><g transform="translate(0 45.224)"><use xlink:href="#path3_fill" fill="#FFF"/><use xlink:href="#path3_fill" fill="url(#paint7_linear)"/></g><defs><linearGradient id="paint1_linear" x2="1" gradientUnits="userSpaceOnUse" gradientTransform="matrix(0 17.3392 -22.8472 0 22.847 0)"><stop offset="0" stop-color="#666463"/><stop offset="1" stop-color="#080707" stop-opacity="0"/></linearGradient><linearGradient id="paint3_linear" x2="1" gradientUnits="userSpaceOnUse" gradientTransform="matrix(0 25.3414 -27.8572 0 27.857 0)"><stop offset="0" stop-color="#666463"/><stop offset="1" stop-color="#080707" stop-opacity="0"/></linearGradient><linearGradient id="paint5_linear" x2="1" gradientUnits="userSpaceOnUse" gradientTransform="matrix(0 40.5602 -65.8442 0 65.844 0)"><stop offset="0" stop-color="#666463"/><stop offset="1" stop-color="#080707" stop-opacity="0"/></linearGradient><linearGradient id="paint7_linear" x2="1" gradientUnits="userSpaceOnUse" gradientTransform="matrix(0 7.77551 -95 0 95 0)"><stop offset="0" stop-color="#666463"/><stop offset="1" stop-color="#080707" stop-opacity="0"/></linearGradient><path id="path0_fill" d="M.01 7.558C.77 5.29 4.18 5.454 4.062 5.29 3.945 5.127 6.088 0 9.38 0c2.533 0 3.602 1.088 4.812 3.527 2.107-.18 3.083.043 4.305 1.26.366.978.253 2.015.253 2.519s4.598-.098 4.052 3.275c-.113 2.327-1.225 2.954-4.052 3.527h-1.52c-1.371 1.461-2.42 1.711-3.545 2.267-1.124.556-2.83 1.553-4.305.504-1.533-1.091-1.612-5.207-8.389-5.039-.506 0-1.074-3.587-.98-4.282z"/><path id="path1_fill" d="M17.474 23.178c-.325-2.11-.506-1.512-.506-3.527 0-2.031.253-3.023 1.519-5.29 1.266-2.016 2.122-2.634 4.052-3.78 1.753-1.094 3.799-1.51 4.558-1.763.76-.252.76-1.26.76-1.763-.253-2.52-.453-3.527-.506-3.78-.054-.25-1.587-1.818-2.786-2.518C22.889.042 22.14-.008 20.26 0c-2.036.265-2.94.698-4.305 1.763-1.106 1.224-1.63 2.022-2.28 3.78a51.28 51.28 0 0 0-.76 2.267c-.008.05-.427.817-.506.755-.08-.061-.94-.554-1.773-.504-.832.051-1.772.252-2.532 1.008-.53.527-.799 1.535-1.52 2.268-.72.732-2.773.276-4.052 1.007C.82 13.848.327 14.864 0 16.88c.413 2.028.977 2.593 2.026 3.527 1.42.689 2.31.905 4.052 1.008H8.61c.264 1.224.486 1.72 1.013 2.267 1.512 1.053 1.646.965 3.293 1.511 2.71.394 4.883.094 4.558-2.015z"/><path id="path2_fill" fill-rule="evenodd" d="M0 25.445c.504-3.192 1.33-4.54 3.292-6.55 2.533-1.764 6.331-2.016 6.585-2.52.253-.504.175-3.085 1.013-5.038.837-1.954 1.398-2.87 3.039-3.275 2.532-.504 6.1.34 6.584 0 .485-.34 2.742-4.008 4.812-5.795C27.863.655 29.379.264 32.162 0c3.694.418 4.959 1.06 7.091 2.267 2.228 1.903 3.258 3.098 4.559 5.543.656 2.088.948 3.249 1.266 5.29 1.936-.169 3.308-.346 5.571 0 3.04 1.008 3.316 2.607 4.306 4.535 2.59.716 2.081.176 5.824 1.511 3.743 1.336 4.925 4.029 5.065 7.306-.125 3.529-1.782 4.755-4.811 6.55-3.03 1.796-6.913.26-8.61 1.008-1.7.748-2.28 3.023-3.04 4.03-1.37 1.87-2.418 2.121-4.305 2.52-2.217.008-3.292-.252-5.065-.756-2.026-.756-2.508-.956-3.799-1.763-1.889.788-3.02 1.07-5.065 1.511-1.42.38-2.29.509-4.052.504-2.372-.235-3.81-.56-6.584-1.511-2.904-1.458-4.353-2.497-6.584-4.787-3.147.023-4.794-.172-7.598-.756-1.436-.604-2.158-.99-3.292-1.763-1.375-.973-1.819-1.611-2.533-2.771C.121 27.287.028 26.625 0 25.445zm13.169-1.008v-3.78L27.857 13.1l-1.013 4.03-10.13 5.543 6.838 5.795-.76 3.526-9.623-7.557zm12.662 7.81L31.403 13.1h3.545l-5.571 19.146H25.83zm11.143-15.62l1.013-3.527 10.13 8.566-1.52 3.527-14.181 6.801 1.013-3.778 10.13-5.795-6.585-5.794z"/><path id="path3_fill" d="M5.48 7.672l-.375-1.415H2.638l-.384 1.415H0L2.477.088h2.737l2.509 7.584H5.479zm-.8-3.09l-.328-1.24c-.076-.275-.17-.631-.28-1.069-.108-.437-.179-.75-.213-.94-.031.176-.094.465-.187.868-.09.403-.293 1.197-.608 2.382H4.68zm5.92.342v2.748H8.549V.12h2.487c2.064 0 3.096.744 3.096 2.232 0 .875-.43 1.551-1.288 2.03l2.212 3.291H12.73l-1.61-2.748h-.52zm0-1.535h.384c.717 0 1.075-.315 1.075-.945 0-.52-.351-.78-1.054-.78H10.6v1.725zm8.497 4.283h-2.052V1.788h-1.854V.118h5.754v1.67h-1.848v5.884zm7.442 0h-4.508V.12h4.508v1.638h-2.457v1.188h2.275v1.638h-2.274V6.01h2.456v1.663zm4.638 0l-1.553-5.44h-.047c.073.926.11 1.646.11 2.16v3.28h-1.818V.12H30.6l1.584 5.363h.042L33.779.119h2.737v7.553H34.63V4.36c0-.172.002-.363.006-.573.007-.21.03-.725.072-1.545h-.046l-1.532 5.43h-1.953zm9.738 0V.12h2.062v7.553h-2.062zm3.708 0V.12h2.051v5.905h2.924v1.648h-4.975zm9.572-5.988c-.488 0-.87.2-1.143.6-.273.396-.41.943-.41 1.642 0 1.454.555 2.18 1.667 2.18.336 0 .661-.046.976-.139.315-.093.632-.205.95-.336v1.726c-.633.279-1.35.418-2.15.418-1.146 0-2.025-.33-2.638-.991-.61-.662-.914-1.618-.914-2.868 0-.782.147-1.469.441-2.061A3.172 3.172 0 0 1 52.252.49c.558-.32 1.212-.48 1.964-.48.82 0 1.604.177 2.352.531L55.94 2.15a7.123 7.123 0 0 0-.842-.33 2.957 2.957 0 0 0-.903-.135zm10.033 5.988h-2.061V4.593h-2.384v3.08h-2.062V.118h2.062v2.8h2.383v-2.8h2.063v7.553zm6.155 0h-4.508V.12h4.508v1.638h-2.457v1.188h2.275v1.638h-2.275V6.01h2.457v1.663zm8.559 0h-2.69l-2.774-5.321h-.046c.065.837.098 1.476.098 1.916v3.405h-1.818V.12h2.68l2.763 5.249h.032a30.178 30.178 0 0 1-.073-1.834V.119h1.828v7.553zm8.128 0h-2.317l-1.5-2.888-.608.362v2.526h-2.062V.12h2.062V3.4c.103-.203.313-.525.628-.966L84.868.12h2.243l-2.394 3.384 2.353 4.17zM95 3.885c0 1.271-.313 2.237-.94 2.899-.627.66-1.544.992-2.752.992-1.192 0-2.105-.333-2.743-.998-.633-.664-.95-1.632-.95-2.903 0-1.257.315-2.217.945-2.878C89.194.332 90.113 0 91.318 0c1.208 0 2.124.329 2.748.987.623.658.934 1.624.934 2.898zm-5.225 0c0 1.46.511 2.19 1.533 2.19.519 0 .903-.177 1.152-.531.253-.355.38-.908.38-1.659 0-.754-.128-1.31-.385-1.669-.252-.361-.632-.542-1.137-.542-1.028 0-1.543.737-1.543 2.211z"/></defs></svg>