<svg xmlns="http://www.w3.org/2000/svg" viewBox="0 0 300 300"><path d="M289.4 181.8c2.1-9.8 3.3-19.9 3.3-30.3 0-77.9-63.2-141.1-141.1-141.1-8.2 0-16.3.7-24.1 2.1C114.8 4.6 99.9 0 83.9 0 38.7 0 2.1 36.6 2.1 81.8c0 15.1 4.1 29.2 11.2 41.4-1.9 9.2-2.9 18.7-2.9 28.4 0 77.9 63.2 141.1 141.1 141.1 8.8 0 17.5-.8 25.8-2.4 11.5 6.2 24.7 9.7 38.7 9.7 45.2 0 81.8-36.6 81.8-81.8.1-13.1-3-25.4-8.4-36.4zM223.9 219c-6.5 9.2-16.2 16.6-28.7 21.7-12.4 5.1-27.2 7.8-44.1 7.8-20.3 0-37.3-3.6-50.5-10.6-9.5-5.1-17.3-12.1-23.2-20.6-6-8.6-9-17.2-9-25.5 0-5.2 2-9.7 5.9-13.3 3.9-3.6 8.8-5.5 14.7-5.5 4.8 0 9 1.5 12.4 4.3 3.2 2.8 6 6.8 8.3 12.1 2.5 5.7 5.2 10.6 8.1 14.4 2.8 3.7 6.7 6.7 11.8 9.1 5.1 2.4 12 3.6 20.5 3.6 11.7 0 21.2-2.5 28.4-7.4 7-4.8 10.4-10.6 10.4-17.6 0-5.6-1.8-9.9-5.4-13.4-3.8-3.6-8.9-6.4-15.1-8.3-6.4-2-15.1-4.2-25.9-6.4-14.6-3.1-27-6.8-36.9-11h-.1c-10.1-4.3-18.3-10.3-24.2-17.7-6.1-7.6-9.1-17.1-9.1-28.3 0-10.7 3.2-20.3 9.6-28.6 6.3-8.2 15.5-14.6 27.4-19 11.7-4.3 25.6-6.5 41.4-6.5 12.6 0 23.7 1.5 32.9 4.3 9.3 2.9 17.1 6.8 23.3 11.6 6.2 4.8 10.8 10 13.7 15.4 2.9 5.4 4.4 10.9 4.4 16.1 0 5-1.9 9.6-5.8 13.6s-8.7 6.1-14.5 6.1c-5.2 0-9.3-1.3-12.2-3.8-2.6-2.3-5.4-6-8.4-11.2-3.5-6.7-7.8-12-12.7-15.7-4.7-3.6-12.7-5.4-23.6-5.4-10.1 0-18.3 2-24.4 6-5.9 3.9-8.7 8.3-8.7 13.5 0 3.2.9 5.9 2.8 8.2 2 2.4 4.8 4.6 8.4 6.4 3.7 1.9 7.5 3.3 11.4 4.4 3.9 1.1 10.5 2.7 19.5 4.8 9.5 2 18.4 4.3 26.4 6.7l4.8 1.5c9.4 3 17.5 6.7 24.1 11 6.8 4.4 12.1 10.1 15.9 16.8 3.8 6.8 5.7 15.1 5.7 24.8.2 11.7-3.1 22.3-9.7 31.6z" fill="#fff"/></svg>