<svg xmlns="http://www.w3.org/2000/svg" xmlns:xlink="http://www.w3.org/1999/xlink"><defs><path id="a" fill-rule="evenodd" d="M16.968 18.283c.297.211.68.264 1.022.134.341-.13.593-.422.668-.776.802-3.775 2.748-13.33 3.478-16.765a.722.722 0 0 0-.24-.7.738.738 0 0 0-.736-.13C17.29 1.481 5.372 5.96.5 7.765a.764.764 0 0 0-.5.738c.011.328.231.611.548.707 2.184.654 5.052 1.565 5.052 1.565s1.34 4.053 2.039 6.114a.81.81 0 0 0 .556.533c.266.07.55-.004.749-.192l2.857-2.702s3.297 2.421 5.167 3.755zm-10.162-8.02l1.55 5.119.344-3.242 9.4-8.491c.1-.091.114-.243.031-.349a.262.262 0 0 0-.347-.059L6.806 10.262z"/><path id="a" d="M8.905 12.435A3.492 3.492 0 0 0 12.4 8.954a3.469 3.469 0 0 0-1.193-2.617 3.507 3.507 0 0 0-2.303-.864 3.48 3.48 0 0 0-2.302.865 3.465 3.465 0 0 0-1.195 2.617c0 1.918 1.57 3.48 3.497 3.48zm.011-6.052a2.579 2.579 0 0 1 2.585 2.572 2.58 2.58 0 0 1-2.585 2.572 2.579 2.579 0 0 1-2.585-2.572 2.579 2.579 0 0 1 2.585-2.572zm3.881.272h5.036v7.601a3.5 3.5 0 0 1-3.509 3.492H3.555C1.618 17.748 0 16.185 0 14.256v-7.6h5.013a4.457 4.457 0 0 0-.648 2.299c0 2.495 2.033 4.517 4.54 4.517s4.539-2.022 4.539-4.517c0-.843-.243-1.624-.647-2.3zM14.324 0H5.201v3.697h-.743V0h-.743v3.697h-.743V.057a3.573 3.573 0 0 0-.743.2v3.44h-.743V.664C.593 1.298 0 2.325 0 3.492v2.424h5.553a4.532 4.532 0 0 1 3.352-1.479c1.279 0 2.49.536 3.351 1.479h5.577V3.492A3.5 3.5 0 0 0 14.324 0zm2.023 3.893c0 .3-.248.544-.554.544h-1.866a.548.548 0 0 1-.552-.544v-1.87c0-.3.247-.544.552-.544h1.866c.306 0 .554.243.554.544v1.87z"/><path id="a" d="M20.675 2.101a8.119 8.119 0 0 1-2.436.705A4.453 4.453 0 0 0 20.104.328a8.228 8.228 0 0 1-2.694 1.087C16.637.545 15.534 0 14.314 0c-2.739 0-4.751 2.699-4.133 5.5C6.657 5.315 3.532 3.53 1.44.82.33 2.834.863 5.468 2.751 6.802a4.054 4.054 0 0 1-1.92-.56c-.046 2.075 1.362 4.017 3.402 4.45a4.031 4.031 0 0 1-1.916.076c.54 1.78 2.106 3.074 3.963 3.11-1.783 1.478-4.03 2.137-6.28 1.857a11.548 11.548 0 0 0 6.502 2.013c7.876 0 12.325-7.026 12.056-13.327a8.921 8.921 0 0 0 2.117-2.32z"/><path id="a" d="M19.927 12.049C21.104 5.349 15.232-.385 8.613.85 3.567-2.22-2.226 3.635.867 8.641-.335 15.325 5.535 21.134 12.21 19.865c5.055 3.051 10.83-2.812 7.718-7.816zm-9.191 5.082c-2.758 0-5.53-1.249-5.515-3.4.004-.649.489-1.244 1.134-1.244 1.624 0 1.608 2.412 4.194 2.412 1.814 0 2.433-.99 2.433-1.678 0-2.49-7.84-.963-7.84-5.644 0-2.535 2.083-4.281 5.357-4.09 3.123.183 4.953 1.555 5.13 2.837.087.838-.47 1.49-1.439 1.49-1.411 0-1.556-1.882-3.987-1.882-1.098 0-2.024.456-2.024 1.444 0 2.067 7.794.867 7.794 5.415-.001 2.622-2.1 4.34-5.237 4.34z"/></defs><symbol id="telegram 1" viewBox="0 0 24 19"><title>telegram-1</title><desc>Created using Figma</desc><use xlink:href="#a" transform="translate(.926 .162)" fill="#FFF"/></symbol><symbol id="Vector-1" viewBox="0 0 19 19"><title>Vector</title><desc>Created using Figma</desc><use xlink:href="#a" transform="translate(.944 .53)" fill="#FFF"/></symbol><symbol id="Vector-2" viewBox="0 0 22 19"><title>Vector</title><desc>Created using Figma</desc><use xlink:href="#a" transform="translate(.895 .723)" fill="#FFF"/></symbol><symbol id="Vector" viewBox="0 0 22 22"><title>Vector</title><desc>Created using Figma</desc><use xlink:href="#a" transform="translate(.994 .857)" fill="#FFF"/></symbol></svg>
