<svg width="29" height="29" viewBox="0 0 29 29" version="1.1" xmlns="http://www.w3.org/2000/svg" xmlns:xlink="http://www.w3.org/1999/xlink">
<title>Group</title>
<desc>Created using Figma</desc>
<g id="Canvas" transform="translate(276 50)">
<g id="Group">
<g id="Ellipse">
<mask id="mask0_outline_ins">
<use xlink:href="#path0_fill" fill="white" transform="translate(-276 -50)"/>
</mask>
<g mask="url(#mask0_outline_ins)">
<use xlink:href="#path1_stroke_2x" transform="translate(-276 -50)" fill="#FFFFFF"/>
</g>
</g>
<g id="telegram 1">
<g id="Canvas">
<g id="telegram 1">
<g id="Vector">
<use xlink:href="#path2_fill" transform="translate(-273 -44)" fill="#FFFFFF"/>
</g>
</g>
</g>
</g>
</g>
</g>
<defs>
<path id="path0_fill" d="M 29 14.5C 29 22.5081 22.5081 29 14.5 29C 6.49187 29 0 22.5081 0 14.5C 0 6.49187 6.49187 0 14.5 0C 22.5081 0 29 6.49187 29 14.5Z"/>
<path id="path1_stroke_2x" d="M 29.5 14.5C 29.5 14.1038 29.4846 13.7111 29.4544 13.3225L 28.4574 13.3999C 28.4856 13.7628 28.5 14.1297 28.5 14.5L 29.5 14.5ZM 29.0887 10.9972C 28.9042 10.226 28.6601 9.47787 28.3616 8.75805L 27.4379 9.1411C 27.7163 9.81261 27.944 10.5105 28.1161 11.2299L 29.0887 10.9972ZM 27.2912 6.66124C 26.879 5.99001 26.4155 5.35379 25.9062 4.758L 25.1461 5.4078C 25.6217 5.96409 26.0544 6.55804 26.4391 7.18453L 27.2912 6.66124ZM 24.242 3.09379C 23.6462 2.58446 23.01 2.12096 22.3388 1.70877L 21.8155 2.56092C 22.442 2.94564 23.0359 3.37833 23.5922 3.8539L 24.242 3.09379ZM 20.242 0.638405C 19.5221 0.339907 18.774 0.0958229 18.0028 -0.0887012L 17.7701 0.883851C 18.4895 1.05598 19.1874 1.28367 19.8589 1.56213L 20.242 0.638405ZM 15.6775 -0.454438C 15.2889 -0.484629 14.8962 -0.5 14.5 -0.5L 14.5 0.5C 14.8703 0.5 15.2372 0.514366 15.6001 0.542558L 15.6775 -0.454438ZM 14.5 -0.5C 14.1038 -0.5 13.7111 -0.484629 13.3225 -0.454438L 13.3999 0.542558C 13.7628 0.514366 14.1297 0.5 14.5 0.5L 14.5 -0.5ZM 10.9972 -0.0887012C 10.226 0.0958229 9.47787 0.339907 8.75805 0.638405L 9.1411 1.56213C 9.81261 1.28367 10.5105 1.05598 11.2299 0.883851L 10.9972 -0.0887012ZM 6.66124 1.70877C 5.99001 2.12096 5.35379 2.58446 4.758 3.09379L 5.4078 3.8539C 5.96409 3.37833 6.55804 2.94564 7.18453 2.56092L 6.66124 1.70877ZM 3.09379 4.758C 2.58446 5.35379 2.12096 5.99001 1.70877 6.66124L 2.56092 7.18453C 2.94564 6.55804 3.37833 5.96409 3.8539 5.4078L 3.09379 4.758ZM 0.638405 8.75805C 0.339907 9.47787 0.0958229 10.226 -0.0887012 10.9972L 0.883851 11.2299C 1.05598 10.5105 1.28367 9.81261 1.56213 9.1411L 0.638405 8.75805ZM -0.454438 13.3225C -0.484629 13.7111 -0.5 14.1038 -0.5 14.5L 0.5 14.5C 0.5 14.1297 0.514366 13.7628 0.542558 13.3999L -0.454438 13.3225ZM -0.5 14.5C -0.5 14.8962 -0.484629 15.2889 -0.454438 15.6775L 0.542558 15.6001C 0.514366 15.2372 0.5 14.8703 0.5 14.5L -0.5 14.5ZM -0.0887012 18.0028C 0.0958229 18.774 0.339907 19.5221 0.638405 20.242L 1.56213 19.8589C 1.28367 19.1874 1.05598 18.4895 0.883851 17.7701L -0.0887012 18.0028ZM 1.70877 22.3388C 2.12096 23.01 2.58446 23.6462 3.09379 24.242L 3.8539 23.5922C 3.37833 23.0359 2.94564 22.442 2.56092 21.8155L 1.70877 22.3388ZM 4.758 25.9062C 5.35379 26.4155 5.99001 26.879 6.66124 27.2912L 7.18453 26.4391C 6.55804 26.0544 5.96409 25.6217 5.4078 25.1461L 4.758 25.9062ZM 8.75805 28.3616C 9.47787 28.6601 10.226 28.9042 10.9972 29.0887L 11.2299 28.1161C 10.5105 27.944 9.81261 27.7163 9.1411 27.4379L 8.75805 28.3616ZM 13.3225 29.4544C 13.7111 29.4846 14.1038 29.5 14.5 29.5L 14.5 28.5C 14.1297 28.5 13.7628 28.4856 13.3999 28.4574L 13.3225 29.4544ZM 14.5 29.5C 14.8962 29.5 15.2889 29.4846 15.6775 29.4544L 15.6001 28.4574C 15.2372 28.4856 14.8703 28.5 14.5 28.5L 14.5 29.5ZM 18.0028 29.0887C 18.774 28.9042 19.5221 28.6601 20.242 28.3616L 19.8589 27.4379C 19.1874 27.7163 18.4895 27.944 17.7701 28.1161L 18.0028 29.0887ZM 22.3388 27.2912C 23.01 26.879 23.6462 26.4155 24.242 25.9062L 23.5922 25.1461C 23.0359 25.6217 22.442 26.0544 21.8155 26.4391L 22.3388 27.2912ZM 25.9062 24.242C 26.4155 23.6462 26.879 23.01 27.2912 22.3388L 26.4391 21.8155C 26.0544 22.442 25.6217 23.0359 25.1461 23.5922L 25.9062 24.242ZM 28.3616 20.242C 28.6601 19.5221 28.9042 18.774 29.0887 18.0028L 28.1161 17.7701C 27.944 18.4895 27.7163 19.1874 27.4379 19.8589L 28.3616 20.242ZM 29.4544 15.6775C 29.4846 15.2889 29.5 14.8962 29.5 14.5L 28.5 14.5C 28.5 14.8703 28.4856 15.2372 28.4574 15.6001L 29.4544 15.6775ZM 30 14.5C 30 14.0909 29.9841 13.6853 29.9529 13.2838L 27.9589 13.4387C 27.9861 13.7887 28 14.1426 28 14.5L 30 14.5ZM 29.575 10.8809C 29.3843 10.0837 29.132 9.3105 28.8235 8.56652L 26.976 9.33263C 27.2445 9.97998 27.4639 10.6527 27.6299 11.3463L 29.575 10.8809ZM 27.7173 6.39959C 27.2914 5.706 26.8125 5.04863 26.2863 4.4331L 24.766 5.7327C 25.2247 6.26924 25.642 6.84206 26.013 7.44618L 27.7173 6.39959ZM 24.5669 2.71374C 23.9514 2.18753 23.294 1.70862 22.6004 1.2827L 21.5538 2.987C 22.1579 3.35798 22.7308 3.77527 23.2673 4.23395L 24.5669 2.71374ZM 20.4335 0.176542C 19.6895 -0.131973 18.9163 -0.384257 18.1191 -0.574977L 17.6537 1.37013C 18.3473 1.53606 19.02 1.75555 19.6674 2.02399L 20.4335 0.176542ZM 15.7162 -0.952936C 15.3147 -0.984127 14.9091 -1 14.5 -1L 14.5 1C 14.8574 1 15.2113 1.01386 15.5613 1.04106L 15.7162 -0.952936ZM 14.5 -1C 14.0909 -1 13.6853 -0.984127 13.2838 -0.952936L 13.4387 1.04106C 13.7887 1.01386 14.1426 1 14.5 1L 14.5 -1ZM 10.8809 -0.574977C 10.0837 -0.384257 9.3105 -0.131973 8.56652 0.176542L 9.33263 2.02399C 9.97998 1.75555 10.6527 1.53606 11.3463 1.37013L 10.8809 -0.574977ZM 6.39959 1.2827C 5.706 1.70862 5.04863 2.18753 4.4331 2.71374L 5.7327 4.23395C 6.26924 3.77527 6.84206 3.35798 7.44618 2.987L 6.39959 1.2827ZM 2.71374 4.4331C 2.18753 5.04863 1.70862 5.706 1.2827 6.39959L 2.987 7.44618C 3.35798 6.84206 3.77527 6.26924 4.23395 5.7327L 2.71374 4.4331ZM 0.176542 8.56652C -0.131973 9.3105 -0.384257 10.0837 -0.574977 10.8809L 1.37013 11.3463C 1.53606 10.6527 1.75555 9.97998 2.02399 9.33263L 0.176542 8.56652ZM -0.952936 13.2838C -0.984127 13.6853 -1 14.0909 -1 14.5L 1 14.5C 1 14.1426 1.01386 13.7887 1.04106 13.4387L -0.952936 13.2838ZM -1 14.5C -1 14.9091 -0.984127 15.3147 -0.952936 15.7162L 1.04106 15.5613C 1.01386 15.2113 1 14.8574 1 14.5L -1 14.5ZM -0.574977 18.1191C -0.384257 18.9163 -0.131973 19.6895 0.176542 20.4335L 2.02399 19.6674C 1.75555 19.02 1.53606 18.3473 1.37013 17.6537L -0.574977 18.1191ZM 1.2827 22.6004C 1.70862 23.294 2.18753 23.9514 2.71374 24.5669L 4.23395 23.2673C 3.77527 22.7308 3.35798 22.1579 2.987 21.5538L 1.2827 22.6004ZM 4.4331 26.2863C 5.04863 26.8125 5.706 27.2914 6.39959 27.7173L 7.44618 26.013C 6.84206 25.642 6.26924 25.2247 5.7327 24.766L 4.4331 26.2863ZM 8.56652 28.8235C 9.3105 29.132 10.0837 29.3843 10.8809 29.575L 11.3463 27.6299C 10.6527 27.4639 9.97998 27.2445 9.33263 26.976L 8.56652 28.8235ZM 13.2838 29.9529C 13.6853 29.9841 14.0909 30 14.5 30L 14.5 28C 14.1426 28 13.7887 27.9861 13.4387 27.9589L 13.2838 29.9529ZM 14.5 30C 14.9091 30 15.3147 29.9841 15.7162 29.9529L 15.5613 27.9589C 15.2113 27.9861 14.8574 28 14.5 28L 14.5 30ZM 18.1191 29.575C 18.9163 29.3843 19.6895 29.132 20.4335 28.8235L 19.6674 26.976C 19.02 27.2445 18.3473 27.4639 17.6537 27.6299L 18.1191 29.575ZM 22.6004 27.7173C 23.294 27.2914 23.9514 26.8125 24.5669 26.2863L 23.2673 24.766C 22.7308 25.2247 22.1579 25.642 21.5538 26.013L 22.6004 27.7173ZM 26.2863 24.5669C 26.8125 23.9514 27.2914 23.294 27.7173 22.6004L 26.013 21.5538C 25.642 22.1579 25.2247 22.7308 24.766 23.2673L 26.2863 24.5669ZM 28.8235 20.4335C 29.132 19.6895 29.3843 18.9163 29.575 18.1191L 27.6299 17.6537C 27.4639 18.3473 27.2445 19.02 26.976 19.6674L 28.8235 20.4335ZM 29.9529 15.7162C 29.9841 15.3147 30 14.9091 30 14.5L 28 14.5C 28 14.8574 27.9861 15.2113 27.9589 15.5613L 29.9529 15.7162Z"/>
<path id="path2_fill" fill-rule="evenodd" d="M 16.086 16.8123C 16.3677 17.0061 16.7308 17.0545 17.0546 16.9356C 17.3783 16.8157 17.6163 16.5471 17.688 16.2215C 18.4484 12.7501 20.2928 3.96368 20.985 0.805928C 21.0375 0.567927 20.95 0.320577 20.7575 0.161627C 20.5649 0.00267605 20.2981 -0.0432242 20.0601 0.042626C 16.3913 1.36183 5.09272 5.48009 0.474586 7.14014C 0.181468 7.24553 -0.00927665 7.51924 0.000348114 7.81929C 0.0108479 8.12019 0.219093 8.38114 0.51921 8.46869C 2.59029 9.07049 5.30884 9.90774 5.30884 9.90774C 5.30884 9.90774 6.57931 13.635 7.24167 15.5305C 7.32479 15.7685 7.51641 15.9555 7.76929 16.0201C 8.02128 16.0839 8.29077 16.0167 8.47889 15.8441C 9.54283 14.8683 11.1878 13.3596 11.1878 13.3596C 11.1878 13.3596 14.3133 15.5858 16.086 16.8123ZM 6.45244 9.43684L 7.92153 14.1442L 8.2479 11.1632C 8.2479 11.1632 13.9239 6.18984 17.1596 3.35508C 17.254 3.27178 17.2672 3.13238 17.1884 3.03463C 17.1106 2.93688 16.967 2.91393 16.8594 2.98023C 13.1093 5.30668 6.45244 9.43684 6.45244 9.43684Z"/>
</defs>
</svg>
