<svg width="24" height="19" viewBox="0 0 24 19" version="1.1" xmlns="http://www.w3.org/2000/svg" xmlns:xlink="http://www.w3.org/1999/xlink">
<title>telegram 1</title>
<desc>Created using Figma</desc>
<g id="Canvas" transform="translate(-96 101)">
<g id="telegram 1">
<use xlink:href="#path0_fill" transform="translate(96.9257 -100.838)" fill="#FFFFFF"/>
</g>
</g>
<defs>
<path id="path0_fill" fill-rule="evenodd" d="M 16.9682 18.2833C 17.2654 18.494 17.6484 18.5467 17.9899 18.4173C 18.3314 18.287 18.5825 17.9949 18.6581 17.6408C 19.4602 13.8657 21.4058 4.31048 22.1359 0.876441C 22.1913 0.617617 22.099 0.348625 21.8959 0.175768C 21.6928 0.00291016 21.4113 -0.047006 21.1603 0.0463555C 17.2903 1.48098 5.37203 5.95956 0.500615 7.76485C 0.191421 7.87947 -0.00978543 8.17712 0.000367206 8.50342C 0.0114428 8.83065 0.231109 9.11443 0.547686 9.20964C 2.73235 9.8641 5.6 10.7746 5.6 10.7746C 5.6 10.7746 6.94015 14.828 7.63884 16.8893C 7.72652 17.1481 7.92865 17.3515 8.19539 17.4218C 8.4612 17.4911 8.74547 17.4181 8.94391 17.2304C 10.0662 16.1692 11.8014 14.5285 11.8014 14.5285C 11.8014 14.5285 15.0983 16.9494 16.9682 18.2833ZM 6.80632 10.2625L 8.35598 15.3817L 8.70025 12.1399C 8.70025 12.1399 14.6875 6.73141 18.1007 3.64863C 18.2003 3.55804 18.2142 3.40644 18.1311 3.30014C 18.049 3.19384 17.8976 3.16888 17.7841 3.24098C 13.8283 5.77098 6.80632 10.2625 6.80632 10.2625Z"/>
</defs>
</svg>
