<svg width="22" height="22" viewBox="0 0 22 22" version="1.1" xmlns="http://www.w3.org/2000/svg" xmlns:xlink="http://www.w3.org/1999/xlink">
<title>Vector</title>
<desc>Created using Figma</desc>
<g id="Canvas" transform="translate(-97 -43)">
<g id="Vector">
<use xlink:href="#path0_fill" transform="translate(97.9938 43.8571)" fill="#FFFFFF"/>
</g>
</g>
<defs>
<path id="path0_fill" d="M 19.9273 12.0489C 21.1036 5.34978 15.2323 -0.384833 8.61278 0.851469C 3.56668 -2.22074 -2.22579 3.63466 0.867227 8.64112C -0.335133 15.3247 5.5345 21.1335 12.2086 19.8653C 17.2642 22.916 23.0385 17.0528 19.9273 12.0489ZM 10.7358 17.1313C 7.97823 17.1313 5.20682 15.8821 5.22069 13.7313C 5.22502 13.0825 5.70961 12.4872 6.35543 12.4872C 7.97909 12.4872 7.96349 14.8985 10.5485 14.8985C 12.3629 14.8985 12.9818 13.9099 12.9818 13.2214C 12.9818 10.7315 5.14267 12.2577 5.14267 7.5765C 5.14267 5.04178 7.22491 3.2956 10.4991 3.48627C 13.6216 3.67003 15.4516 5.04178 15.6284 6.32381C 15.716 7.16152 15.1586 7.81375 14.1903 7.81375C 12.779 7.81375 12.6342 5.93212 10.2026 5.93212C 9.10517 5.93212 8.17934 6.38765 8.17934 7.37635C 8.17934 9.4426 15.9726 8.2434 15.9726 12.7909C 15.9717 15.4127 13.8721 17.1313 10.7358 17.1313Z"/>
</defs>
</svg>
