<svg width="19" height="19" viewBox="0 0 19 19" version="1.1" xmlns="http://www.w3.org/2000/svg" xmlns:xlink="http://www.w3.org/1999/xlink">
<title>Vector</title>
<desc>Created using Figma</desc>
<g id="Canvas" transform="translate(-99 4)">
<g id="Vector">
<use xlink:href="#path0_fill" transform="translate(99.9443 -3.47059)" fill="#FFFFFF"/>
</g>
</g>
<defs>
<path id="path0_fill" d="M 8.90452 12.4346C 10.8334 12.4346 12.4012 10.8735 12.4012 8.95381C 12.4012 7.91186 11.9383 6.9764 11.2079 6.33748C 10.9508 6.11341 10.6618 5.92632 10.3475 5.78434C 9.90687 5.58467 9.41944 5.47301 8.90526 5.47301C 8.39108 5.47301 7.90291 5.58467 7.46303 5.78434C 7.14799 5.9278 6.8582 6.11489 6.6026 6.33822C 5.87071 6.97714 5.4078 7.91261 5.4078 8.95455C 5.4078 10.8735 6.97709 12.4346 8.90452 12.4346ZM 8.91641 6.38259C 10.3438 6.38259 11.5014 7.53398 11.5014 8.95455C 11.5014 10.3751 10.3438 11.5273 8.91641 11.5273C 7.48904 11.5273 6.33139 10.3759 6.33139 8.95455C 6.33139 7.53398 7.48904 6.38259 8.91641 6.38259ZM 12.7973 6.65546L 17.8328 6.65546L 17.8328 14.256C 17.8328 16.1846 16.262 17.7479 14.3242 17.7479L 3.55542 17.7479C 1.61758 17.7479 0 16.1846 0 14.256L 0 6.65546L 5.01325 6.65546C 4.60904 7.33062 4.36532 8.11153 4.36532 8.95455C 4.36532 11.4496 6.39752 13.4721 8.90452 13.4721C 11.4115 13.4721 13.4437 11.4496 13.4437 8.95455C 13.4445 8.11153 13.2007 7.33062 12.7973 6.65546ZM 14.3242 6.56804e-16L 5.20124 6.56804e-16L 5.20124 3.69748L 4.4582 3.69748L 4.4582 6.56804e-16L 3.71517 6.56804e-16L 3.71517 3.69748L 2.97214 3.69748L 2.97214 0.0569412C 2.71505 0.0990924 2.46539 0.162689 2.2291 0.256605L 2.2291 3.69748L 1.48607 3.69748L 1.48607 0.664067C 0.592941 1.29782 0 2.32497 0 3.4919L 0 5.91597L 5.55269 5.91597C 6.41981 4.96793 7.6317 4.43697 8.90452 4.43697C 10.184 4.43697 11.3944 4.97311 12.2563 5.91597L 17.8328 5.91597L 17.8328 3.4919C 17.8328 1.56329 16.262 6.56804e-16 14.3242 6.56804e-16ZM 16.3467 3.89345C 16.3467 4.19368 16.0993 4.43697 15.7932 4.43697L 13.9274 4.43697C 13.622 4.43697 13.3746 4.19368 13.3746 3.89345L 13.3746 2.02252C 13.3746 1.72229 13.622 1.47899 13.9274 1.47899L 15.7932 1.47899C 16.0993 1.47899 16.3467 1.72229 16.3467 2.02252L 16.3467 3.89345Z"/>
</defs>
</svg>
